<svg id="Component_71_1" data-name="Component 71 – 1" xmlns="http://www.w3.org/2000/svg" xmlns:xlink="http://www.w3.org/1999/xlink" width="94" height="23" viewBox="0 0 94 23">
  <defs>
    <clipPath id="clip-path">
      <path id="Shape" d="M9.118,10.961,6,9.385,2.884,10.961a.541.541,0,0,1-.791-.553l.6-3.336L.165,4.712a.52.52,0,0,1,.3-.895l3.486-.489L5.512.292a.556.556,0,0,1,.978,0L8.049,3.328l3.486.489a.52.52,0,0,1,.3.895L9.314,7.072l.6,3.336a.532.532,0,0,1-.537.614A.56.56,0,0,1,9.118,10.961Z" fill="#fecd73"/>
    </clipPath>
    <clipPath id="clip-path-6">
      <rect id="Rectangle_115" data-name="Rectangle 115" width="11" height="23" transform="translate(1447 1099)" fill="#e4eaf1"/>
    </clipPath>
    <clipPath id="clip-path-7">
      <path id="Shape-6" data-name="Shape" d="M9.118,10.961,6,9.385,2.884,10.961a.541.541,0,0,1-.791-.553l.6-3.336L.165,4.712a.52.52,0,0,1,.3-.895l3.486-.489L5.512.292a.556.556,0,0,1,.978,0L8.049,3.328l3.486.489a.52.52,0,0,1,.3.895L9.314,7.072l.6,3.336a.532.532,0,0,1-.537.614A.56.56,0,0,1,9.118,10.961Z" fill="#e4eaf1"/>
    </clipPath>
  </defs>
  <g id="Component_64_1" data-name="Component 64 – 1" transform="translate(4 6)">
    <g id="star" transform="translate(76)">
      <g id="Group_24" data-name="Group 24" transform="translate(1 1)">
        <path id="Shape-7" data-name="Shape" d="M9.118,10.961,6,9.385,2.884,10.961a.541.541,0,0,1-.791-.553l.6-3.336L.165,4.712a.52.52,0,0,1,.3-.895l3.486-.489L5.512.292a.556.556,0,0,1,.978,0L8.049,3.328l3.486.489a.52.52,0,0,1,.3.895L9.314,7.072l.6,3.336a.532.532,0,0,1-.537.614A.56.56,0,0,1,9.118,10.961Z" transform="translate(0 0)" fill="#fecd73"/>
        <g id="Mask_Group_24" data-name="Mask Group 24" transform="translate(0 0)" clip-path="url(#clip-path)">
          <g id="COLOR_black" data-name="COLOR/ black" transform="translate(-0.546 -0.524)">
            <rect id="Rectangle" width="17.456" height="16.778" fill="#fecd73"/>
          </g>
        </g>
      </g>
    </g>
    <g id="star-2" data-name="star" transform="translate(57)">
      <g id="Group_24-2" data-name="Group 24" transform="translate(1 1)">
        <path id="Shape-8" data-name="Shape" d="M9.118,10.961,6,9.385,2.884,10.961a.541.541,0,0,1-.791-.553l.6-3.336L.165,4.712a.52.52,0,0,1,.3-.895l3.486-.489L5.512.292a.556.556,0,0,1,.978,0L8.049,3.328l3.486.489a.52.52,0,0,1,.3.895L9.314,7.072l.6,3.336a.532.532,0,0,1-.537.614A.56.56,0,0,1,9.118,10.961Z" transform="translate(0 0)" fill="#fecd73"/>
        <g id="Mask_Group_24-2" data-name="Mask Group 24" transform="translate(0 0)" clip-path="url(#clip-path)">
          <g id="COLOR_black-2" data-name="COLOR/ black" transform="translate(-0.546 -0.524)">
            <rect id="Rectangle-2" data-name="Rectangle" width="17.456" height="16.778" fill="#fecd73"/>
          </g>
        </g>
      </g>
    </g>
    <g id="star-3" data-name="star" transform="translate(38)">
      <g id="Group_24-3" data-name="Group 24" transform="translate(1 1)">
        <path id="Shape-9" data-name="Shape" d="M9.118,10.961,6,9.385,2.884,10.961a.541.541,0,0,1-.791-.553l.6-3.336L.165,4.712a.52.52,0,0,1,.3-.895l3.486-.489L5.512.292a.556.556,0,0,1,.978,0L8.049,3.328l3.486.489a.52.52,0,0,1,.3.895L9.314,7.072l.6,3.336a.532.532,0,0,1-.537.614A.56.56,0,0,1,9.118,10.961Z" transform="translate(0 0)" fill="#fecd73"/>
        <g id="Mask_Group_24-3" data-name="Mask Group 24" transform="translate(0 0)" clip-path="url(#clip-path)">
          <g id="COLOR_black-3" data-name="COLOR/ black" transform="translate(-0.546 -0.524)">
            <rect id="Rectangle-3" data-name="Rectangle" width="17.456" height="16.778" fill="#fecd73"/>
          </g>
        </g>
      </g>
    </g>
    <g id="star-4" data-name="star" transform="translate(19)">
      <g id="Group_24-4" data-name="Group 24" transform="translate(1 1)">
        <path id="Shape-10" data-name="Shape" d="M9.118,10.961,6,9.385,2.884,10.961a.541.541,0,0,1-.791-.553l.6-3.336L.165,4.712a.52.52,0,0,1,.3-.895l3.486-.489L5.512.292a.556.556,0,0,1,.978,0L8.049,3.328l3.486.489a.52.52,0,0,1,.3.895L9.314,7.072l.6,3.336a.532.532,0,0,1-.537.614A.56.56,0,0,1,9.118,10.961Z" transform="translate(0 0)" fill="#fecd73"/>
        <g id="Mask_Group_24-4" data-name="Mask Group 24" transform="translate(0 0)" clip-path="url(#clip-path)">
          <g id="COLOR_black-4" data-name="COLOR/ black" transform="translate(-0.546 -0.524)">
            <rect id="Rectangle-4" data-name="Rectangle" width="17.456" height="16.778" fill="#fecd73"/>
          </g>
        </g>
      </g>
    </g>
    <g id="star-5" data-name="star">
      <g id="Group_24-5" data-name="Group 24" transform="translate(1 1)">
        <path id="Shape-11" data-name="Shape" d="M9.118,10.961,6,9.385,2.884,10.961a.541.541,0,0,1-.791-.553l.6-3.336L.165,4.712a.52.52,0,0,1,.3-.895l3.486-.489L5.512.292a.556.556,0,0,1,.978,0L8.049,3.328l3.486.489a.52.52,0,0,1,.3.895L9.314,7.072l.6,3.336a.532.532,0,0,1-.537.614A.56.56,0,0,1,9.118,10.961Z" transform="translate(0 0)" fill="#fecd73"/>
        <g id="Mask_Group_24-5" data-name="Mask Group 24" transform="translate(0 0)" clip-path="url(#clip-path)">
          <g id="COLOR_black-5" data-name="COLOR/ black" transform="translate(-0.546 -0.524)">
            <rect id="Rectangle-5" data-name="Rectangle" width="17.456" height="16.778" fill="#fecd73"/>
          </g>
        </g>
      </g>
    </g>
  </g>
  <g id="Group_213" data-name="Group 213" transform="translate(-1447 -1099)" clip-path="url(#clip-path-6)">
    <g id="star-6" data-name="star" transform="translate(1451 1105)">
      <g id="Group_24-6" data-name="Group 24" transform="translate(1 1)">
        <path id="Shape-12" data-name="Shape" d="M9.118,10.961,6,9.385,2.884,10.961a.541.541,0,0,1-.791-.553l.6-3.336L.165,4.712a.52.52,0,0,1,.3-.895l3.486-.489L5.512.292a.556.556,0,0,1,.978,0L8.049,3.328l3.486.489a.52.52,0,0,1,.3.895L9.314,7.072l.6,3.336a.532.532,0,0,1-.537.614A.56.56,0,0,1,9.118,10.961Z" transform="translate(0 0)" fill="#e4eaf1"/>
        <g id="Mask_Group_24-6" data-name="Mask Group 24" transform="translate(0 0)" clip-path="url(#clip-path-7)">
          <g id="COLOR_black-6" data-name="COLOR/ black" transform="translate(-0.546 -0.524)">
            <rect id="Rectangle-6" data-name="Rectangle" width="17.456" height="16.778" fill="#e4eaf1"/>
          </g>
        </g>
      </g>
    </g>
  </g>
</svg>
