<svg xmlns="http://www.w3.org/2000/svg" version="1.0" width="2048.000000pt" height="2048.000000pt" viewBox="0 0 2048.000000 2048.000000" preserveAspectRatio="xMidYMid meet">

<g transform="translate(0.000000,2048.000000) scale(0.100000,-0.100000)" fill="#009f45" stroke="none">
<path d="M9755 20463 c-2876 -137 -5549 -1470 -7386 -3683 -1423 -1715 -2234 -3792 -2350 -6020 -15 -292 -6 -1047 15 -1300 92 -1089 310 -2031 693 -3000 431 -1091 1096 -2165 1878 -3035 357 -397 750 -775 1140 -1094 1461 -1197 3182 -1956 5034 -2221 479 -68 777 -90 1311 -97 473 -6 721 3 1105 38 2739 251 5269 1608 7007 3759 1358 1681 2142 3726 2258 5885 13 244 13 846 0 1090 -147 2748 -1382 5301 -3445 7126 -1734 1532 -3916 2425 -6230 2549 -167 9 -867 11 -1030 3z m1210 -227 c859 -68 1627 -219 2400 -473 1933 -634 3639 -1854 4876 -3488 560 -738 1060 -1646 1380 -2502 343 -919 538 -1816 616 -2823 22 -284 25 -1082 5 -1355 -75 -1035 -268 -1933 -614 -2865 -213 -572 -520 -1201 -848 -1735 -658 -1073 -1542 -2038 -2561 -2797 -488 -363 -952 -648 -1509 -926 -1058 -529 -2176 -860 -3355 -991 -408 -46 -600 -55 -1100 -56 -489 0 -653 7 -1035 46 -2051 207 -3989 1046 -5550 2403 -876 761 -1610 1664 -2185 2687 -122 216 -367 717 -468 954 -395 929 -646 1908 -746 2910 -40 398 -46 522 -46 1020 1 601 24 937 101 1460 347 2365 1534 4529 3344 6101 523 454 1095 856 1705 1197 1279 714 2769 1151 4225 1237 102 6 208 12 235 14 133 10 945 -4 1130 -18z" fill="#009f45"/>
<path d="M11055 15324 c-271 -27 -418 -54 -610 -110 -526 -154 -1021 -479 -1377 -904 -359 -428 -574 -930 -644 -1500 -25 -206 -15 -582 20 -785 143 -820 605 -1509 1306 -1947 933 -583 2143 -566 3057 44 187 126 320 237 478 399 449 463 719 1047 785 1693 16 148 7 543 -13 672 -81 497 -249 908 -523 1279 -121 164 -134 175 -209 175 -86 0 -145 -57 -145 -140 0 -49 18 -86 80 -160 50 -61 146 -206 207 -315 152 -268 260 -601 305 -935 18 -137 15 -508 -5 -643 -128 -842 -629 -1547 -1369 -1923 -372 -189 -731 -274 -1153 -274 -418 0 -771 83 -1136 266 -745 373 -1252 1072 -1381 1899 -29 185 -31 539 -5 720 121 839 634 1552 1388 1931 239 119 464 192 749 240 150 25 524 30 690 10 399 -51 770 -188 1099 -407 108 -72 123 -79 167 -79 89 0 148 60 146 147 -1 66 -25 95 -161 185 -346 230 -757 385 -1181 443 -110 15 -480 28 -565 19z" fill="#009f45"/>
<path d="M10913 14649 c-67 -20 -88 -55 -127 -219 -20 -82 -52 -218 -72 -301 l-36 -151 -41 -18 c-41 -19 -42 -19 -77 3 -19 11 -124 77 -234 144 -283 177 -289 179 -359 149 -29 -12 -247 -222 -429 -413 -67 -71 -68 -73 -68 -126 0 -52 5 -62 160 -313 88 -142 160 -263 159 -269 0 -5 -8 -26 -17 -45 l-17 -34 -285 -67 c-157 -37 -300 -76 -319 -86 -69 -37 -71 -49 -71 -411 0 -359 2 -373 64 -411 18 -11 159 -50 321 -88 l290 -69 17 -34 c9 -19 17 -39 17 -45 1 -5 -71 -127 -159 -270 -156 -252 -160 -261 -160 -314 l0 -55 233 -234 c127 -129 246 -240 264 -248 70 -30 68 -32 393 169 l235 145 35 -14 c19 -8 38 -18 42 -22 4 -4 39 -139 77 -300 39 -161 78 -304 87 -318 38 -57 51 -59 397 -62 306 -3 320 -2 362 18 24 12 51 32 59 45 9 14 48 159 87 322 39 164 72 298 73 299 0 0 19 8 41 16 l41 16 259 -160 c142 -88 273 -162 291 -165 65 -11 91 8 333 251 l235 235 3 58 4 58 -160 260 c-89 142 -161 264 -161 270 1 5 9 26 18 45 l17 34 285 68 c157 36 300 75 319 85 69 37 71 49 71 411 0 298 -1 326 -19 360 -11 20 -32 44 -48 53 -15 9 -158 48 -317 85 -249 60 -291 72 -304 92 -31 47 -22 69 142 335 l158 258 -4 55 -5 56 -229 230 c-222 223 -265 258 -319 258 -35 0 -53 -10 -332 -181 l-242 -149 -38 17 c-21 10 -39 18 -40 18 0 0 -33 134 -72 298 -40 164 -79 309 -87 322 -9 13 -35 33 -58 45 -40 19 -59 20 -347 19 -167 0 -318 -5 -336 -10z m567 -556 c35 -148 69 -279 76 -293 21 -43 56 -68 134 -96 41 -14 97 -38 124 -51 39 -20 60 -24 100 -21 45 4 81 23 288 151 130 81 240 147 245 147 5 0 61 -53 126 -118 l118 -118 -151 -244 c-82 -135 -153 -261 -157 -280 -7 -37 -5 -43 67 -215 63 -153 53 -147 357 -220 142 -34 270 -65 286 -68 l27 -7 0 -170 0 -169 -39 -11 c-21 -5 -106 -26 -187 -45 -335 -78 -345 -81 -375 -111 -24 -25 -65 -111 -126 -269 -11 -26 -14 -53 -9 -76 3 -20 73 -144 156 -279 l150 -243 -117 -118 c-65 -66 -121 -119 -126 -119 -5 0 -115 66 -245 146 -207 128 -243 148 -288 152 -40 3 -61 -1 -100 -20 -27 -14 -83 -38 -124 -53 -80 -30 -122 -61 -139 -104 -10 -25 -131 -527 -131 -543 0 -4 -79 -8 -175 -8 -96 0 -175 2 -175 4 0 18 -130 548 -138 562 -20 37 -58 63 -132 90 -41 14 -96 37 -122 50 -29 15 -65 24 -93 24 -42 0 -69 -14 -291 -150 -134 -82 -248 -150 -252 -150 -4 0 -60 53 -125 118 l-118 119 142 229 c78 126 148 243 155 261 21 48 17 74 -19 155 -18 40 -43 101 -56 134 -39 106 -43 108 -348 181 -147 35 -276 66 -285 69 -16 5 -18 22 -18 174 0 152 2 169 18 174 9 3 138 34 287 70 260 62 271 65 301 98 17 19 39 59 49 89 10 30 34 87 53 127 27 58 33 82 29 113 -4 27 -51 114 -156 286 l-152 247 120 120 121 121 32 -19 c18 -11 130 -79 248 -153 197 -122 219 -133 263 -133 30 0 65 9 95 24 26 13 81 36 122 50 74 27 112 53 132 89 8 16 71 268 124 500 l16 67 172 0 172 0 64 -267z" fill="#009f45"/>
<path d="M11065 13190 c-144 -38 -242 -97 -348 -209 -81 -87 -145 -200 -174 -311 -27 -100 -24 -284 6 -380 73 -235 239 -408 466 -486 96 -33 267 -44 368 -24 212 41 411 191 505 382 59 119 76 191 76 328 1 136 -16 206 -76 330 -34 69 -59 102 -133 175 -103 104 -203 162 -331 195 -102 26 -261 26 -359 0z m363 -315 c91 -45 161 -114 204 -202 32 -65 33 -72 33 -183 0 -109 -2 -118 -32 -180 -46 -94 -116 -163 -210 -208 -74 -35 -84 -37 -178 -37 -94 0 -104 2 -175 36 -179 85 -271 251 -248 449 15 129 107 259 229 320 82 42 121 50 219 45 72 -4 96 -10 158 -40z" fill="#009f45"/>
<path d="M14431 9319 c-73 -14 -141 -39 -226 -82 -73 -37 -101 -62 -321 -281 -132 -133 -373 -377 -537 -543 l-296 -303 -717 0 -716 0 22 33 c39 58 88 171 105 244 14 57 17 101 13 200 -5 115 -9 137 -39 218 -84 221 -248 376 -483 458 l-91 32 -910 3 c-974 4 -1033 1 -1180 -45 -68 -22 -469 -197 -1164 -509 l-164 -74 -272 0 -273 0 -4 93 c-3 77 -8 99 -27 125 -44 62 -45 62 -432 62 -343 0 -353 -1 -387 -22 -35 -21 -72 -85 -72 -123 0 -38 38 -104 72 -125 31 -19 50 -20 291 -20 l257 0 0 -1605 0 -1605 -715 0 -715 0 0 1604 0 1605 164 3 c160 3 165 4 191 28 79 74 71 186 -17 240 -31 18 -51 20 -284 20 -244 0 -252 -1 -285 -23 -19 -12 -42 -38 -51 -57 -17 -33 -18 -140 -18 -1820 l0 -1785 23 -39 c12 -21 38 -47 57 -57 33 -18 77 -19 934 -19 l899 0 42 25 c47 27 75 80 75 140 l0 34 938 3 c921 4 939 4 1049 26 107 21 499 117 1996 488 612 152 672 169 703 196 89 78 55 215 -61 247 -43 12 -5 20 -1230 -284 -1233 -306 -1380 -342 -1489 -362 -80 -15 -200 -17 -998 -20 l-908 -4 0 1371 0 1370 310 0 310 0 458 204 c251 112 545 243 652 291 305 136 191 125 1261 125 872 0 920 -1 978 -19 230 -71 365 -308 306 -534 -41 -159 -123 -240 -315 -308 -65 -24 -67 -24 -685 -29 l-620 -5 -31 -22 c-91 -65 -82 -200 16 -250 l44 -23 1633 0 c1363 0 1639 2 1666 14 18 7 149 132 297 282 887 899 830 843 905 880 310 152 665 -70 665 -416 0 -95 -26 -186 -74 -255 -19 -27 -148 -171 -287 -320 -139 -148 -338 -362 -443 -475 -492 -528 -598 -618 -901 -765 -172 -84 -282 -120 -643 -209 -166 -42 -313 -83 -326 -91 -32 -21 -56 -74 -56 -122 0 -72 68 -143 138 -143 46 0 646 151 772 195 282 97 578 276 797 479 99 93 1123 1188 1176 1259 145 192 184 464 102 700 -69 200 -235 373 -435 454 -118 47 -299 66 -419 42z" fill="#009f45"/>
</g>
</svg>