<svg xmlns="http://www.w3.org/2000/svg" xmlns:xlink="http://www.w3.org/1999/xlink" width="42" height="42" viewBox="0 0 42 42">
  <defs>
    <clipPath id="clip-path">
      <rect id="Rectangle_175" data-name="Rectangle 175" width="42" height="42" transform="translate(687 130)" fill="#fff"/>
    </clipPath>
  </defs>
  <g id="icon-6" transform="translate(-687 -130)" clip-path="url(#clip-path)">
    <g id="setting" transform="translate(687 126.5)">
      <g id="Group_782" data-name="Group 782">
        <path id="Path_604" data-name="Path 604" d="M21,22.75a4.375,4.375,0,1,1,4.375-4.375A4.381,4.381,0,0,1,21,22.75Zm0-7a2.625,2.625,0,1,0,2.625,2.625A2.628,2.628,0,0,0,21,15.75Z" fill="#fff"/>
      </g>
      <g id="Group_783" data-name="Group 783">
        <path id="Path_605" data-name="Path 605" d="M22.356,29.75H19.644a1.724,1.724,0,0,1-1.715-1.58l-.217-2.228a8.068,8.068,0,0,1-1.451-.866l-1.962.912a1.7,1.7,0,0,1-2.219-.728l-1.354-2.415a1.767,1.767,0,0,1,.483-2.28l1.75-1.3a6.953,6.953,0,0,1,0-1.788l-1.75-1.3a1.77,1.77,0,0,1-.485-2.28l1.356-2.417a1.7,1.7,0,0,1,2.219-.726l1.962.912a8.008,8.008,0,0,1,1.451-.866l.217-2.229A1.724,1.724,0,0,1,19.644,7h2.712a1.724,1.724,0,0,1,1.715,1.58l.217,2.228a7.948,7.948,0,0,1,1.451.866l1.962-.912a1.706,1.706,0,0,1,2.219.728l1.354,2.415a1.767,1.767,0,0,1-.483,2.28l-1.75,1.3a6.952,6.952,0,0,1,0,1.788l1.75,1.3a1.765,1.765,0,0,1,.483,2.278L29.918,25.26a1.706,1.706,0,0,1-2.217.726l-1.962-.912a8.008,8.008,0,0,1-1.451.866l-.217,2.229A1.724,1.724,0,0,1,22.356,29.75Zm-5.971-6.571a.876.876,0,0,1,.57.212,6.243,6.243,0,0,0,1.883,1.129.873.873,0,0,1,.563.733L19.67,28l2.686,0,.241-2.747a.871.871,0,0,1,.563-.733,6.279,6.279,0,0,0,1.883-1.129.878.878,0,0,1,.94-.131L28.437,24.4l1.311-2.412-2.17-1.624a.877.877,0,0,1-.343-.849,6.775,6.775,0,0,0,.114-1.139,6.776,6.776,0,0,0-.114-1.139.872.872,0,0,1,.343-.849l2.172-1.61-1.358-2.434-2.408,1.146a.878.878,0,0,1-.941-.131,6.272,6.272,0,0,0-1.883-1.129A.873.873,0,0,1,22.6,11.5L22.33,8.748l-2.686,0L19.4,11.5a.871.871,0,0,1-.563.733,6.279,6.279,0,0,0-1.883,1.129.879.879,0,0,1-.94.131L13.562,12.35l-1.311,2.411,2.17,1.624a.877.877,0,0,1,.343.849,6.618,6.618,0,0,0-.114,1.141,6.757,6.757,0,0,0,.114,1.139.872.872,0,0,1-.343.849L12.25,21.971l1.358,2.434,2.408-1.146A.884.884,0,0,1,16.385,23.179Z" fill="#fff"/>
      </g>
      <g id="Group_784" data-name="Group 784">
        <path id="Path_606" data-name="Path 606" d="M36.75,42H5.25a5.25,5.25,0,0,1,0-10.5h31.5a5.25,5.25,0,0,1,0,10.5ZM5.25,33.25a3.5,3.5,0,0,0,0,7h31.5a3.5,3.5,0,0,0,0-7Z" fill="#fff"/>
      </g>
      <g id="Group_785" data-name="Group 785">
        <path id="Path_607" data-name="Path 607" d="M5.25,38.5A1.75,1.75,0,1,1,7,36.75,1.753,1.753,0,0,1,5.25,38.5Zm0-1.752h0l.875,0Z" fill="#fff"/>
      </g>
      <g id="Group_786" data-name="Group 786">
        <path id="Path_608" data-name="Path 608" d="M15.75,38.5a1.75,1.75,0,1,1,1.75-1.75A1.753,1.753,0,0,1,15.75,38.5Zm0-1.752h0l.875,0Z" fill="#fff"/>
      </g>
      <g id="Group_787" data-name="Group 787">
        <path id="Path_609" data-name="Path 609" d="M26.25,38.5A1.75,1.75,0,1,1,28,36.75,1.753,1.753,0,0,1,26.25,38.5Zm0-1.752h0l.875,0Z" fill="#fff"/>
      </g>
      <g id="Group_788" data-name="Group 788">
        <path id="Path_610" data-name="Path 610" d="M36.75,38.5a1.75,1.75,0,1,1,1.75-1.75A1.753,1.753,0,0,1,36.75,38.5Zm0-1.752h0l.875,0Z" fill="#fff"/>
      </g>
    </g>
  </g>
</svg>
