<svg xmlns="http://www.w3.org/2000/svg" xmlns:xlink="http://www.w3.org/1999/xlink" width="42" height="42" viewBox="0 0 42 42">
  <defs>
    <clipPath id="clip-path">
      <rect id="Rectangle_172" data-name="Rectangle 172" width="42" height="42" transform="translate(1020 130)" fill="#fff"/>
    </clipPath>
  </defs>
  <g id="icon-4" transform="translate(-1020 -130)" clip-path="url(#clip-path)">
    <g id="report" transform="translate(1020 130)">
      <path id="Path_611" data-name="Path 611" d="M35.306,0H6.694a2.1,2.1,0,0,0-2.1,2.1V33.25a.7.7,0,0,0,.205.495c8.6,8.6,8.092,8.125,8.277,8.2a.7.7,0,0,0,.96-.548c.011-.081.008.455.008-6.749a2.1,2.1,0,0,0-2.1-2.1H10.182a.7.7,0,1,0,0,1.4h1.761a.7.7,0,0,1,.7.7v4.96l-6.65-6.65V2.1a.7.7,0,0,1,.7-.7H35.306a.7.7,0,0,1,.7.7V39.9a.7.7,0,0,1-.7.7H17.16a.7.7,0,0,0,0,1.4H35.306a2.1,2.1,0,0,0,2.1-2.1V2.1a2.1,2.1,0,0,0-2.1-2.1Z" fill="#fff"/>
      <path id="Path_612" data-name="Path 612" d="M23.84,6.132a.7.7,0,1,0,.5-1.307A9.462,9.462,0,0,0,11.506,13.65a.7.7,0,0,0,.7.7h3.2A5.6,5.6,0,0,0,24.826,17.7l1.909,1.551a8.045,8.045,0,0,1-12.606-1.33.7.7,0,0,0-1.186.743A9.446,9.446,0,0,0,28.235,19.67a.678.678,0,0,0,.1-.127A9.438,9.438,0,0,0,27.787,7.12.7.7,0,0,0,26.8,7.1L24.486,9.307A5.595,5.595,0,0,0,15.4,12.95H12.936A8.053,8.053,0,0,1,23.84,6.132ZM20.956,9.45a4.2,4.2,0,0,1,4.2,4.2.7.7,0,1,0,1.4,0,5.57,5.57,0,0,0-1.1-3.332l1.782-1.7a8.037,8.037,0,0,1,.384,9.547L25.2,16.2a.7.7,0,0,0-.984.1,4.2,4.2,0,1,1-3.26-6.848Z" fill="#fff"/>
      <path id="Path_613" data-name="Path 613" d="M30.144,30.537h-.437a.7.7,0,0,0,0,1.4h.437a.7.7,0,0,1,.7.7v4.025H24.019V27.737a.7.7,0,0,1,.7-.7h1.312a.7.7,0,0,1,.7.7v6.91a.7.7,0,0,0,1.4,0v-6.91a2.1,2.1,0,0,0-2.1-2.1H24.719a2.1,2.1,0,0,0-2.1,2.1v8.925H19.906v-5.6a.7.7,0,0,1,.7-.7h.656a.7.7,0,0,0,0-1.4h-.656a2.1,2.1,0,0,0-2.1,2.1v5.6h-.35a.7.7,0,0,0,0,1.4H32.681a.7.7,0,0,0,0-1.4h-.437V32.637A2.1,2.1,0,0,0,30.144,30.537Z" fill="#fff"/>
      <path id="Path_614" data-name="Path 614" d="M14.744,24.15H9.319a.7.7,0,1,0,0,1.4h5.425a.7.7,0,1,0,0-1.4Z" fill="#fff"/>
      <path id="Path_615" data-name="Path 615" d="M9.319,28a.7.7,0,0,0,0,1.4h3.762a.7.7,0,0,0,0-1.4Z" fill="#fff"/>
    </g>
  </g>
</svg>
