<svg xmlns="http://www.w3.org/2000/svg" xmlns:xlink="http://www.w3.org/1999/xlink" width="42" height="42" viewBox="0 0 42 42">
  <defs>
    <clipPath id="clip-path">
      <rect id="Rectangle_176" data-name="Rectangle 176" width="42" height="42" transform="translate(528 130)" fill="#fff"/>
    </clipPath>
  </defs>
  <g id="icon-7" transform="translate(-528 -130)" clip-path="url(#clip-path)">
    <g id="handshake" transform="translate(528 130.239)">
      <path id="Path_599" data-name="Path 599" d="M41.829,17.625,34.8,8.493A.824.824,0,0,0,33.7,8.3l-4.539,2.886H23.247a.816.816,0,0,0-.227.038l-4.59,1.321-4.762-1.3L9.041,8.3a.823.823,0,0,0-1.083.178L.183,18.11a.823.823,0,0,0,.1,1.141l4.075,3.507,3.656,4.927A2.908,2.908,0,0,0,9.847,32.57a2.929,2.929,0,0,0-.034.445,2.911,2.911,0,0,0,2.911,2.911h.031c0,.02,0,.039,0,.059a2.91,2.91,0,0,0,2.911,2.911,2.97,2.97,0,0,0,.454-.036,2.911,2.911,0,0,0,4.953,1.772l.445-.445.187.151A2.909,2.909,0,0,0,26.636,38.2a2.905,2.905,0,0,0,2.954-2.953,2.908,2.908,0,0,0,2.954-2.956A2.909,2.909,0,0,0,35.031,27.8l2.67-5.591,4.013-3.454a.823.823,0,0,0,.115-1.127ZM8.777,10.086,12.1,12.2,4.866,21.02l-2.9-2.5Zm.469,18.7,1-1c.03-.03.062-.059.1-.086a1.261,1.261,0,0,1,.686-.278h.021c.036,0,.072,0,.108,0a1.256,1.256,0,0,1,.9.4,1.3,1.3,0,0,1-.056,1.792l-.974.974a1.263,1.263,0,0,1-1.786-1.787Zm2.584,5.126a1.263,1.263,0,0,1,0-1.786l1.947-1.947a1.277,1.277,0,0,1,1.436-.248,1.259,1.259,0,0,1,.7,1.3,1.333,1.333,0,0,1-.376.761l-1.917,1.916a1.263,1.263,0,0,1-1.787,0Zm2.94,2.969a1.263,1.263,0,0,1,0-1.786l1.947-1.947a1.277,1.277,0,0,1,1.527-.2,1.257,1.257,0,0,1,.6,1.277,1.335,1.335,0,0,1-.374.741l-1.916,1.916a1.263,1.263,0,0,1-1.787,0Zm3.349,2.589a1.265,1.265,0,0,1,0-1.786l1-1c.03-.03.062-.059.095-.086l0,0a1.259,1.259,0,0,1,.56-.26l.014,0c.035-.006.071-.012.107-.015l.044,0c.029,0,.059,0,.088,0a1.255,1.255,0,0,1,.9.4,1.139,1.139,0,0,1,.081.1,1.3,1.3,0,0,1-.142,1.7l-.969.969a1.265,1.265,0,0,1-1.786,0Zm15.363-9.191a1.264,1.264,0,0,1-1.786,0,.75.75,0,0,0-.056-.05l-5.3-5.351a.824.824,0,0,0-1.171,1.159l5.353,5.409,0,0a1.263,1.263,0,1,1-1.787,1.787l-3.581-3.618a.824.824,0,1,0-1.171,1.159l3.526,3.563a.781.781,0,0,0,.058.064,1.263,1.263,0,1,1-1.787,1.786l-1.954-1.975a.824.824,0,0,0-1.171,1.158l1.9,1.919a.735.735,0,0,0,.058.065,1.263,1.263,0,0,1-1.786,1.787,1.822,1.822,0,0,0-.187-.149c-.054-.041-.068-.07-.041-.135s.068-.126.1-.193.054-.151.078-.228a2.969,2.969,0,0,0,.107-1.267,2.881,2.881,0,0,0-2.455-2.479,2.937,2.937,0,0,0-.705-2.65,2.889,2.889,0,0,0-2.074-.91h-.087a2.882,2.882,0,0,0-2.853-2.969,2.962,2.962,0,0,0-.7.075,2.882,2.882,0,0,0-2.824-2.471,2.917,2.917,0,0,0-1.988.748l-3.184-4.29,7.616-9.278,2.427.664L12.886,19.2a2.911,2.911,0,0,0,1.1,3.967q.063.036.128.069l.01,0a2.929,2.929,0,0,0,.349.146,2.91,2.91,0,0,0,3.48-1.317l2.06-3.635,3.678.261,9.795,9.794a1.265,1.265,0,0,1,0,1.787Zm.341-3.775-9.188-9.188a.729.729,0,0,0-.054-.05.824.824,0,0,0-.469-.189l-4.5-.319a.837.837,0,0,0-.775.416l-2.316,4.087a1.263,1.263,0,1,1-2.2-1.246l3.092-5.457,1.253-.36.025-.008,4.676-1.35h5.65L36.068,21.8Zm3.323-5.991-6.523-8.3,3.329-2.117,6.095,7.917Zm0,0" fill="#fff"/>
      <path id="Path_600" data-name="Path 600" d="M25.445,9.641a.821.821,0,0,0,.583-.241l5.626-5.626A.824.824,0,0,0,30.488,2.61L24.863,8.235a.824.824,0,0,0,.582,1.406Zm0,0" fill="#fff"/>
      <path id="Path_601" data-name="Path 601" d="M15.973,9.4a.824.824,0,1,0,1.165-1.165L11.512,2.61a.824.824,0,0,0-1.165,1.165Zm0,0" fill="#fff"/>
      <path id="Path_602" data-name="Path 602" d="M21,9.641a.824.824,0,0,0,.824-.824V4.162a.824.824,0,1,0-1.647,0V8.818A.824.824,0,0,0,21,9.641Zm0,0" fill="#fff"/>
      <path id="Path_603" data-name="Path 603" d="M20.24,1.177A.823.823,0,1,0,21.5.209a.832.832,0,0,0-.958-.031.829.829,0,0,0-.3,1Zm0,0" fill="#fff"/>
    </g>
  </g>
</svg>
