<svg xmlns="http://www.w3.org/2000/svg" xmlns:xlink="http://www.w3.org/1999/xlink" width="42" height="42" viewBox="0 0 42 42">
  <defs>
    <clipPath id="clip-path">
      <rect id="Rectangle_173" data-name="Rectangle 173" width="42" height="42" transform="translate(1154 130)" fill="#fff"/>
    </clipPath>
  </defs>
  <g id="icon-3" transform="translate(-1154 -130)" clip-path="url(#clip-path)">
    <g id="technical-support" transform="translate(1154 130)">
      <path id="Path_582" data-name="Path 582" d="M7.387,32.48a3.425,3.425,0,0,0-1.655.422A19.368,19.368,0,0,1,24.855,2.024.82.82,0,0,0,25.18.416,21.156,21.156,0,0,0,21,0,21,21,0,0,0,4.519,34.014,3.447,3.447,0,1,0,7.387,32.48ZM8.663,37.2a1.8,1.8,0,1,1,.529-1.276A1.792,1.792,0,0,1,8.663,37.2Zm0,0" fill="#fff"/>
      <path id="Path_583" data-name="Path 583" d="M37.48,7.985A3.438,3.438,0,1,0,36.268,9.1,19.368,19.368,0,0,1,17.181,39.983a.82.82,0,0,0-.322,1.609A21.171,21.171,0,0,0,21,42,21,21,0,0,0,37.48,7.985Zm-4.143-.634a1.805,1.805,0,1,1,1.276.528,1.793,1.793,0,0,1-1.276-.528Zm0,0" fill="#fff"/>
      <path id="Path_584" data-name="Path 584" d="M17.615,35.109a.82.82,0,0,0,.82.82h5.129a.82.82,0,0,0,.82-.82v-1.59a12.846,12.846,0,0,0,3.079-1.276l1.123,1.123a.82.82,0,0,0,1.16,0l3.625-3.628a.821.821,0,0,0,0-1.16L32.25,27.456a12.846,12.846,0,0,0,1.276-3.079h1.584a.82.82,0,0,0,.82-.82V18.428a.82.82,0,0,0-.82-.82H33.526a12.848,12.848,0,0,0-1.276-3.078l1.115-1.115a.82.82,0,0,0,0-1.161L29.737,8.628a.82.82,0,0,0-1.16,0L27.463,9.742a12.846,12.846,0,0,0-3.079-1.276V6.891a.82.82,0,0,0-.82-.82H18.435a.82.82,0,0,0-.82.82V8.467a12.835,12.835,0,0,0-3.078,1.276L13.422,8.628a.821.821,0,0,0-1.16,0L8.634,12.253a.82.82,0,0,0,0,1.16L9.75,14.529a12.844,12.844,0,0,0-1.276,3.078H6.892a.82.82,0,0,0-.82.82l0,5.129a.82.82,0,0,0,.82.821H8.474A12.846,12.846,0,0,0,9.75,27.456L8.628,28.578a.82.82,0,0,0,0,1.16l3.625,3.628a.821.821,0,0,0,.58.241h0a.82.82,0,0,0,.58-.24l1.122-1.123a12.857,12.857,0,0,0,3.079,1.276Zm-2.757-4.592a.821.821,0,0,0-1.025.109l-1,1-2.466-2.468,1-1a.82.82,0,0,0,.109-1.025,11.228,11.228,0,0,1-1.554-3.75.821.821,0,0,0-.8-.648H7.71l0-3.489H9.119a.82.82,0,0,0,.8-.648,11.229,11.229,0,0,1,1.554-3.75.82.82,0,0,0-.109-1.025l-.991-.992,2.468-2.466.99.991a.821.821,0,0,0,1.025.109,11.224,11.224,0,0,1,3.75-1.554.821.821,0,0,0,.648-.8v-1.4h3.489v1.4a.82.82,0,0,0,.648.8,11.233,11.233,0,0,1,3.75,1.554.82.82,0,0,0,1.025-.109l.991-.99,2.468,2.466-.991.991a.82.82,0,0,0-.109,1.025,11.236,11.236,0,0,1,1.554,3.75.82.82,0,0,0,.8.648h1.41v3.489h-1.41a.821.821,0,0,0-.8.648,11.226,11.226,0,0,1-1.554,3.75.82.82,0,0,0,.109,1.025l1,1-2.466,2.468-1-1a.82.82,0,0,0-1.025-.109,11.236,11.236,0,0,1-3.75,1.554.82.82,0,0,0-.648.8v1.415H19.255V32.874a.821.821,0,0,0-.648-.8,11.229,11.229,0,0,1-3.75-1.554Zm0,0" fill="#fff"/>
      <path id="Path_585" data-name="Path 585" d="M27.778,21A6.778,6.778,0,1,0,21,27.778,6.786,6.786,0,0,0,27.778,21ZM15.862,21A5.138,5.138,0,1,1,21,26.137,5.143,5.143,0,0,1,15.862,21Zm0,0" fill="#fff"/>
      <path id="Path_586" data-name="Path 586" d="M28.553,3.1a.821.821,0,1,0-.58-.24A.826.826,0,0,0,28.553,3.1Zm0,0" fill="#fff"/>
      <path id="Path_587" data-name="Path 587" d="M13.483,38.912a.821.821,0,1,0,.58.24A.827.827,0,0,0,13.483,38.912Zm0,0" fill="#fff"/>
    </g>
  </g>
</svg>
