<svg xmlns="http://www.w3.org/2000/svg" xmlns:xlink="http://www.w3.org/1999/xlink" width="42" height="42" viewBox="0 0 42 42">
  <defs>
    <clipPath id="clip-path">
      <rect id="Rectangle_170" data-name="Rectangle 170" width="42" height="42" transform="translate(1372 130)" fill="rgba(255,255,255,0.17)"/>
    </clipPath>
  </defs>
  <g id="icon-1" transform="translate(-1372 -130)" clip-path="url(#clip-path)">
    <path id="bird-house" d="M41.351,13.214,26.316,1.8a8.788,8.788,0,0,0-10.634,0L.644,13.3a1.641,1.641,0,0,0,1.993,2.606l1.628-1.245V28.149a8.776,8.776,0,0,0,8.766,8.766H28.968a8.776,8.776,0,0,0,8.766-8.766V14.588l1.633,1.24a1.641,1.641,0,0,0,1.984-2.613Zm-6.9,14.935a5.491,5.491,0,0,1-5.485,5.485H13.032a5.491,5.491,0,0,1-5.485-5.485v-16L17.674,4.407a5.5,5.5,0,0,1,6.655,0L34.453,12.1ZM21,12.306a5.332,5.332,0,1,0,5.332,5.332A5.338,5.338,0,0,0,21,12.306Zm0,7.383a2.051,2.051,0,1,1,2.051-2.051A2.053,2.053,0,0,1,21,19.689ZM23.051,28.3a2.051,2.051,0,0,1-4.1,0A2.051,2.051,0,0,1,23.051,28.3Z" transform="translate(1372 132.539)" fill="#fff"/>
  </g>
</svg>
