<svg xmlns="http://www.w3.org/2000/svg" xmlns:xlink="http://www.w3.org/1999/xlink" width="42" height="42" viewBox="0 0 42 42">
  <defs>
    <clipPath id="clip-path">
      <rect id="Rectangle_174" data-name="Rectangle 174" width="42" height="42" transform="translate(851 130)" fill="#fff"/>
    </clipPath>
  </defs>
  <g id="icon-5" transform="translate(-851 -130)" clip-path="url(#clip-path)">
    <g id="analytics" transform="translate(851 130)">
      <g id="Group_762" data-name="Group 762">
        <g id="Group_761" data-name="Group 761">
          <path id="Path_588" data-name="Path 588" d="M39.136,36.135A2.868,2.868,0,0,0,42,33.271V4.1A4.106,4.106,0,0,0,37.9,0H4.1A4.106,4.106,0,0,0,0,4.1V33.271a2.868,2.868,0,0,0,2.864,2.864h.909v4.224H.82A.82.82,0,0,0,.82,42H41.18a.82.82,0,0,0,0-1.641H38.227V36.135ZM1.641,4.1A2.464,2.464,0,0,1,4.1,1.641H37.9A2.464,2.464,0,0,1,40.359,4.1v1.8H1.723c-.028,0-.055,0-.082,0ZM9.023,40.359H5.414V32.977H9.023Zm9.188,0H14.6V23.907h3.609Zm9.188,0H23.789V30.844H27.4ZM37.406,21.041h-5.25a.82.82,0,0,0-.82.82V26a.82.82,0,0,0,1.641,0V22.682h3.609V40.359H32.977V31.521a.82.82,0,0,0-1.641,0v8.839h-2.3V30.023a.82.82,0,0,0-.82-.82h-5.25a.82.82,0,0,0-.82.82V40.359h-2.3V23.086a.82.82,0,0,0-.82-.82h-5.25a.82.82,0,0,0-.82.82V40.359h-2.3v-8.2a.82.82,0,0,0-.82-.82H4.594a.82.82,0,0,0-.82.82v2.338H2.864a1.225,1.225,0,0,1-1.224-1.224V7.543c.027,0,.055,0,.082,0H40.359V33.271a1.225,1.225,0,0,1-1.224,1.224h-.909V21.861A.82.82,0,0,0,37.406,21.041Z" fill="#fff"/>
        </g>
      </g>
      <g id="Group_764" data-name="Group 764">
        <g id="Group_763" data-name="Group 763">
          <path id="Path_589" data-name="Path 589" d="M36.75,2.953H18.216a.82.82,0,0,0,0,1.641H36.75a.82.82,0,0,0,0-1.641Z" fill="#fff"/>
        </g>
      </g>
      <g id="Group_766" data-name="Group 766">
        <g id="Group_765" data-name="Group 765">
          <path id="Path_590" data-name="Path 590" d="M9.111,3.193a.82.82,0,1,0,.24.58A.827.827,0,0,0,9.111,3.193Z" fill="#fff"/>
        </g>
      </g>
      <g id="Group_768" data-name="Group 768">
        <g id="Group_767" data-name="Group 767">
          <path id="Path_591" data-name="Path 591" d="M5.83,3.193a.82.82,0,1,0,.24.58A.827.827,0,0,0,5.83,3.193Z" fill="#fff"/>
        </g>
      </g>
      <g id="Group_770" data-name="Group 770">
        <g id="Group_769" data-name="Group 769">
          <path id="Path_592" data-name="Path 592" d="M12.392,3.193a.82.82,0,1,0,.24.58A.825.825,0,0,0,12.392,3.193Z" fill="#fff"/>
        </g>
      </g>
      <g id="Group_772" data-name="Group 772">
        <g id="Group_771" data-name="Group 771">
          <path id="Path_593" data-name="Path 593" d="M32.736,28.348a.82.82,0,1,0,.24.58A.823.823,0,0,0,32.736,28.348Z" fill="#fff"/>
        </g>
      </g>
      <g id="Group_774" data-name="Group 774">
        <g id="Group_773" data-name="Group 773">
          <path id="Path_594" data-name="Path 594" d="M34.781,11.151a2.951,2.951,0,0,0-2.389,4.685l-5.449,5.449a2.946,2.946,0,0,0-2.723-.066l-5.69-5.69a2.953,2.953,0,1,0-5.1.127L8.589,20.5a2.955,2.955,0,1,0,1.16,1.16l4.9-4.9a2.946,2.946,0,0,0,2.718-.069L23,22.323a2.953,2.953,0,1,0,5.1.122L33.7,16.851a2.953,2.953,0,1,0,1.083-5.7ZM7.164,24.4a1.313,1.313,0,1,1,1.313-1.312A1.314,1.314,0,0,1,7.164,24.4Zm8.78-8.982A1.313,1.313,0,1,1,17.257,14.1,1.314,1.314,0,0,1,15.945,15.417Zm9.573,9.767a1.313,1.313,0,1,1,1.313-1.312A1.314,1.314,0,0,1,25.518,25.184Zm9.264-9.767A1.313,1.313,0,1,1,36.094,14.1,1.314,1.314,0,0,1,34.781,15.417Z" fill="#fff"/>
        </g>
      </g>
      <g id="Group_776" data-name="Group 776">
        <g id="Group_775" data-name="Group 775">
          <path id="Path_595" data-name="Path 595" d="M12.168,10.578a.82.82,0,1,0,.24.58A.828.828,0,0,0,12.168,10.578Z" fill="#fff"/>
        </g>
      </g>
      <g id="Group_778" data-name="Group 778">
        <g id="Group_777" data-name="Group 777">
          <path id="Path_596" data-name="Path 596" d="M8.531,10.338H4.594a.82.82,0,1,0,0,1.641H8.531a.82.82,0,1,0,0-1.641Z" fill="#fff"/>
        </g>
      </g>
      <g id="Group_780" data-name="Group 780">
        <g id="Group_779" data-name="Group 779">
          <path id="Path_597" data-name="Path 597" d="M8.531,14.275H4.594a.82.82,0,0,0,0,1.641H8.531a.82.82,0,0,0,0-1.641Z" fill="#fff"/>
        </g>
      </g>
    </g>
  </g>
</svg>
