<svg xmlns="http://www.w3.org/2000/svg" xmlns:xlink="http://www.w3.org/1999/xlink" width="42" height="42" viewBox="0 0 42 42">
  <defs>
    <clipPath id="clip-path">
      <rect id="Rectangle_171" data-name="Rectangle 171" width="42" height="42" transform="translate(1263 130)" fill="rgba(255,255,255,0.17)"/>
    </clipPath>
  </defs>
  <g id="icon-2" transform="translate(-1263 -130)" clip-path="url(#clip-path)">
    <path id="info" d="M19.68,10.876a2.051,2.051,0,1,1,2.051,2.051A2.051,2.051,0,0,1,19.68,10.876ZM22.848,25.97a.7.7,0,0,1-1-.675l1.3-5.18q.019-.076.031-.153A3.979,3.979,0,0,0,17.5,15.787l-1.344.655,1.437,2.95,1.345-.656a.7.7,0,0,1,1,.675l-1.3,5.18q-.019.076-.031.153a3.977,3.977,0,0,0,5.678,4.175l1.115-.544-1.439-2.949ZM42,19.318a17.911,17.911,0,0,1-1.688,7.928,14.694,14.694,0,0,1-4.662,5.5c-3.592,2.6-8.658,3.967-14.65,3.967a35.14,35.14,0,0,1-4.827-.321A12.71,12.71,0,0,1,7.5,40.072H7.465l-2.949,0,1.557-2.5a17.422,17.422,0,0,0,1.607-3.957C2.648,30.653,0,25.74,0,19.318a17.911,17.911,0,0,1,1.688-7.928,14.694,14.694,0,0,1,4.662-5.5C9.942,3.3,15.008,1.928,21,1.928S32.058,3.3,35.65,5.895a14.7,14.7,0,0,1,4.662,5.5A17.911,17.911,0,0,1,42,19.318Zm-3.281,0c0-4.75-1.679-8.371-4.99-10.764C30.7,6.366,26.3,5.209,21,5.209S11.3,6.366,8.272,8.554c-3.311,2.393-4.99,6.014-4.99,10.764,0,5.65,2.364,9.681,7.026,11.981l1.154.569-.278,1.257a24.3,24.3,0,0,1-.935,3.182,9.205,9.205,0,0,0,4.071-2.743l.6-.7.913.155A30.981,30.981,0,0,0,21,33.428c5.3,0,9.7-1.157,12.728-3.345C37.04,27.69,38.719,24.068,38.719,19.318Z" transform="translate(1263 130)" fill="#fff"/>
  </g>
</svg>
