<svg xmlns="http://www.w3.org/2000/svg" width="297.998" height="257.48" viewBox="0 0 297.998 257.48">
  <g id="Group_1348" data-name="Group 1348" transform="translate(578.06 -323.97)">
    <g id="Group_1192" data-name="Group 1192" transform="translate(-569.517 323.97)">
      <path id="Path_1987" data-name="Path 1987" d="M-323.909,359.224a3.33,3.33,0,0,1-.986,2.368,3.314,3.314,0,0,1-2.364.986h-71.7a3.363,3.363,0,0,1-3.351-3.354,3.33,3.33,0,0,1,.987-2.368,3.314,3.314,0,0,1,2.364-.987h3.389a8.736,8.736,0,0,1,8.027-5.285,8.728,8.728,0,0,1,6.2,2.577,12.139,12.139,0,0,1,10.469-5.988,12.147,12.147,0,0,1,3.521.522,13.871,13.871,0,0,1,12.26-7.374A13.881,13.881,0,0,1-341.724,350.5a8.714,8.714,0,0,1,3.911-.925,8.742,8.742,0,0,1,8.4,6.3h2.159A3.362,3.362,0,0,1-323.909,359.224Z" transform="translate(508.178 -329.677)" fill="#000f39"/>
      <path id="Path_1988" data-name="Path 1988" d="M-466.226,342.394a2.449,2.449,0,0,1-.725,1.741,2.436,2.436,0,0,1-1.738.726H-521.42a2.473,2.473,0,0,1-2.463-2.467,2.451,2.451,0,0,1,.725-1.741,2.439,2.439,0,0,1,1.738-.725h2.493a6.424,6.424,0,0,1,5.9-3.886,6.419,6.419,0,0,1,4.558,1.894,8.927,8.927,0,0,1,7.7-4.4,8.94,8.94,0,0,1,2.589.384,10.2,10.2,0,0,1,9.016-5.423,10.208,10.208,0,0,1,9.836,7.482,6.413,6.413,0,0,1,2.876-.68,6.428,6.428,0,0,1,6.174,4.632h1.588A2.472,2.472,0,0,1-466.226,342.394Z" transform="translate(550.609 -325.549)" fill="#000f39"/>
      <path id="Path_1989" data-name="Path 1989" d="M-191.983,337.871a2.449,2.449,0,0,1-.725,1.741,2.437,2.437,0,0,1-1.738.726h-52.73a2.473,2.473,0,0,1-2.464-2.467,2.45,2.45,0,0,1,.725-1.741,2.437,2.437,0,0,1,1.739-.726h2.492a6.425,6.425,0,0,1,5.9-3.886,6.418,6.418,0,0,1,4.558,1.894,8.927,8.927,0,0,1,7.7-4.4,8.941,8.941,0,0,1,2.589.384,10.2,10.2,0,0,1,9.016-5.423,10.208,10.208,0,0,1,9.835,7.482,6.417,6.417,0,0,1,2.876-.68,6.428,6.428,0,0,1,6.174,4.631h1.588A2.473,2.473,0,0,1-191.983,337.871Z" transform="translate(454.894 -323.97)" fill="#000f39"/>
      <path id="Path_1990" data-name="Path 1990" d="M-151.679,511.126a10.018,10.018,0,0,0-2.575.894l-2.737-3.038-3.328,3,2.621,2.907a9.975,9.975,0,0,0-1.421,2.577l-4.572-.238-.234,4.474,4.218.219a10.02,10.02,0,0,0,1.048,3.639L-161.7,528.3l3,3.329,2.908-2.62a10,10,0,0,0,3.1,1.593l-.2,3.794,4.474.232.19-3.664a10.031,10.031,0,0,0,3.781-1.365l2.62,2.907,3.329-3-2.738-3.038A9.981,9.981,0,0,0-140.077,524l4.321.225.233-4.474-4.193-.218a10.03,10.03,0,0,0-1.364-3.78l2.907-2.62-3-3.328-3.038,2.737a10.07,10.07,0,0,0-2.989-1.312l.218-4.192-4.474-.234Zm5.044,7.119a4.111,4.111,0,0,1-.3,5.8,4.111,4.111,0,0,1-5.8-.3,4.111,4.111,0,0,1,.3-5.8A4.11,4.11,0,0,1-146.634,518.245Z" transform="translate(424.979 -387.782)" fill="#000f39"/>
      <path id="Path_1991" data-name="Path 1991" d="M-535.85,425.61a10.005,10.005,0,0,0-2.575.894l-2.737-3.038-3.329,3,2.621,2.907a9.969,9.969,0,0,0-1.421,2.578l-4.572-.238-.234,4.474,4.218.219a10.014,10.014,0,0,0,1.049,3.64l-3.038,2.737,3,3.329,2.908-2.62a10,10,0,0,0,3.1,1.594l-.2,3.794,4.474.232.19-3.665a10.04,10.04,0,0,0,3.781-1.364l2.62,2.907,3.328-3-2.738-3.038a9.981,9.981,0,0,0,1.156-2.468l4.321.225.233-4.474-4.193-.218a10.018,10.018,0,0,0-1.364-3.78l2.907-2.62-3-3.328-3.037,2.737a10.071,10.071,0,0,0-2.989-1.312l.219-4.192-4.474-.234Zm5.044,7.119a4.111,4.111,0,0,1-.3,5.8,4.111,4.111,0,0,1-5.8-.3,4.111,4.111,0,0,1,.3-5.8A4.111,4.111,0,0,1-530.805,432.728Z" transform="translate(559.059 -357.935)" fill="#000f39"/>
      <path id="Path_1992" data-name="Path 1992" d="M-156.1,482.345a5.481,5.481,0,0,0-1.407.488l-1.5-1.66-1.819,1.639,1.432,1.589a5.435,5.435,0,0,0-.777,1.409l-2.5-.13-.128,2.446,2.305.119a5.47,5.47,0,0,0,.573,1.989l-1.66,1.5,1.639,1.819,1.589-1.432a5.442,5.442,0,0,0,1.693.871l-.108,2.073,2.446.127.1-2a5.475,5.475,0,0,0,2.066-.745l1.432,1.589,1.82-1.639-1.5-1.66a5.486,5.486,0,0,0,.632-1.349l2.361.123.128-2.446-2.291-.118a5.476,5.476,0,0,0-.746-2.066l1.589-1.432-1.639-1.819-1.66,1.5a5.52,5.52,0,0,0-1.633-.717l.12-2.291-2.445-.128Zm2.757,3.89a2.247,2.247,0,0,1-.165,3.17,2.247,2.247,0,0,1-3.17-.165,2.247,2.247,0,0,1,.165-3.17A2.246,2.246,0,0,1-153.347,486.235Z" transform="translate(424.585 -378.421)" fill="#000f39"/>
      <path id="Path_1993" data-name="Path 1993" d="M-558.244,471.907a5.454,5.454,0,0,0-1.407.488l-1.5-1.66-1.819,1.639,1.432,1.589a5.423,5.423,0,0,0-.777,1.409l-2.5-.13-.128,2.445,2.305.12a5.484,5.484,0,0,0,.574,1.989l-1.66,1.5,1.639,1.819,1.589-1.432a5.482,5.482,0,0,0,1.693.871l-.108,2.073,2.445.127.1-2A5.476,5.476,0,0,0-554.29,482l1.432,1.588,1.819-1.639-1.5-1.66a5.45,5.45,0,0,0,.631-1.348l2.362.123.128-2.446-2.292-.119a5.488,5.488,0,0,0-.746-2.066l1.589-1.432-1.639-1.82-1.66,1.5a5.487,5.487,0,0,0-1.633-.717l.12-2.291-2.446-.128Zm2.757,3.89a2.247,2.247,0,0,1-.165,3.17,2.247,2.247,0,0,1-3.17-.165,2.247,2.247,0,0,1,.165-3.17A2.247,2.247,0,0,1-555.487,475.8Z" transform="translate(564.937 -374.778)" fill="#000f39"/>
    </g>
    <ellipse id="Ellipse_75" data-name="Ellipse 75" cx="142.815" cy="10.586" rx="142.815" ry="10.586" transform="translate(-578.06 560.278)" fill="#faafb4"/>
    <g id="Group_1233" data-name="Group 1233" transform="translate(-526.6 349.728)">
      <g id="Group_1211" data-name="Group 1211" transform="translate(176.382 47.381)">
        <g id="Group_1193" data-name="Group 1193" transform="translate(2.69 26.607)">
          <path id="Path_1994" data-name="Path 1994" d="M-216.226,481.046a3.858,3.858,0,0,1-3.854,3.854,3.858,3.858,0,0,1-3.853-3.854,3.857,3.857,0,0,1,3.853-3.853A3.858,3.858,0,0,1-216.226,481.046Zm-1.209,0a2.647,2.647,0,0,0-2.645-2.644,2.647,2.647,0,0,0-2.644,2.644,2.648,2.648,0,0,0,2.644,2.645A2.648,2.648,0,0,0-217.435,481.046Z" transform="translate(223.933 -477.193)" fill="#000f39"/>
        </g>
        <g id="Group_1195" data-name="Group 1195" transform="translate(19.666 15.354)">
          <g id="Group_1194" data-name="Group 1194">
            <path id="Path_1995" data-name="Path 1995" d="M-190.148,463.76A3.858,3.858,0,0,1-194,467.614a3.858,3.858,0,0,1-3.854-3.854A3.858,3.858,0,0,1-194,459.906,3.858,3.858,0,0,1-190.148,463.76Zm-1.209,0A2.648,2.648,0,0,0-194,461.116a2.647,2.647,0,0,0-2.644,2.644A2.647,2.647,0,0,0-194,466.4,2.648,2.648,0,0,0-191.357,463.76Z" transform="translate(197.856 -459.906)" fill="#000f39"/>
          </g>
        </g>
        <g id="Group_1202" data-name="Group 1202" transform="translate(20.875)">
          <g id="Group_1198" data-name="Group 1198" transform="translate(3.742)">
            <g id="Group_1196" data-name="Group 1196" transform="translate(0 4.665)">
              <path id="Path_1996" data-name="Path 1996" d="M-189.646,443.487a.6.6,0,0,0-.6.6v2.666a.6.6,0,0,0,.6.6.6.6,0,0,0,.6-.6v-2.666A.6.6,0,0,0-189.646,443.487Z" transform="translate(190.25 -443.487)" fill="#000f39"/>
            </g>
            <g id="Group_1197" data-name="Group 1197">
              <path id="Path_1997" data-name="Path 1997" d="M-189.646,436.321a.6.6,0,0,0-.6.6v2.666a.6.6,0,0,0,.6.6.6.6,0,0,0,.6-.6v-2.666A.6.6,0,0,0-189.646,436.321Z" transform="translate(190.25 -436.321)" fill="#000f39"/>
            </g>
          </g>
          <g id="Group_1201" data-name="Group 1201" transform="translate(0 3.666)">
            <g id="Group_1199" data-name="Group 1199" transform="translate(5.089)">
              <path id="Path_1998" data-name="Path 1998" d="M-185.182,441.952h-2.394a.6.6,0,0,0-.6.6.6.6,0,0,0,.6.6h2.394a.6.6,0,0,0,.6-.6A.6.6,0,0,0-185.182,441.952Z" transform="translate(188.181 -441.952)" fill="#000f39"/>
            </g>
            <g id="Group_1200" data-name="Group 1200">
              <path id="Path_1999" data-name="Path 1999" d="M-193,441.952h-2.395a.6.6,0,0,0-.6.6.6.6,0,0,0,.6.6H-193a.6.6,0,0,0,.6-.6A.6.6,0,0,0-193,441.952Z" transform="translate(195.998 -441.952)" fill="#000f39"/>
            </g>
          </g>
        </g>
        <g id="Group_1210" data-name="Group 1210" transform="translate(0 10.063)">
          <g id="Group_1209" data-name="Group 1209">
            <g id="Group_1205" data-name="Group 1205" transform="translate(3.741)">
              <g id="Group_1203" data-name="Group 1203" transform="translate(0 4.666)">
                <path id="Path_2000" data-name="Path 2000" d="M-221.713,458.946a.6.6,0,0,0-.6.6v2.666a.6.6,0,0,0,.6.6.6.6,0,0,0,.6-.6V459.55A.6.6,0,0,0-221.713,458.946Z" transform="translate(222.318 -458.946)" fill="#000f39"/>
              </g>
              <g id="Group_1204" data-name="Group 1204">
                <path id="Path_2001" data-name="Path 2001" d="M-221.713,451.779a.6.6,0,0,0-.6.6v2.666a.6.6,0,0,0,.6.6.6.6,0,0,0,.6-.6v-2.666A.6.6,0,0,0-221.713,451.779Z" transform="translate(222.318 -451.779)" fill="#000f39"/>
              </g>
            </g>
            <g id="Group_1208" data-name="Group 1208" transform="translate(0 3.666)">
              <g id="Group_1206" data-name="Group 1206" transform="translate(5.089)">
                <path id="Path_2002" data-name="Path 2002" d="M-217.249,457.41h-2.395a.6.6,0,0,0-.6.6.6.6,0,0,0,.6.6h2.395a.6.6,0,0,0,.6-.6A.6.6,0,0,0-217.249,457.41Z" transform="translate(220.248 -457.41)" fill="#000f39"/>
              </g>
              <g id="Group_1207" data-name="Group 1207">
                <path id="Path_2003" data-name="Path 2003" d="M-225.066,457.41h-2.395a.6.6,0,0,0-.6.6.6.6,0,0,0,.6.6h2.395a.6.6,0,0,0,.6-.6A.6.6,0,0,0-225.066,457.41Z" transform="translate(228.065 -457.41)" fill="#000f39"/>
              </g>
            </g>
          </g>
        </g>
      </g>
      <g id="Group_1232" data-name="Group 1232">
        <g id="Group_1213" data-name="Group 1213" transform="translate(9.466 3.293)">
          <g id="Group_1212" data-name="Group 1212">
            <path id="Path_2004" data-name="Path 2004" d="M-480.616,376.3a3.858,3.858,0,0,1-3.854-3.853,3.858,3.858,0,0,1,3.854-3.854,3.858,3.858,0,0,1,3.854,3.854A3.858,3.858,0,0,1-480.616,376.3Zm0-1.209a2.647,2.647,0,0,0,2.644-2.644,2.647,2.647,0,0,0-2.644-2.645,2.647,2.647,0,0,0-2.645,2.645A2.647,2.647,0,0,0-480.616,375.093Z" transform="translate(484.47 -368.595)" fill="#000f39"/>
          </g>
        </g>
        <g id="Group_1215" data-name="Group 1215" transform="translate(20.485 16.022)">
          <g id="Group_1214" data-name="Group 1214">
            <path id="Path_2005" data-name="Path 2005" d="M-463.69,395.856A3.858,3.858,0,0,1-467.544,392a3.858,3.858,0,0,1,3.854-3.854A3.858,3.858,0,0,1-459.837,392,3.857,3.857,0,0,1-463.69,395.856Zm0-1.209A2.647,2.647,0,0,0-461.046,392a2.647,2.647,0,0,0-2.644-2.645A2.648,2.648,0,0,0-466.335,392,2.648,2.648,0,0,0-463.69,394.647Z" transform="translate(467.544 -388.149)" fill="#000f39"/>
          </g>
        </g>
        <g id="Group_1222" data-name="Group 1222" transform="translate(30.273)">
          <g id="Group_1218" data-name="Group 1218" transform="translate(0 3.742)">
            <g id="Group_1216" data-name="Group 1216">
              <path id="Path_2006" data-name="Path 2006" d="M-448.633,369.889a.6.6,0,0,0-.6-.6H-451.9a.6.6,0,0,0-.6.6.6.6,0,0,0,.6.6h2.666A.6.6,0,0,0-448.633,369.889Z" transform="translate(452.508 -369.285)" fill="#000f39"/>
            </g>
            <g id="Group_1217" data-name="Group 1217" transform="translate(4.666)">
              <path id="Path_2007" data-name="Path 2007" d="M-441.466,369.889a.6.6,0,0,0-.6-.6h-2.666a.6.6,0,0,0-.6.6.6.6,0,0,0,.6.6h2.666A.6.6,0,0,0-441.466,369.889Z" transform="translate(445.341 -369.285)" fill="#000f39"/>
            </g>
          </g>
          <g id="Group_1221" data-name="Group 1221" transform="translate(3.666)">
            <g id="Group_1219" data-name="Group 1219" transform="translate(0 5.089)">
              <path id="Path_2008" data-name="Path 2008" d="M-445.668,374.353v-2.395a.6.6,0,0,0-.6-.6.6.6,0,0,0-.6.6v2.395a.6.6,0,0,0,.6.6A.6.6,0,0,0-445.668,374.353Z" transform="translate(446.877 -371.354)" fill="#000f39"/>
            </g>
            <g id="Group_1220" data-name="Group 1220">
              <path id="Path_2009" data-name="Path 2009" d="M-445.668,366.536v-2.4a.6.6,0,0,0-.6-.6.6.6,0,0,0-.6.6v2.4a.6.6,0,0,0,.6.6A.6.6,0,0,0-445.668,366.536Z" transform="translate(446.877 -363.537)" fill="#000f39"/>
            </g>
          </g>
        </g>
        <g id="Group_1231" data-name="Group 1231" transform="translate(0 22.52)">
          <g id="Group_1230" data-name="Group 1230">
            <g id="Group_1226" data-name="Group 1226" transform="translate(0 3.742)">
              <g id="Group_1223" data-name="Group 1223">
                <path id="Path_2010" data-name="Path 2010" d="M-495.136,404.484a.6.6,0,0,0-.6-.6h-2.666a.6.6,0,0,0-.6.6.6.6,0,0,0,.6.6h2.666A.6.6,0,0,0-495.136,404.484Z" transform="translate(499.011 -403.879)" fill="#000f39"/>
              </g>
              <g id="Group_1225" data-name="Group 1225" transform="translate(4.665)">
                <g id="Group_1224" data-name="Group 1224">
                  <path id="Path_2011" data-name="Path 2011" d="M-487.97,404.484a.6.6,0,0,0-.6-.6h-2.666a.6.6,0,0,0-.6.6.6.6,0,0,0,.6.6h2.666A.6.6,0,0,0-487.97,404.484Z" transform="translate(491.845 -403.879)" fill="#000f39"/>
                </g>
              </g>
            </g>
            <g id="Group_1229" data-name="Group 1229" transform="translate(3.666)">
              <g id="Group_1227" data-name="Group 1227" transform="translate(0 5.089)">
                <path id="Path_2012" data-name="Path 2012" d="M-492.171,408.947v-2.394a.6.6,0,0,0-.6-.6.6.6,0,0,0-.6.6v2.394a.6.6,0,0,0,.6.6A.6.6,0,0,0-492.171,408.947Z" transform="translate(493.38 -405.948)" fill="#000f39"/>
              </g>
              <g id="Group_1228" data-name="Group 1228">
                <path id="Path_2013" data-name="Path 2013" d="M-492.171,401.13v-2.394a.6.6,0,0,0-.6-.6.6.6,0,0,0-.6.6v2.394a.6.6,0,0,0,.6.6A.6.6,0,0,0-492.171,401.13Z" transform="translate(493.38 -398.131)" fill="#000f39"/>
              </g>
            </g>
          </g>
        </g>
      </g>
    </g>
    <g id="Group_1248" data-name="Group 1248" transform="translate(-536.077 347.261)">
      <g id="Group_1238" data-name="Group 1238" transform="translate(149.317)">
        <g id="Group_1235" data-name="Group 1235" transform="translate(8.008)">
          <path id="Path_2014" data-name="Path 2014" d="M-271.9,403.138l1.539.913.817.483,2.313,1.37s43.742-21.884,38.156-41.872c-1.719-6.153-10.651-7.757-19.667,9.571C-257.1,389.665-271.9,403.138-271.9,403.138Z" transform="translate(271.897 -359.748)" fill="#000f39"/>
          <g id="Group_1234" data-name="Group 1234" transform="translate(1.539 11.446)">
            <path id="Path_2015" data-name="Path 2015" d="M-269.533,410.187l.817.483a118.564,118.564,0,0,0,22.081-20.107,133.2,133.2,0,0,0,9.744-12.568.428.428,0,0,0-.122-.594.428.428,0,0,0-.594.122,132.518,132.518,0,0,1-9.685,12.488C-252.415,395.912-260.281,403.993-269.533,410.187Z" transform="translate(269.533 -377.33)" fill="#fff"/>
          </g>
        </g>
        <g id="Group_1237" data-name="Group 1237" transform="translate(0 13.239)">
          <path id="Path_2016" data-name="Path 2016" d="M-284.2,415.426l1.456,2,.772,1.059,2.188,3s67.462-3.9,71.284-32.316c1.176-8.749-9.284-15.66-30.185,1.412C-258.059,406.406-284.2,415.426-284.2,415.426Z" transform="translate(284.199 -380.085)" fill="#000f39"/>
          <g id="Group_1236" data-name="Group 1236" transform="translate(1.456 13.212)">
            <path id="Path_2017" data-name="Path 2017" d="M-281.963,424.507l.772,1.059c15.053-2.874,29.328-8.795,39-13.467a184.1,184.1,0,0,0,19.228-10.632.59.59,0,0,0,.168-.82.592.592,0,0,0-.82-.17,182.809,182.809,0,0,1-19.11,10.563C-252.445,415.733-266.84,421.7-281.963,424.507Z" transform="translate(281.963 -400.38)" fill="#fff"/>
          </g>
        </g>
      </g>
      <g id="Group_1243" data-name="Group 1243" transform="translate(0 147.205)">
        <g id="Group_1240" data-name="Group 1240" transform="translate(24.541)">
          <path id="Path_2018" data-name="Path 2018" d="M-432.769,629.491l-1.545.9-.82.478-2.321,1.356s-43.608-22.149-37.9-42.1c1.757-6.143,10.7-7.693,19.608,9.69C-447.489,615.928-432.769,629.491-432.769,629.491Z" transform="translate(475.871 -585.873)" fill="#ff858d"/>
          <g id="Group_1239" data-name="Group 1239" transform="translate(9.042 11.468)">
            <path id="Path_2019" data-name="Path 2019" d="M-429.466,636.541l-.82.478a118.546,118.546,0,0,1-21.958-20.24,133.067,133.067,0,0,1-9.668-12.627.427.427,0,0,1,.126-.592.428.428,0,0,1,.592.125,132.471,132.471,0,0,0,9.61,12.547C-446.5,622.164-438.68,630.292-429.466,636.541Z" transform="translate(461.981 -603.49)" fill="#fff"/>
          </g>
        </g>
        <g id="Group_1242" data-name="Group 1242" transform="translate(0 13.107)">
          <path id="Path_2020" data-name="Path 2020" d="M-437.949,641.756l-1.468,1.989-.779,1.055-2.206,2.987s-67.437-4.308-71.086-32.747c-1.124-8.755,9.379-15.6,30.176,1.6C-464.034,632.577-437.949,641.756-437.949,641.756Z" transform="translate(513.569 -606.008)" fill="#ff858d"/>
          <g id="Group_1241" data-name="Group 1241" transform="translate(15.029 13.255)">
            <path id="Path_2021" data-name="Path 2021" d="M-431.36,650.851l-.779,1.055c-15.035-2.966-29.273-8.973-38.918-13.7a184.207,184.207,0,0,1-19.162-10.748.59.59,0,0,1-.163-.822.592.592,0,0,1,.821-.165,182.928,182.928,0,0,0,19.045,10.679C-460.823,641.9-446.465,647.949-431.36,650.851Z" transform="translate(490.483 -626.368)" fill="#fff"/>
          </g>
        </g>
      </g>
      <g id="Group_1245" data-name="Group 1245" transform="translate(156.281 96.892)">
        <g id="Group_1244" data-name="Group 1244" transform="translate(0 7.387)">
          <path id="Path_2022" data-name="Path 2022" d="M-271.689,578.754c8.525-10.973,16.784-22.939,21.32-31.506,5.926-11.193,8.3-20.166,7.059-26.668a.794.794,0,0,0-.93-.631.8.8,0,0,0-.631.93c2.171,11.367-7.726,31.279-28.63,57.629Z" transform="translate(273.501 -519.933)" fill="#000f39"/>
        </g>
        <path id="Path_2023" data-name="Path 2023" d="M-231.13,542.249s5.513,3.706,11.65-6.24C-219.48,536.009-229.527,532.729-231.13,542.249Z" transform="translate(258.713 -517.967)" fill="#000f39"/>
        <path id="Path_2024" data-name="Path 2024" d="M-238.989,547.593s4.007-5.3-5.581-11.979C-244.57,535.614-248.405,545.462-238.989,547.593Z" transform="translate(263.674 -518.019)" fill="#000f39"/>
        <path id="Path_2025" data-name="Path 2025" d="M-230.116,521.741s5.544-3.659-1.269-13.155C-231.385,508.586-238.283,516.593-230.116,521.741Z" transform="translate(259.752 -508.586)" fill="#000f39"/>
        <path id="Path_2026" data-name="Path 2026" d="M-244.038,568.329s3.934,5.352,13.074-1.931C-230.964,566.4-239.309,559.912-244.038,568.329Z" transform="translate(263.218 -527.93)" fill="#000f39"/>
        <path id="Path_2027" data-name="Path 2027" d="M-252.559,571.393s4.863-4.524-3.426-12.763C-255.984,558.63-261.464,567.666-252.559,571.393Z" transform="translate(267.97 -526.052)" fill="#000f39"/>
        <path id="Path_2028" data-name="Path 2028" d="M-256.723,587.172s3.831,5.426,13.108-1.683C-243.615,585.489-251.835,578.847-256.723,587.172Z" transform="translate(267.645 -534.55)" fill="#000f39"/>
      </g>
      <g id="Group_1247" data-name="Group 1247" transform="translate(13.867 38.742)">
        <g id="Group_1246" data-name="Group 1246" transform="translate(5.837 7.348)">
          <path id="Path_2029" data-name="Path 2029" d="M-439.624,479.194c-11.28-8.114-22.586-17.256-29.36-24.191-8.85-9.06-13.666-16.995-14.314-23.583a.8.8,0,0,1,.714-.869.8.8,0,0,1,.868.714c1.133,11.517,16.256,27.817,43.76,47.178Z" transform="translate(483.302 -430.548)" fill="#abd3f2"/>
        </g>
        <path id="Path_2030" data-name="Path 2030" d="M-479.33,452.177s-4.239,5.114-12.938-2.69C-492.268,449.487-483.56,443.5-479.33,452.177Z" transform="translate(492.268 -429.108)" fill="#cae6fe"/>
        <path id="Path_2031" data-name="Path 2031" d="M-466.833,454.229s-5.341-3.948,1.966-13.069C-464.867,441.16-458.4,449.522-466.833,454.229Z" transform="translate(484.048 -426.904)" fill="#cae6fe"/>
        <path id="Path_2032" data-name="Path 2032" d="M-482.257,432.237s-6.352-1.941-2.5-12.976C-484.761,419.261-475.879,424.99-482.257,432.237Z" transform="translate(490.08 -419.261)" fill="#cae6fe"/>
        <path id="Path_2033" data-name="Path 2033" d="M-460.026,473.41s-2.259,6.246-13.086,1.845C-473.112,475.255-466.942,466.675-460.026,473.41Z" transform="translate(485.582 -437.259)" fill="#cae6fe"/>
        <path id="Path_2034" data-name="Path 2034" d="M-446.778,473.356s-5.944-2.965-.323-13.212C-447.1,460.144-439.29,467.262-446.778,473.356Z" transform="translate(477.348 -433.53)" fill="#cae6fe"/>
        <path id="Path_2035" data-name="Path 2035" d="M-442.528,487.889s-2.14,6.288-13.048,2.093C-455.576,489.982-449.57,481.286-442.528,487.889Z" transform="translate(479.462 -442.349)" fill="#cae6fe"/>
      </g>
    </g>
    <g id="Group_1267" data-name="Group 1267" transform="translate(-499.231 363.392)">
      <g id="Group_1266" data-name="Group 1266">
        <g id="Group_1257" data-name="Group 1257" transform="translate(13.658)">
          <g id="Group_1249" data-name="Group 1249" transform="translate(7)">
            <path id="Path_2036" data-name="Path 2036" d="M-311.653,395.068V580.817a10.54,10.54,0,0,1-10.541,10.541h-92.5a10.51,10.51,0,0,1-7.481-3.113,10.516,10.516,0,0,1-3.06-7.428V395.068a10.54,10.54,0,0,1,10.541-10.541h92.5a10.49,10.49,0,0,1,4.781,1.144A10.537,10.537,0,0,1-311.653,395.068Z" transform="translate(425.235 -384.527)" fill="#3b3e7d"/>
          </g>
          <g id="Group_1250" data-name="Group 1250" transform="translate(3.073)">
            <path id="Path_2037" data-name="Path 2037" d="M-317.685,395.068V580.817a10.54,10.54,0,0,1-10.541,10.541h-92.5a10.51,10.51,0,0,1-7.481-3.113,10.516,10.516,0,0,1-3.06-7.428V395.068a10.54,10.54,0,0,1,10.541-10.541h92.5a10.49,10.49,0,0,1,4.782,1.144A10.537,10.537,0,0,1-317.685,395.068Z" transform="translate(431.267 -384.527)" fill="#9a1d26"/>
          </g>
          <g id="Group_1251" data-name="Group 1251" transform="translate(118.654 28.908)">
            <path id="Rectangle_837" data-name="Rectangle 837" d="M3.784,0h.138a0,0,0,0,1,0,0V16.775a0,0,0,0,1,0,0H3.784A3.784,3.784,0,0,1,0,12.991V3.784A3.784,3.784,0,0,1,3.784,0Z" transform="translate(3.922 16.775) rotate(180)" fill="#18285d"/>
          </g>
          <g id="Group_1252" data-name="Group 1252" transform="translate(0 28.908)">
            <path id="Rectangle_838" data-name="Rectangle 838" d="M2.965,0h.108a0,0,0,0,1,0,0V16.775a0,0,0,0,1,0,0H2.965A2.965,2.965,0,0,1,0,13.81V2.965A2.965,2.965,0,0,1,2.965,0Z" fill="#18285d"/>
          </g>
          <g id="Group_1253" data-name="Group 1253" transform="translate(0 50.916)">
            <path id="Rectangle_839" data-name="Rectangle 839" d="M2.965,0h.108a0,0,0,0,1,0,0V16.775a0,0,0,0,1,0,0H2.965A2.965,2.965,0,0,1,0,13.81V2.965A2.965,2.965,0,0,1,2.965,0Z" fill="#18285d"/>
          </g>
          <g id="Group_1254" data-name="Group 1254" transform="translate(8.333 5.258)">
            <path id="Path_2038" data-name="Path 2038" d="M-320.126,397.248V584.271a4.642,4.642,0,0,1-4.644,4.644h-93.774a4.644,4.644,0,0,1-4.276-2.825,4.655,4.655,0,0,1-.368-1.819V397.248a4.645,4.645,0,0,1,4.644-4.644h93.774a4.647,4.647,0,0,1,.89.085,4.558,4.558,0,0,1,.935.286,4.673,4.673,0,0,1,2.756,3.511A4.538,4.538,0,0,1-320.126,397.248Z" transform="translate(423.188 -392.604)" fill="#fff"/>
          </g>
          <g id="Group_1256" data-name="Group 1256" transform="translate(34.032 165.109)">
            <path id="Path_2039" data-name="Path 2039" d="M-329.593,640.214V657a2.148,2.148,0,0,1-2.227,2.059h-49.663A2.148,2.148,0,0,1-383.71,657V640.214a2.148,2.148,0,0,1,2.227-2.058h49.663A2.148,2.148,0,0,1-329.593,640.214Z" transform="translate(383.71 -638.156)" fill="#d42e39"/>
            <g id="Group_1255" data-name="Group 1255" transform="translate(9.96 1.367)">
              <text id="PAY" transform="translate(0.992 13)" fill="#005ec9" font-size="13" font-family="Montserrat-Black, Montserrat" font-weight="800"><tspan x="0" y="0">PAY</tspan></text>
              <text id="PAY-2" data-name="PAY" transform="translate(0 13)" fill="#fff" font-size="13" font-family="Montserrat-Black, Montserrat" font-weight="800"><tspan x="0" y="0">PAY</tspan></text>
            </g>
          </g>
        </g>
        <rect id="Rectangle_840" data-name="Rectangle 840" width="46.919" height="83.02" transform="translate(22.286 62.948)" fill="#e9e2e8"/>
        <g id="Group_1258" data-name="Group 1258" transform="translate(65.735 47.435)">
          <path id="Path_2040" data-name="Path 2040" d="M-337.9,466.441v86.268a9.078,9.078,0,0,1-6.2,8.585,8.976,8.976,0,0,1-2.851.463,9.073,9.073,0,0,1-9.048-9.048V466.441a9.073,9.073,0,0,1,9.048-9.048,8.975,8.975,0,0,1,2.851.464,9.07,9.07,0,0,1,3.54,2.194A9.017,9.017,0,0,1-337.9,466.441Z" transform="translate(355.992 -457.393)" fill="#18285d"/>
          <path id="Path_2041" data-name="Path 2041" d="M-334.839,466.69v86.267a9.078,9.078,0,0,1-6.2,8.585,9.078,9.078,0,0,1-6.2-8.585V466.69a9.078,9.078,0,0,1,6.2-8.585,9.07,9.07,0,0,1,3.54,2.194A9.017,9.017,0,0,1-334.839,466.69Z" transform="translate(352.935 -457.642)" fill="#3b3e7d"/>
        </g>
        <path id="Path_2042" data-name="Path 2042" d="M-320.126,397.248v19.233H-423.188V397.248a4.645,4.645,0,0,1,4.644-4.644h93.774a4.647,4.647,0,0,1,.89.085,4.558,4.558,0,0,1,.935.286,4.673,4.673,0,0,1,2.756,3.511A4.538,4.538,0,0,1-320.126,397.248Z" transform="translate(445.179 -387.346)" fill="#e9e2e8"/>
        <g id="Group_1265" data-name="Group 1265" transform="translate(0 5.258)">
          <g id="Group_1259" data-name="Group 1259">
            <path id="Path_2043" data-name="Path 2043" d="M-437.611,417.123l-.033.034.006,6.43a9.63,9.63,0,0,1-2.832,6.834,9.63,9.63,0,0,1-6.834,2.832,9.665,9.665,0,0,1-9.6-8.585,9.409,9.409,0,0,1-.061-1.081v-6.3l23.6-23.6a3.694,3.694,0,0,1,2.613-1.083h17.266Z" transform="translate(456.969 -392.604)" fill="#072473"/>
            <path id="Path_2044" data-name="Path 2044" d="M-437.644,430.3l.006,6.43a9.63,9.63,0,0,1-2.832,6.834A9.63,9.63,0,0,1-447.3,446.4a9.665,9.665,0,0,1-9.6-8.585l-.061-7.384,19.358-.161Z" transform="translate(456.969 -405.75)" fill="#000f39"/>
          </g>
          <g id="Group_1260" data-name="Group 1260" transform="translate(38.657)">
            <path id="Path_2045" data-name="Path 2045" d="M-354.1,392.6l-24.146,24.145v6.839a9.629,9.629,0,0,1-2.831,6.834,9.63,9.63,0,0,1-6.834,2.832,9.666,9.666,0,0,1-9.666-9.666l-.006-6.623,24.145-24.361Z" transform="translate(397.587 -392.604)" fill="#072473"/>
            <path id="Path_2046" data-name="Path 2046" d="M-378.25,429.781v6.782a9.629,9.629,0,0,1-2.831,6.834,9.63,9.63,0,0,1-6.834,2.832,9.666,9.666,0,0,1-9.666-9.666l-.006-6.623Z" transform="translate(397.587 -405.579)" fill="#000f39"/>
          </g>
          <g id="Group_1261" data-name="Group 1261" transform="translate(77.32)">
            <path id="Path_2047" data-name="Path 2047" d="M-318.283,416.482l.006,7.106a9.63,9.63,0,0,1-2.832,6.834,9.631,9.631,0,0,1-6.834,2.832c-5.338,0-10.254-4.328-10.254-9.666l.041-6.839.1-.1,24-24.041h19.92Z" transform="translate(338.196 -392.604)" fill="#072473"/>
            <path id="Path_2048" data-name="Path 2048" d="M-318.276,436.389a9.63,9.63,0,0,1-2.832,6.834,9.631,9.631,0,0,1-6.834,2.832c-5.338,0-10.254-4.328-10.254-9.666l.041-6.839.1-.1,19.768-.163Z" transform="translate(338.196 -405.405)" fill="#000f39"/>
          </g>
          <g id="Group_1262" data-name="Group 1262" transform="translate(97.233 0.085)">
            <path id="Path_2049" data-name="Path 2049" d="M-288.277,416.367h0l0,7.264a9.626,9.626,0,0,1-2.832,6.834,9.628,9.628,0,0,1-6.834,2.832,9.666,9.666,0,0,1-9.666-9.666v-7.106l24.066-23.793a4.558,4.558,0,0,1,.935.286,4.673,4.673,0,0,1,2.756,3.511,4.538,4.538,0,0,1,.063.763v10.733Z" transform="translate(307.607 -392.734)" fill="#fff"/>
          </g>
          <path id="Path_2050" data-name="Path 2050" d="M-288.275,436.3a9.63,9.63,0,0,1-2.832,6.834,9.631,9.631,0,0,1-6.834,2.832,9.667,9.667,0,0,1-9.666-9.666V429.2l19.33-.159Z" transform="translate(404.84 -405.32)" fill="#e9e2e8"/>
          <g id="Group_1263" data-name="Group 1263" transform="translate(19.325)">
            <path id="Path_2051" data-name="Path 2051" d="M-383.806,392.6l-24.145,24.361v6.623a9.63,9.63,0,0,1-2.832,6.834,9.629,9.629,0,0,1-6.834,2.832,9.666,9.666,0,0,1-9.666-9.666v-6.43l.033-.034,24.119-24.519Z" transform="translate(427.283 -392.604)" fill="#fff"/>
            <path id="Path_2052" data-name="Path 2052" d="M-407.951,430.025v6.623a9.63,9.63,0,0,1-2.832,6.834,9.63,9.63,0,0,1-6.834,2.832,9.666,9.666,0,0,1-9.666-9.666v-6.43l.033-.034Z" transform="translate(427.283 -405.664)" fill="#e9e2e8"/>
          </g>
          <g id="Group_1264" data-name="Group 1264" transform="translate(57.988)">
            <path id="Path_2053" data-name="Path 2053" d="M-324.415,392.6l-24.145,24.145v6.839a9.63,9.63,0,0,1-2.832,6.834,9.63,9.63,0,0,1-6.834,2.832,9.666,9.666,0,0,1-9.666-9.666v-6.839L-343.74,392.6Z" transform="translate(367.892 -392.604)" fill="#fff"/>
            <path id="Path_2054" data-name="Path 2054" d="M-348.457,429.534l-.1.1v6.839a9.63,9.63,0,0,1-2.832,6.834,9.63,9.63,0,0,1-6.834,2.832,9.666,9.666,0,0,1-9.666-9.666v-6.782Z" transform="translate(367.892 -405.493)" fill="#e9e2e8"/>
          </g>
        </g>
      </g>
    </g>
    <g id="Group_1270" data-name="Group 1270" transform="translate(-552.064 421.56)">
      <g id="Group_1269" data-name="Group 1269">
        <path id="Path_2055" data-name="Path 2055" d="M-405.25,479.694v71.4a5.816,5.816,0,0,1-5.816,5.813H-532.314a5.8,5.8,0,0,1-3.788-1.4,5.8,5.8,0,0,1-2.025-4.41v-71.4a5.814,5.814,0,0,1,5.813-5.813h121.248A5.816,5.816,0,0,1-405.25,479.694Z" transform="translate(538.127 -473.881)" fill="#ffcbce"/>
        <rect id="Rectangle_841" data-name="Rectangle 841" width="132.876" height="15.824" transform="translate(0 14.68)" fill="#000f39"/>
        <rect id="Rectangle_842" data-name="Rectangle 842" width="31.255" height="10.949" rx="4.242" transform="translate(92.022 61.347)" fill="#000f39"/>
        <g id="Group_1268" data-name="Group 1268" transform="translate(7.711 43.303)">
          <rect id="Rectangle_843" data-name="Rectangle 843" width="10.153" height="5.972" rx="1.07" fill="#000f39"/>
          <rect id="Rectangle_844" data-name="Rectangle 844" width="10.153" height="5.972" rx="1.07" transform="translate(17.883)" fill="#000f39"/>
          <rect id="Rectangle_845" data-name="Rectangle 845" width="10.153" height="5.972" rx="1.07" transform="translate(35.767)" fill="#000f39"/>
          <rect id="Rectangle_846" data-name="Rectangle 846" width="10.153" height="5.972" rx="1.07" transform="translate(53.65)" fill="#000f39"/>
          <rect id="Rectangle_847" data-name="Rectangle 847" width="10.153" height="5.972" rx="1.07" transform="translate(71.534)" fill="#000f39"/>
          <rect id="Rectangle_848" data-name="Rectangle 848" width="10.153" height="5.972" rx="1.07" transform="translate(89.417)" fill="#000f39"/>
          <rect id="Rectangle_849" data-name="Rectangle 849" width="10.153" height="5.972" rx="1.07" transform="translate(107.301)" fill="#000f39"/>
        </g>
        <rect id="Rectangle_850" data-name="Rectangle 850" width="132.876" height="3.034" transform="translate(0 6.295)" fill="#000f39"/>
        <rect id="Rectangle_851" data-name="Rectangle 851" width="17.883" height="17.883" rx="6.929" transform="translate(7.711 55.972)" fill="#000f39"/>
        <rect id="Rectangle_852" data-name="Rectangle 852" width="57.894" height="4.927" rx="2.377" transform="translate(29.861 64.358)" fill="#000f39"/>
        <path id="Path_2056" data-name="Path 2056" d="M-454.482,473.881-536.1,555.5a5.8,5.8,0,0,1-2.025-4.41V526.043l52.162-52.162Z" transform="translate(538.127 -473.881)" fill="#fff" opacity="0.2"/>
        <path id="Path_2057" data-name="Path 2057" d="M-396.095,473.882-479.117,556.9h-15.4l83.022-83.022Z" transform="translate(522.908 -473.881)" fill="#fff" opacity="0.2"/>
      </g>
    </g>
    <g id="Group_1272" data-name="Group 1272" transform="translate(-351.12 435.578)">
      <g id="Group_1271" data-name="Group 1271" transform="translate(0)">
        <path id="Path_2058" data-name="Path 2058" d="M-192.781,686.234h-11.782c-1.6,0-3.023-1.816-3.518-4.5l-5-27.062c-.2-1.107.234-2.258.894-2.347a98.623,98.623,0,0,1,27.025,0c.659.091,1.1,1.241.892,2.347l-5,27.065C-189.758,684.418-191.179,686.234-192.781,686.234Z" transform="translate(223.754 -549.853)" fill="#ffb1b7"/>
        <ellipse id="Ellipse_76" data-name="Ellipse 76" cx="12.924" cy="1.445" rx="12.924" ry="1.445" transform="translate(12.233 102.385)" fill="#18285d"/>
        <path id="Path_2059" data-name="Path 2059" d="M-181.976,563.277c-7.078-1.864-17.89,12.826-21.175,27.147V569.558a43.016,43.016,0,0,1,10.513-11.986c8.886-7.238,17.067-16.527,9.977-18.394-6.645-1.75-16.581,11.09-20.49,24.519V536.9a28.372,28.372,0,0,1,6.019-6.552c5.6-4.561,10.756-10.415,6.288-11.592-3.878-1.021-9.536,5.843-12.307,13.585v-8.685a41.205,41.205,0,0,1,2.884-10.447c4.119-9.09,6.344-18.455.913-17.758s-8.961,16.887-5.988,29.315v4.469c-2.008-9.095-8.9-18.515-13.394-17.331-4.468,1.177.687,7.031,6.288,11.592a25.8,25.8,0,0,1,7.106,8.471v21.11c-3.221-14.394-14.111-29.251-21.226-27.377-7.089,1.868,1.091,11.156,9.978,18.394,6.715,5.47,9.887,10.594,11.248,13.382v25.314c-3.442-14.13-14.054-28.391-21.033-26.553-7.09,1.868-1.01,8.656,8.977,16.866a47.141,47.141,0,0,1,12.056,14.669v11.924a3.692,3.692,0,0,0,2.191,0V594.95c1.389-2.81,4.563-7.876,11.2-13.279C-183.067,574.433-174.887,565.145-181.976,563.277Z" transform="translate(229.451 -495.414)" fill="#ffb1b7"/>
      </g>
    </g>
    <g id="Group_1337" data-name="Group 1337" transform="translate(-564.723 528.5)">
      <g id="Group_1314" data-name="Group 1314" transform="translate(0)">
        <g id="Group_1313" data-name="Group 1313">
          <g id="Group_1282" data-name="Group 1282" transform="translate(0 26.021)">
            <g id="Group_1275" data-name="Group 1275" transform="translate(0 7.219)">
              <path id="Path_2060" data-name="Path 2060" d="M-506.234,694.9c0,.024,0,.047,0,.072a3.518,3.518,0,0,1-1.35,2.543,7.927,7.927,0,0,1-.712.574,14.413,14.413,0,0,1-2.694,1.481c-.23.1-.468.2-.712.293-.822.324-1.724.627-2.7.907q-.35.1-.711.2-1.276.342-2.7.63-.351.072-.711.14c-.865.164-1.766.312-2.7.443-.235.034-.472.066-.712.1q-1.312.171-2.694.3c-.236.021-.473.042-.711.061q-1.321.108-2.7.173c-.236.011-.473.021-.711.03q-1.328.05-2.7.059h-.712q-1.366,0-2.7-.05-.357-.013-.712-.028-1.011-.045-2-.113-.351-.024-.7-.051c-.238-.019-.475-.038-.712-.06q-1.381-.121-2.694-.288c-.24-.031-.477-.061-.712-.1q-.837-.115-1.64-.248-.535-.089-1.055-.184c-.239-.044-.477-.091-.711-.137q-1.414-.28-2.7-.615c-.168-.044-.335-.089-.5-.133l-.211-.059c-.385-.107-.761-.22-1.124-.335q-.825-.262-1.571-.546-.366-.141-.711-.284a16.27,16.27,0,0,1-2.39-1.217c-.1-.066-.207-.132-.3-.2-.124-.083-.243-.167-.356-.252s-.242-.186-.355-.281a3.706,3.706,0,0,1-1.59-2.752c0-.068,0-.136.01-.2l0-5.479,1.577,0h.711l2.694,0h.711l2.1,0h1.3l2.7,0h.711l2.7,0h.712l2.694,0h.712l2.694,0h.712l2.7,0h.712l2.7,0h.711l2.7,0h.711l2.694,0h.712l2.7,0h.711l2.7,0h.887l2.519,0h.712l2.694,0h.712l1.34,0,.01,5.687Z" transform="translate(557.573 -689.216)" fill="#000f39"/>
              <g id="Group_1274" data-name="Group 1274" transform="translate(1.59 0.003)">
                <g id="Group_1273" data-name="Group 1273">
                  <path id="Path_2061" data-name="Path 2061" d="M-554.419,689.327V698.3c-.124-.083-.243-.167-.356-.252s-.242-.186-.355-.281v-8.437Z" transform="translate(555.131 -689.257)" fill="#faafb4"/>
                  <path id="Path_2062" data-name="Path 2062" d="M-549.187,689.319V700q-.366-.141-.711-.284V689.32Z" transform="translate(553.305 -689.255)" fill="#faafb4"/>
                  <path id="Path_2063" data-name="Path 2063" d="M-543.955,689.311v11.756c-.168-.044-.335-.089-.5-.133l-.211-.059V689.312Z" transform="translate(551.479 -689.252)" fill="#faafb4"/>
                  <path id="Path_2064" data-name="Path 2064" d="M-538.721,689.3v12.513c-.239-.044-.477-.091-.711-.137V689.305Z" transform="translate(549.652 -689.249)" fill="#faafb4"/>
                  <path id="Path_2065" data-name="Path 2065" d="M-533.488,689.3v13.044c-.24-.031-.477-.061-.712-.1V689.3Z" transform="translate(547.826 -689.247)" fill="#faafb4"/>
                  <path id="Path_2066" data-name="Path 2066" d="M-528.257,689.289v13.4q-.357-.028-.711-.06V689.29Z" transform="translate(546 -689.244)" fill="#faafb4"/>
                  <path id="Path_2067" data-name="Path 2067" d="M-523.025,689.281v13.6q-.357-.013-.712-.028V689.282Z" transform="translate(544.174 -689.241)" fill="#faafb4"/>
                  <path id="Path_2068" data-name="Path 2068" d="M-517.791,689.273v13.65h-.711V689.274Z" transform="translate(542.347 -689.239)" fill="#faafb4"/>
                  <path id="Path_2069" data-name="Path 2069" d="M-512.558,689.266v13.566c-.236.011-.473.021-.711.03v-13.6Z" transform="translate(540.521 -689.236)" fill="#faafb4"/>
                  <path id="Path_2070" data-name="Path 2070" d="M-507.326,689.258v13.337q-.354.032-.711.061v-13.4Z" transform="translate(538.695 -689.233)" fill="#faafb4"/>
                  <path id="Path_2071" data-name="Path 2071" d="M-502.094,689.25V702.2c-.235.034-.472.066-.712.1V689.251Z" transform="translate(536.869 -689.23)" fill="#faafb4"/>
                  <path id="Path_2072" data-name="Path 2072" d="M-496.861,689.242v12.369q-.352.072-.711.14V689.243Z" transform="translate(535.042 -689.228)" fill="#faafb4"/>
                  <path id="Path_2073" data-name="Path 2073" d="M-491.627,689.234V700.78q-.35.1-.712.2V689.235Z" transform="translate(533.216 -689.225)" fill="#faafb4"/>
                  <path id="Path_2074" data-name="Path 2074" d="M-486.395,689.227v10.351c-.23.1-.468.2-.712.293V689.228Z" transform="translate(531.389 -689.222)" fill="#faafb4"/>
                  <path id="Path_2075" data-name="Path 2075" d="M-481.163,689.22v8.3a7.931,7.931,0,0,1-.712.574v-8.874Z" transform="translate(529.563 -689.22)" fill="#007ce6"/>
                </g>
              </g>
            </g>
            <g id="Group_1281" data-name="Group 1281" transform="translate(0.009)">
              <g id="Group_1280" data-name="Group 1280">
                <path id="Path_2076" data-name="Path 2076" d="M-506.234,685.415c0,4.024-11.487,7.288-25.663,7.288-1.937,0-3.823-.061-5.637-.176-2.281-.145-4.447-.377-6.454-.682-1.792-.272-3.455-.6-4.961-.984-.46-.117-.906-.237-1.335-.363a21.451,21.451,0,0,1-4.671-1.882q-.353-.2-.66-.415c-1.253-.859-1.944-1.8-1.944-2.787a1.717,1.717,0,0,1,.021-.271c.5-3.9,11.788-7.018,25.642-7.018a84.761,84.761,0,0,1,9.639.532q.862.1,1.693.216a51.991,51.991,0,0,1,6.532,1.308q.633.175,1.223.361a21.245,21.245,0,0,1,3.6,1.46,7.652,7.652,0,0,1,2.308,1.747,2.759,2.759,0,0,1,.654,1.394A1.716,1.716,0,0,1-506.234,685.415Z" transform="translate(557.559 -678.127)" fill="#ffb1b7"/>
                <path id="Path_2077" data-name="Path 2077" d="M-499.631,685.828l-30.626,8.777c-2.281-.145-4.447-.377-6.454-.682l34.772-9.842A7.653,7.653,0,0,1-499.631,685.828Z" transform="translate(550.283 -680.205)" fill="#fff" opacity="0.3"/>
                <path id="Path_2078" data-name="Path 2078" d="M-519.523,679.159l-34.389,9.743c-.235-.136-.456-.274-.66-.415l33.357-9.544Q-520.353,679.044-519.523,679.159Z" transform="translate(556.517 -678.412)" fill="#fff" opacity="0.3"/>
                <path id="Path_2079" data-name="Path 2079" d="M-508.91,681.646l-36.138,10.318c-.46-.117-.906-.237-1.335-.363l36.25-10.316Q-509.5,681.46-508.91,681.646Z" transform="translate(553.658 -679.229)" fill="#fff" opacity="0.3"/>
                <path id="Path_2080" data-name="Path 2080" d="M-508.623,686.2a2.035,2.035,0,0,1-.02.268c-.495,3.088-9.5,5.557-20.491,5.557s-20-2.469-20.49-5.557a2.046,2.046,0,0,1-.02-.268c0-3.212,9.2-5.825,20.511-5.825S-508.623,682.988-508.623,686.2Z" transform="translate(554.797 -678.912)" fill="#007ce6"/>
                <path id="Path_2081" data-name="Path 2081" d="M-508.632,686.754c-.495,3.088-9.5,5.557-20.491,5.557-.246,0-.489,0-.732,0a67.046,67.046,0,0,1-6.96-.421,46.03,46.03,0,0,1-5.867-1.033q-.656-.165-1.265-.344a14.516,14.516,0,0,1-4.29-1.911,4.981,4.981,0,0,1-.624-.527,2.447,2.447,0,0,1-.753-1.317c.495-3.089,9.5-5.559,20.49-5.559,1.391,0,2.75.04,4.067.115.67.038,1.331.087,1.978.143a49.974,49.974,0,0,1,7.126,1.1q.67.159,1.293.337a17.626,17.626,0,0,1,3.969,1.571,4.379,4.379,0,0,1,1.93,1.85A1.782,1.782,0,0,1-508.632,686.754Z" transform="translate(554.786 -679.198)" fill="#faafb4"/>
                <path id="Path_2082" data-name="Path 2082" d="M-501.9,688.07l-21.1,5.991a67.049,67.049,0,0,1-6.96-.421l26.125-7.42A4.379,4.379,0,0,1-501.9,688.07Z" transform="translate(547.924 -680.952)" fill="#fff" opacity="0.2"/>
                <path id="Path_2083" data-name="Path 2083" d="M-522.676,681.515l-25.159,7.144a4.981,4.981,0,0,1-.624-.527l23.8-6.76C-523.983,681.41-523.322,681.459-522.676,681.515Z" transform="translate(554.383 -679.26)" fill="#fff" opacity="0.2"/>
                <path id="Path_2084" data-name="Path 2084" d="M-511.621,683.626l-28.024,7.958q-.656-.165-1.265-.344l27.995-7.951Q-512.245,683.448-511.621,683.626Z" transform="translate(551.748 -679.929)" fill="#fff" opacity="0.2"/>
                <g id="Group_1279" data-name="Group 1279" transform="translate(16.171 3.043)">
                  <g id="Group_1277" data-name="Group 1277" transform="translate(0.126 0.322)">
                    <g id="Group_1276" data-name="Group 1276">
                      <path id="Path_2085" data-name="Path 2085" d="M-520.307,690.525v.967h-4.329v-.924a56.694,56.694,0,0,1-7.89-.61l2.333-1.5a46.124,46.124,0,0,0,7.092.559c2.057,0,2.794-.122,2.794-.332,0-.767-11.881-.148-11.881-2.424,0-.985,2.517-1.814,7.552-2.014v-.95h4.329v.933a50.168,50.168,0,0,1,6.232.506l-2.18,1.491a42.042,42.042,0,0,0-5.986-.454c-2.118,0-2.794.174-2.794.383,0,.732,11.881.122,11.881,2.372C-513.154,689.469-515.548,690.289-520.307,690.525Z" transform="translate(532.526 -683.296)" fill="#007ce6"/>
                    </g>
                  </g>
                  <g id="Group_1278" data-name="Group 1278">
                    <path id="Path_2086" data-name="Path 2086" d="M-520.5,690.03V691h-4.328v-.924a56.653,56.653,0,0,1-7.89-.611l2.333-1.5a46.2,46.2,0,0,0,7.092.558c2.057,0,2.793-.122,2.793-.331,0-.767-11.88-.148-11.88-2.424,0-.986,2.517-1.814,7.552-2.014v-.95h4.328v.933a50.063,50.063,0,0,1,6.233.506l-2.18,1.491a42.044,42.044,0,0,0-5.987-.453c-2.118,0-2.793.174-2.793.383,0,.732,11.881.122,11.881,2.372C-513.347,688.975-515.742,689.794-520.5,690.03Z" transform="translate(532.719 -682.802)" fill="#61c2ff"/>
                  </g>
                </g>
              </g>
            </g>
          </g>
          <g id="Group_1292" data-name="Group 1292" transform="translate(1.613 17.031)">
            <g id="Group_1285" data-name="Group 1285" transform="translate(0 7.219)">
              <path id="Path_2087" data-name="Path 2087" d="M-503.756,681.092c0,.025,0,.048,0,.073a3.518,3.518,0,0,1-1.349,2.543,7.919,7.919,0,0,1-.711.574,14.514,14.514,0,0,1-2.7,1.481q-.345.149-.712.293c-.822.324-1.723.627-2.694.907q-.35.1-.712.2c-.851.228-1.752.438-2.7.63q-.352.072-.711.139-1.3.246-2.694.444c-.236.034-.473.066-.712.1q-1.312.17-2.7.3-.353.032-.711.061-1.32.108-2.694.172-.355.017-.712.031-1.328.05-2.7.058l-.476,0h-.235q-1.366,0-2.7-.051c-.238-.008-.475-.018-.711-.028q-1.011-.044-2-.113c-.234-.016-.467-.033-.7-.052s-.475-.038-.711-.059q-1.381-.121-2.7-.288-.359-.045-.712-.094-.836-.115-1.64-.248-.534-.089-1.055-.184-.359-.067-.712-.137-1.414-.28-2.7-.615c-.169-.044-.335-.089-.5-.133l-.212-.059c-.385-.108-.761-.22-1.124-.335q-.825-.263-1.572-.546-.365-.141-.711-.284a16.285,16.285,0,0,1-2.39-1.217c-.1-.066-.206-.132-.3-.2q-.186-.125-.355-.253c-.124-.092-.243-.185-.356-.28a3.706,3.706,0,0,1-1.589-2.752c0-.068,0-.136.009-.2l0-5.479,1.577,0h.711l2.7,0h.711l2.1,0h1.3l2.7,0h.712l2.694,0h.712l2.7,0h.711l2.7,0,.711,0,2.7,0,.711,0,2.7,0h.712l2.694,0h.711l2.7,0h.712l2.694,0h.711l2.7,0h.887l2.519,0h.712l2.7,0h.711l1.34,0,.009,5.686Z" transform="translate(555.095 -675.406)" fill="#000f39"/>
              <g id="Group_1284" data-name="Group 1284" transform="translate(1.589 0.002)">
                <g id="Group_1283" data-name="Group 1283">
                  <path id="Path_2088" data-name="Path 2088" d="M-551.943,675.517v8.971q-.185-.125-.355-.253c-.124-.092-.243-.185-.356-.28v-8.437Z" transform="translate(552.654 -675.447)" fill="#faafb4"/>
                  <path id="Path_2089" data-name="Path 2089" d="M-546.71,675.509v10.677q-.365-.141-.711-.284V675.51Z" transform="translate(550.828 -675.444)" fill="#faafb4"/>
                  <path id="Path_2090" data-name="Path 2090" d="M-541.478,675.5v11.756c-.169-.044-.335-.089-.5-.133l-.212-.059V675.5Z" transform="translate(549.002 -675.441)" fill="#faafb4"/>
                  <path id="Path_2091" data-name="Path 2091" d="M-536.244,675.494v12.513q-.359-.067-.711-.137V675.495Z" transform="translate(547.175 -675.439)" fill="#faafb4"/>
                  <path id="Path_2092" data-name="Path 2092" d="M-531.012,675.486v13.044q-.359-.045-.711-.094V675.487Z" transform="translate(545.349 -675.436)" fill="#faafb4"/>
                  <path id="Path_2093" data-name="Path 2093" d="M-525.779,675.478v13.4q-.357-.027-.711-.059V675.479Z" transform="translate(543.522 -675.433)" fill="#faafb4"/>
                  <path id="Path_2094" data-name="Path 2094" d="M-520.547,675.47v13.6c-.238-.008-.475-.018-.711-.028V675.472Z" transform="translate(541.696 -675.43)" fill="#faafb4"/>
                  <path id="Path_2095" data-name="Path 2095" d="M-515.313,675.462v13.65l-.476,0h-.235V675.464Z" transform="translate(539.87 -675.428)" fill="#faafb4"/>
                  <path id="Path_2096" data-name="Path 2096" d="M-510.08,675.456v13.565q-.354.017-.712.031v-13.6Z" transform="translate(538.044 -675.425)" fill="#faafb4"/>
                  <path id="Path_2097" data-name="Path 2097" d="M-504.849,675.448v13.337c-.236.021-.473.042-.711.061v-13.4Z" transform="translate(536.218 -675.423)" fill="#faafb4"/>
                  <path id="Path_2098" data-name="Path 2098" d="M-499.616,675.44v12.947c-.236.034-.473.066-.712.1V675.441Z" transform="translate(534.391 -675.42)" fill="#faafb4"/>
                  <path id="Path_2099" data-name="Path 2099" d="M-494.383,675.432V687.8q-.352.072-.712.139V675.433Z" transform="translate(532.565 -675.417)" fill="#faafb4"/>
                  <path id="Path_2100" data-name="Path 2100" d="M-489.15,675.424V686.97q-.35.1-.712.2V675.425Z" transform="translate(530.738 -675.414)" fill="#faafb4"/>
                  <path id="Path_2101" data-name="Path 2101" d="M-483.917,675.417v10.351q-.345.149-.712.293V675.418Z" transform="translate(528.912 -675.412)" fill="#007ce6"/>
                  <path id="Path_2102" data-name="Path 2102" d="M-478.685,675.409v8.3a7.94,7.94,0,0,1-.711.574V675.41Z" transform="translate(527.086 -675.409)" fill="#007ce6"/>
                </g>
              </g>
            </g>
            <g id="Group_1291" data-name="Group 1291" transform="translate(0.009)">
              <g id="Group_1290" data-name="Group 1290">
                <path id="Path_2103" data-name="Path 2103" d="M-503.757,671.6c0,4.025-11.487,7.288-25.663,7.288-1.936,0-3.823-.061-5.637-.177-2.28-.144-4.447-.376-6.454-.682-1.792-.272-3.455-.6-4.961-.983q-.69-.175-1.335-.363a21.481,21.481,0,0,1-4.671-1.882c-.235-.136-.456-.274-.66-.415-1.253-.859-1.945-1.8-1.945-2.787a1.715,1.715,0,0,1,.021-.27c.5-3.9,11.787-7.018,25.641-7.018a84.882,84.882,0,0,1,9.638.531q.862.1,1.693.216a51.883,51.883,0,0,1,6.533,1.308q.633.174,1.222.36a21.325,21.325,0,0,1,3.6,1.46,7.637,7.637,0,0,1,2.307,1.747,2.754,2.754,0,0,1,.654,1.394A1.644,1.644,0,0,1-503.757,671.6Z" transform="translate(555.081 -664.317)" fill="#faafb4"/>
                <path id="Path_2104" data-name="Path 2104" d="M-497.154,672.018l-30.626,8.776c-2.28-.145-4.447-.376-6.454-.682l34.772-9.842A7.637,7.637,0,0,1-497.154,672.018Z" transform="translate(547.805 -666.395)" fill="#fff" opacity="0.3"/>
                <path id="Path_2105" data-name="Path 2105" d="M-517.046,665.349l-34.388,9.743c-.235-.136-.456-.274-.66-.415l33.356-9.544Q-517.876,665.233-517.046,665.349Z" transform="translate(554.039 -664.602)" fill="#fff" opacity="0.3"/>
                <path id="Path_2106" data-name="Path 2106" d="M-506.433,667.835l-36.137,10.319q-.69-.175-1.334-.363l36.25-10.316Q-507.022,667.649-506.433,667.835Z" transform="translate(551.18 -665.419)" fill="#fff" opacity="0.3"/>
                <path id="Path_2107" data-name="Path 2107" d="M-506.145,672.39a2.154,2.154,0,0,1-.02.267c-.5,3.089-9.5,5.558-20.491,5.558s-20-2.469-20.491-5.558a2.148,2.148,0,0,1-.02-.267c0-3.212,9.2-5.825,20.511-5.825S-506.145,669.178-506.145,672.39Z" transform="translate(552.319 -665.102)" fill="#007ce6"/>
                <path id="Path_2108" data-name="Path 2108" d="M-506.155,672.943c-.5,3.089-9.5,5.558-20.491,5.558-.246,0-.49,0-.733,0a66.831,66.831,0,0,1-6.96-.421,46.117,46.117,0,0,1-5.867-1.033c-.438-.11-.859-.225-1.265-.345a14.509,14.509,0,0,1-4.29-1.911,5,5,0,0,1-.624-.527,2.453,2.453,0,0,1-.753-1.318c.5-3.088,9.5-5.558,20.491-5.558,1.391,0,2.75.04,4.067.115.67.038,1.331.087,1.978.143a49.959,49.959,0,0,1,7.126,1.1c.447.106.879.218,1.293.336a17.664,17.664,0,0,1,3.97,1.572,4.381,4.381,0,0,1,1.929,1.85A1.75,1.75,0,0,1-506.155,672.943Z" transform="translate(552.308 -665.388)" fill="#faafb4"/>
                <path id="Path_2109" data-name="Path 2109" d="M-499.422,674.26l-21.1,5.99a66.863,66.863,0,0,1-6.96-.421l26.126-7.42A4.381,4.381,0,0,1-499.422,674.26Z" transform="translate(545.447 -667.142)" fill="#fff" opacity="0.2"/>
                <path id="Path_2110" data-name="Path 2110" d="M-520.2,667.705l-25.159,7.144a4.981,4.981,0,0,1-.624-.527l23.805-6.761C-521.506,667.6-520.845,667.649-520.2,667.705Z" transform="translate(551.905 -665.45)" fill="#fff" opacity="0.2"/>
                <path id="Path_2111" data-name="Path 2111" d="M-509.144,669.815l-28.023,7.959c-.438-.11-.859-.225-1.265-.345l27.994-7.95C-509.991,669.585-509.559,669.7-509.144,669.815Z" transform="translate(549.27 -666.119)" fill="#fff" opacity="0.2"/>
                <g id="Group_1289" data-name="Group 1289" transform="translate(16.17 3.043)">
                  <g id="Group_1287" data-name="Group 1287" transform="translate(0.126 0.322)">
                    <g id="Group_1286" data-name="Group 1286">
                      <path id="Path_2112" data-name="Path 2112" d="M-517.83,676.714v.968h-4.328v-.924a56.657,56.657,0,0,1-7.89-.61l2.333-1.5a46.191,46.191,0,0,0,7.092.558c2.056,0,2.793-.122,2.793-.331,0-.767-11.881-.148-11.881-2.424,0-.986,2.518-1.814,7.553-2.014v-.95h4.328v.933a50.085,50.085,0,0,1,6.233.506l-2.18,1.491a42.133,42.133,0,0,0-5.987-.453c-2.118,0-2.793.174-2.793.383,0,.732,11.881.122,11.881,2.371C-510.676,675.659-513.071,676.479-517.83,676.714Z" transform="translate(530.048 -669.486)" fill="#007ce6"/>
                    </g>
                  </g>
                  <g id="Group_1288" data-name="Group 1288">
                    <path id="Path_2113" data-name="Path 2113" d="M-518.023,676.22v.967h-4.329v-.924a56.659,56.659,0,0,1-7.89-.611l2.333-1.5a46.128,46.128,0,0,0,7.092.558c2.057,0,2.794-.122,2.794-.331,0-.768-11.881-.148-11.881-2.424,0-.985,2.517-1.814,7.552-2.014v-.95h4.329v.933a49.934,49.934,0,0,1,6.232.506l-2.18,1.491a42.036,42.036,0,0,0-5.987-.454c-2.118,0-2.794.174-2.794.384,0,.732,11.881.122,11.881,2.372C-510.87,675.165-513.264,675.984-518.023,676.22Z" transform="translate(530.242 -668.992)" fill="#61c2ff"/>
                  </g>
                </g>
              </g>
            </g>
          </g>
          <g id="Group_1302" data-name="Group 1302" transform="translate(1.378 8.041)">
            <g id="Group_1295" data-name="Group 1295" transform="translate(0 7.219)">
              <path id="Path_2114" data-name="Path 2114" d="M-504.118,667.282c0,.025,0,.048,0,.072a3.517,3.517,0,0,1-1.349,2.543,7.747,7.747,0,0,1-.712.575,14.49,14.49,0,0,1-2.694,1.481c-.23.1-.467.2-.712.293-.822.324-1.724.627-2.7.907-.233.067-.469.133-.711.2-.851.228-1.751.439-2.7.631-.235.048-.471.094-.711.139q-1.3.246-2.7.444c-.235.034-.472.066-.712.1q-1.311.17-2.694.3l-.711.061q-1.321.108-2.7.172c-.236.011-.473.022-.711.03q-1.328.051-2.7.059h-.711q-1.366,0-2.7-.05-.357-.012-.711-.028-1.012-.044-2-.113-.352-.024-.7-.052t-.712-.06q-1.381-.12-2.694-.288-.359-.045-.711-.094-.837-.115-1.64-.248-.535-.089-1.055-.185-.358-.066-.711-.136-1.414-.28-2.7-.615c-.168-.044-.335-.089-.5-.133l-.211-.059c-.385-.108-.761-.22-1.124-.335q-.826-.263-1.571-.546-.366-.141-.712-.284a16.272,16.272,0,0,1-2.39-1.217c-.1-.066-.207-.132-.3-.2-.124-.083-.243-.168-.356-.253s-.242-.186-.355-.281a3.707,3.707,0,0,1-1.59-2.752c0-.068,0-.135.01-.2l0-5.479,1.577,0h.712l2.694,0h.712l2.1,0h1.3l2.7,0h.711l2.7,0h.711l2.694,0h.712l2.7,0h.711l2.7,0h.711l2.7,0h.711l2.7,0h.711l2.694,0h.712l2.7,0h.711l2.7,0,.711,0h.176l2.519,0h.712l2.694,0h.712l1.34,0,.01,5.686Z" transform="translate(555.457 -661.596)" fill="#000f39"/>
              <g id="Group_1294" data-name="Group 1294" transform="translate(1.59 0.002)">
                <g id="Group_1293" data-name="Group 1293">
                  <path id="Path_2115" data-name="Path 2115" d="M-552.3,661.707v8.971c-.124-.083-.243-.168-.356-.253s-.242-.186-.355-.281v-8.437Z" transform="translate(553.015 -661.637)" fill="#faafb4"/>
                  <path id="Path_2116" data-name="Path 2116" d="M-547.072,661.7v10.677q-.366-.141-.711-.284V661.7Z" transform="translate(551.189 -661.634)" fill="#faafb4"/>
                  <path id="Path_2117" data-name="Path 2117" d="M-541.839,661.691v11.756c-.168-.044-.335-.089-.5-.133l-.211-.059V661.692Z" transform="translate(549.363 -661.631)" fill="#faafb4"/>
                  <path id="Path_2118" data-name="Path 2118" d="M-536.606,661.684V674.2q-.358-.066-.711-.136V661.685Z" transform="translate(547.536 -661.629)" fill="#faafb4"/>
                  <path id="Path_2119" data-name="Path 2119" d="M-531.372,661.676V674.72q-.359-.045-.711-.094V661.677Z" transform="translate(545.71 -661.626)" fill="#faafb4"/>
                  <path id="Path_2120" data-name="Path 2120" d="M-526.141,661.668v13.4q-.357-.027-.711-.06V661.669Z" transform="translate(543.884 -661.623)" fill="#faafb4"/>
                  <path id="Path_2121" data-name="Path 2121" d="M-520.908,661.66v13.6q-.357-.012-.711-.028V661.661Z" transform="translate(542.057 -661.62)" fill="#faafb4"/>
                  <path id="Path_2122" data-name="Path 2122" d="M-515.675,661.652V675.3h-.711V661.653Z" transform="translate(540.231 -661.617)" fill="#faafb4"/>
                  <path id="Path_2123" data-name="Path 2123" d="M-510.442,661.645v13.566c-.236.011-.473.022-.711.03V661.646Z" transform="translate(538.405 -661.615)" fill="#faafb4"/>
                  <path id="Path_2124" data-name="Path 2124" d="M-505.21,661.637v13.337l-.712.061v-13.4Z" transform="translate(536.579 -661.612)" fill="#faafb4"/>
                  <path id="Path_2125" data-name="Path 2125" d="M-499.977,661.629v12.948c-.235.034-.472.066-.712.1V661.63Z" transform="translate(534.753 -661.609)" fill="#faafb4"/>
                  <path id="Path_2126" data-name="Path 2126" d="M-494.745,661.622v12.369c-.235.048-.471.094-.712.139V661.623Z" transform="translate(532.926 -661.607)" fill="#faafb4"/>
                  <path id="Path_2127" data-name="Path 2127" d="M-489.511,661.613V673.16c-.233.067-.469.133-.712.2V661.615Z" transform="translate(531.1 -661.604)" fill="#faafb4"/>
                  <path id="Path_2128" data-name="Path 2128" d="M-484.279,661.607v10.351c-.23.1-.467.2-.712.293V661.608Z" transform="translate(529.273 -661.602)" fill="#faafb4"/>
                  <path id="Path_2129" data-name="Path 2129" d="M-479.047,661.6v8.3a7.736,7.736,0,0,1-.711.575V661.6Z" transform="translate(527.447 -661.599)" fill="#faafb4"/>
                </g>
              </g>
            </g>
            <g id="Group_1301" data-name="Group 1301" transform="translate(0.009)">
              <g id="Group_1300" data-name="Group 1300">
                <path id="Path_2130" data-name="Path 2130" d="M-504.118,657.795c0,4.025-11.487,7.288-25.663,7.288-1.937,0-3.823-.06-5.637-.176-2.281-.145-4.447-.376-6.454-.682-1.791-.272-3.455-.6-4.96-.984q-.69-.174-1.335-.363A21.428,21.428,0,0,1-552.838,661q-.353-.2-.661-.415c-1.253-.859-1.945-1.8-1.945-2.787a1.736,1.736,0,0,1,.021-.271c.5-3.9,11.788-7.017,25.642-7.017a84.908,84.908,0,0,1,9.639.531q.862.1,1.693.216a51.883,51.883,0,0,1,6.532,1.308q.633.174,1.223.36a21.3,21.3,0,0,1,3.6,1.46,7.654,7.654,0,0,1,2.308,1.748,2.754,2.754,0,0,1,.654,1.394A1.727,1.727,0,0,1-504.118,657.795Z" transform="translate(555.443 -650.507)" fill="#faafb4"/>
                <path id="Path_2131" data-name="Path 2131" d="M-497.515,658.208l-30.626,8.776c-2.281-.145-4.447-.376-6.454-.682l34.772-9.842A7.652,7.652,0,0,1-497.515,658.208Z" transform="translate(548.167 -652.585)" fill="#fff" opacity="0.3"/>
                <path id="Path_2132" data-name="Path 2132" d="M-517.407,651.539l-34.388,9.743q-.353-.2-.661-.415l33.357-9.543Q-518.237,651.423-517.407,651.539Z" transform="translate(554.401 -650.792)" fill="#fff" opacity="0.3"/>
                <path id="Path_2133" data-name="Path 2133" d="M-506.794,654.025l-36.137,10.318q-.69-.174-1.335-.363l36.25-10.316Q-507.384,653.839-506.794,654.025Z" transform="translate(551.542 -651.609)" fill="#fff" opacity="0.3"/>
                <path id="Path_2134" data-name="Path 2134" d="M-506.507,658.579a2.035,2.035,0,0,1-.02.268c-.495,3.088-9.5,5.557-20.49,5.557s-20-2.469-20.491-5.557a2.04,2.04,0,0,1-.02-.268c0-3.212,9.2-5.825,20.511-5.825S-506.507,655.367-506.507,658.579Z" transform="translate(552.681 -651.291)" fill="#007ce6"/>
                <path id="Path_2135" data-name="Path 2135" d="M-506.516,659.133c-.495,3.088-9.5,5.557-20.49,5.557-.246,0-.49,0-.733,0a66.707,66.707,0,0,1-6.96-.421,46.014,46.014,0,0,1-5.867-1.032c-.438-.11-.859-.225-1.266-.345a14.518,14.518,0,0,1-4.29-1.911,4.986,4.986,0,0,1-.624-.527,2.449,2.449,0,0,1-.753-1.318c.495-3.088,9.5-5.558,20.491-5.558,1.391,0,2.75.04,4.066.115.67.038,1.331.086,1.978.143a49.98,49.98,0,0,1,7.126,1.1c.447.107.879.219,1.294.337a17.616,17.616,0,0,1,3.97,1.572,4.383,4.383,0,0,1,1.929,1.849A1.783,1.783,0,0,1-506.516,659.133Z" transform="translate(552.67 -651.578)" fill="#faafb4"/>
                <path id="Path_2136" data-name="Path 2136" d="M-499.783,660.45l-21.1,5.991a66.693,66.693,0,0,1-6.96-.421l26.126-7.419A4.383,4.383,0,0,1-499.783,660.45Z" transform="translate(545.809 -653.332)" fill="#fff" opacity="0.2"/>
                <path id="Path_2137" data-name="Path 2137" d="M-520.56,653.9l-25.159,7.144a4.973,4.973,0,0,1-.624-.527l23.8-6.76C-521.867,653.79-521.206,653.838-520.56,653.9Z" transform="translate(552.267 -651.64)" fill="#fff" opacity="0.2"/>
                <path id="Path_2138" data-name="Path 2138" d="M-509.505,656l-28.023,7.959c-.438-.11-.859-.225-1.266-.345l27.995-7.95C-510.352,655.775-509.92,655.887-509.505,656Z" transform="translate(549.632 -652.308)" fill="#fff" opacity="0.2"/>
                <g id="Group_1299" data-name="Group 1299" transform="translate(16.17 3.043)">
                  <g id="Group_1297" data-name="Group 1297" transform="translate(0.126 0.322)">
                    <g id="Group_1296" data-name="Group 1296">
                      <path id="Path_2139" data-name="Path 2139" d="M-518.191,662.9v.968h-4.329v-.924a56.566,56.566,0,0,1-7.89-.611l2.334-1.5a46.189,46.189,0,0,0,7.091.558c2.057,0,2.794-.122,2.794-.331,0-.768-11.881-.148-11.881-2.424,0-.986,2.517-1.814,7.552-2.014v-.95h4.329v.933a50.073,50.073,0,0,1,6.233.506l-2.18,1.491a42.02,42.02,0,0,0-5.987-.453c-2.118,0-2.794.174-2.794.383,0,.732,11.881.122,11.881,2.372C-511.038,661.849-513.432,662.668-518.191,662.9Z" transform="translate(530.41 -655.676)" fill="#007ce6"/>
                    </g>
                  </g>
                  <g id="Group_1298" data-name="Group 1298">
                    <path id="Path_2140" data-name="Path 2140" d="M-518.385,662.409v.968h-4.328v-.924a56.677,56.677,0,0,1-7.89-.61l2.333-1.5a46.118,46.118,0,0,0,7.092.558c2.057,0,2.793-.122,2.793-.331,0-.767-11.881-.148-11.881-2.424,0-.985,2.517-1.814,7.552-2.014v-.95h4.328v.933a50.214,50.214,0,0,1,6.233.506l-2.18,1.491a42.127,42.127,0,0,0-5.987-.453c-2.118,0-2.793.174-2.793.383,0,.732,11.881.122,11.881,2.372C-511.231,661.354-513.626,662.174-518.385,662.409Z" transform="translate(530.603 -655.181)" fill="#61c2ff"/>
                  </g>
                </g>
              </g>
            </g>
          </g>
          <g id="Group_1312" data-name="Group 1312" transform="translate(0.1)">
            <g id="Group_1305" data-name="Group 1305" transform="translate(0 7.219)">
              <path id="Path_2141" data-name="Path 2141" d="M-506.08,654.931c0,.024,0,.048,0,.072a3.517,3.517,0,0,1-1.349,2.543,7.925,7.925,0,0,1-.712.575,14.49,14.49,0,0,1-2.7,1.481q-.345.149-.712.293c-.822.324-1.723.627-2.694.907q-.35.1-.712.2-1.276.342-2.7.63-.352.072-.712.139-1.3.246-2.694.444c-.236.034-.472.066-.712.1q-1.312.17-2.7.3-.353.032-.711.061-1.321.108-2.7.172c-.236.011-.473.021-.711.031q-1.328.05-2.694.058l-.477,0h-.235q-1.366,0-2.7-.05c-.238-.008-.475-.018-.711-.028q-1.011-.044-2-.113-.351-.024-.7-.052c-.239-.018-.475-.038-.712-.06q-1.381-.12-2.7-.288-.358-.045-.711-.094-.837-.115-1.64-.248-.535-.089-1.055-.185-.359-.066-.712-.136-1.414-.28-2.7-.615c-.168-.044-.335-.089-.5-.133l-.212-.059c-.385-.108-.76-.22-1.124-.335q-.825-.263-1.571-.546-.366-.141-.711-.284a16.279,16.279,0,0,1-2.39-1.217c-.1-.066-.206-.132-.3-.2-.123-.083-.242-.167-.355-.253s-.242-.186-.355-.281a3.705,3.705,0,0,1-1.59-2.751c0-.068,0-.136.01-.2l0-5.479,1.577,0h.711l2.7,0h.711l2.1,0h1.3l2.7,0h.712l2.7,0h.711l2.7,0h.712l2.694,0,.711,0,2.7,0,.712,0,2.694,0h.711l2.7,0h.711l2.7,0h.712l2.694,0h.712l2.7,0h.887l2.519,0h.712l2.7,0h.712l1.34,0,.01,5.687Z" transform="translate(557.419 -649.244)" fill="#000f39"/>
              <g id="Group_1304" data-name="Group 1304" transform="translate(1.59 0.002)">
                <g id="Group_1303" data-name="Group 1303">
                  <path id="Path_2142" data-name="Path 2142" d="M-554.266,649.355v8.971c-.123-.083-.242-.167-.355-.253s-.242-.186-.355-.281v-8.437Z" transform="translate(554.977 -649.285)" fill="#faafb4"/>
                  <path id="Path_2143" data-name="Path 2143" d="M-549.033,649.347v10.677q-.366-.14-.712-.284V649.348Z" transform="translate(553.151 -649.282)" fill="#faafb4"/>
                  <path id="Path_2144" data-name="Path 2144" d="M-543.8,649.339V661.1c-.168-.044-.335-.089-.5-.133l-.212-.059V649.34Z" transform="translate(551.325 -649.279)" fill="#faafb4"/>
                  <path id="Path_2145" data-name="Path 2145" d="M-538.568,649.332v12.512q-.359-.066-.712-.136V649.333Z" transform="translate(549.498 -649.277)" fill="#faafb4"/>
                  <path id="Path_2146" data-name="Path 2146" d="M-533.335,649.324v13.044q-.358-.045-.711-.094V649.325Z" transform="translate(547.672 -649.274)" fill="#faafb4"/>
                  <path id="Path_2147" data-name="Path 2147" d="M-528.1,649.316v13.4c-.239-.018-.475-.038-.712-.06V649.317Z" transform="translate(545.846 -649.271)" fill="#faafb4"/>
                  <path id="Path_2148" data-name="Path 2148" d="M-522.87,649.308v13.6c-.238-.008-.475-.018-.712-.028V649.31Z" transform="translate(544.02 -649.268)" fill="#faafb4"/>
                  <path id="Path_2149" data-name="Path 2149" d="M-517.636,649.3v13.65l-.477,0h-.235V649.3Z" transform="translate(542.193 -649.266)" fill="#faafb4"/>
                  <path id="Path_2150" data-name="Path 2150" d="M-512.4,649.294v13.565c-.236.011-.473.022-.711.031v-13.6Z" transform="translate(540.367 -649.263)" fill="#faafb4"/>
                  <path id="Path_2151" data-name="Path 2151" d="M-507.172,649.286v13.337q-.353.032-.711.061v-13.4Z" transform="translate(538.541 -649.261)" fill="#faafb4"/>
                  <path id="Path_2152" data-name="Path 2152" d="M-501.94,649.278v12.947c-.236.034-.472.066-.712.1V649.279Z" transform="translate(536.715 -649.258)" fill="#faafb4"/>
                  <path id="Path_2153" data-name="Path 2153" d="M-496.707,649.27v12.369q-.352.072-.712.139V649.271Z" transform="translate(534.888 -649.255)" fill="#faafb4"/>
                  <path id="Path_2154" data-name="Path 2154" d="M-491.474,649.262v11.546q-.35.1-.711.2V649.263Z" transform="translate(533.062 -649.252)" fill="#faafb4"/>
                  <path id="Path_2155" data-name="Path 2155" d="M-486.242,649.255v10.351q-.345.149-.712.293V649.256Z" transform="translate(531.236 -649.25)" fill="#faafb4"/>
                  <path id="Path_2156" data-name="Path 2156" d="M-481.008,649.247v8.3a7.935,7.935,0,0,1-.712.575v-8.874Z" transform="translate(529.409 -649.247)" fill="#faafb4"/>
                </g>
              </g>
            </g>
            <g id="Group_1311" data-name="Group 1311" transform="translate(0.009)">
              <g id="Group_1310" data-name="Group 1310">
                <path id="Path_2157" data-name="Path 2157" d="M-506.081,645.443c0,4.025-11.487,7.289-25.662,7.289-1.937,0-3.823-.061-5.637-.177-2.281-.144-4.448-.376-6.454-.682-1.792-.272-3.456-.6-4.961-.984-.46-.116-.906-.237-1.334-.362a21.476,21.476,0,0,1-4.672-1.882q-.353-.2-.66-.415c-1.253-.859-1.944-1.8-1.944-2.788a1.707,1.707,0,0,1,.021-.27c.5-3.9,11.787-7.018,25.642-7.018a84.89,84.89,0,0,1,9.638.531q.862.1,1.693.216a51.882,51.882,0,0,1,6.532,1.309q.633.174,1.223.36a21.289,21.289,0,0,1,3.6,1.459,7.639,7.639,0,0,1,2.307,1.748,2.753,2.753,0,0,1,.654,1.394A1.716,1.716,0,0,1-506.081,645.443Z" transform="translate(557.405 -638.155)" fill="#000f39"/>
                <path id="Path_2158" data-name="Path 2158" d="M-499.478,645.856l-30.625,8.776c-2.281-.145-4.448-.376-6.454-.682l34.772-9.842A7.639,7.639,0,0,1-499.478,645.856Z" transform="translate(550.129 -640.233)" fill="#fff" opacity="0.3"/>
                <path id="Path_2159" data-name="Path 2159" d="M-519.369,639.187l-34.389,9.743q-.353-.2-.66-.415l33.357-9.544Q-520.2,639.071-519.369,639.187Z" transform="translate(556.363 -638.44)" fill="#fff" opacity="0.3"/>
                <path id="Path_2160" data-name="Path 2160" d="M-508.756,641.673l-36.138,10.318c-.46-.116-.905-.237-1.335-.362l36.25-10.316Q-509.346,641.487-508.756,641.673Z" transform="translate(553.504 -639.257)" fill="#fff" opacity="0.3"/>
                <path id="Path_2161" data-name="Path 2161" d="M-508.469,646.228a2.037,2.037,0,0,1-.02.267c-.5,3.089-9.5,5.558-20.491,5.558s-20-2.469-20.491-5.558a2.148,2.148,0,0,1-.02-.267c0-3.213,9.2-5.825,20.511-5.825S-508.469,643.015-508.469,646.228Z" transform="translate(554.643 -638.94)" fill="#007ce6"/>
                <path id="Path_2162" data-name="Path 2162" d="M-508.479,646.781c-.5,3.089-9.5,5.558-20.491,5.558-.246,0-.489,0-.732,0a66.862,66.862,0,0,1-6.96-.421,46.148,46.148,0,0,1-5.867-1.033q-.656-.165-1.265-.345a14.514,14.514,0,0,1-4.29-1.911,4.938,4.938,0,0,1-.624-.527,2.454,2.454,0,0,1-.753-1.318c.5-3.088,9.5-5.558,20.491-5.558,1.391,0,2.75.04,4.067.115.67.038,1.331.086,1.978.143a50.061,50.061,0,0,1,7.126,1.1q.67.16,1.294.337a17.667,17.667,0,0,1,3.969,1.572,4.373,4.373,0,0,1,1.929,1.85A1.748,1.748,0,0,1-508.479,646.781Z" transform="translate(554.633 -639.226)" fill="#ffb1b7"/>
                <path id="Path_2163" data-name="Path 2163" d="M-501.746,648.1l-21.095,5.99a66.877,66.877,0,0,1-6.96-.421l26.126-7.42A4.373,4.373,0,0,1-501.746,648.1Z" transform="translate(547.771 -640.98)" fill="#fff" opacity="0.2"/>
                <path id="Path_2164" data-name="Path 2164" d="M-522.522,641.543l-25.159,7.144a4.937,4.937,0,0,1-.624-.527l23.8-6.76C-523.83,641.438-523.168,641.486-522.522,641.543Z" transform="translate(554.229 -639.288)" fill="#fff" opacity="0.2"/>
                <path id="Path_2165" data-name="Path 2165" d="M-511.467,643.653l-28.024,7.959q-.656-.165-1.265-.345l27.994-7.951Q-512.092,643.476-511.467,643.653Z" transform="translate(551.594 -639.956)" fill="#fff" opacity="0.2"/>
                <g id="Group_1309" data-name="Group 1309" transform="translate(16.171 3.043)">
                  <g id="Group_1307" data-name="Group 1307" transform="translate(0.126 0.322)">
                    <g id="Group_1306" data-name="Group 1306">
                      <path id="Path_2166" data-name="Path 2166" d="M-520.153,650.552v.968h-4.329V650.6a56.666,56.666,0,0,1-7.89-.61l2.333-1.5a46.2,46.2,0,0,0,7.092.558c2.057,0,2.794-.122,2.794-.331,0-.767-11.881-.148-11.881-2.424,0-.986,2.517-1.814,7.552-2.014v-.95h4.329v.933a50.074,50.074,0,0,1,6.232.506l-2.18,1.491a42.034,42.034,0,0,0-5.986-.453c-2.118,0-2.794.174-2.794.383,0,.732,11.881.122,11.881,2.372C-513,649.5-515.394,650.317-520.153,650.552Z" transform="translate(532.372 -643.324)" fill="#007ce6"/>
                    </g>
                  </g>
                  <g id="Group_1308" data-name="Group 1308">
                    <path id="Path_2167" data-name="Path 2167" d="M-520.347,650.058v.967h-4.328V650.1a56.668,56.668,0,0,1-7.89-.61l2.333-1.5a46.113,46.113,0,0,0,7.092.558c2.056,0,2.793-.122,2.793-.332,0-.767-11.881-.148-11.881-2.424,0-.985,2.517-1.814,7.553-2.014v-.95h4.328v.932a50.225,50.225,0,0,1,6.233.506l-2.18,1.491a42.051,42.051,0,0,0-5.987-.454c-2.118,0-2.793.174-2.793.384,0,.732,11.881.122,11.881,2.372C-513.193,649-515.588,649.822-520.347,650.058Z" transform="translate(532.565 -642.83)" fill="#fff"/>
                  </g>
                </g>
              </g>
            </g>
          </g>
        </g>
      </g>
      <g id="Group_1336" data-name="Group 1336" transform="translate(45.365 17.031)">
        <g id="Group_1335" data-name="Group 1335">
          <g id="Group_1324" data-name="Group 1324" transform="translate(0 8.99)">
            <g id="Group_1317" data-name="Group 1317" transform="translate(0 7.219)">
              <path id="Path_2168" data-name="Path 2168" d="M-436.548,694.9c0,.024,0,.047,0,.072a3.518,3.518,0,0,1-1.349,2.543,7.845,7.845,0,0,1-.712.574,14.413,14.413,0,0,1-2.694,1.481q-.345.149-.712.293c-.822.324-1.724.627-2.7.907q-.35.1-.712.2-1.276.342-2.7.63-.352.072-.711.14-1.3.245-2.7.443c-.235.034-.472.066-.712.1q-1.312.171-2.694.3c-.236.021-.473.042-.711.061q-1.321.108-2.7.173c-.236.011-.473.021-.711.03q-1.328.05-2.7.059h-.712q-1.366,0-2.7-.05-.357-.013-.712-.028-1.011-.045-2-.113-.352-.024-.7-.051c-.238-.019-.475-.038-.712-.06q-1.381-.121-2.694-.288c-.24-.031-.477-.061-.712-.1q-.837-.115-1.64-.248-.535-.089-1.055-.184c-.239-.044-.477-.091-.712-.137-.942-.187-1.843-.393-2.7-.615-.168-.044-.335-.089-.5-.133l-.212-.059c-.385-.107-.761-.22-1.124-.335q-.826-.262-1.572-.546-.366-.141-.711-.284a16.267,16.267,0,0,1-2.39-1.217q-.157-.1-.3-.2c-.124-.083-.243-.167-.356-.252s-.242-.186-.355-.281a3.707,3.707,0,0,1-1.59-2.752c0-.068,0-.136.01-.2l0-5.479,1.577,0h.712l2.694,0h.711l2.1,0h1.3l2.7,0h.712l2.7,0h.712l2.694,0h.712l2.694,0h.712l2.7,0h.712l2.7,0h.711l2.7,0h.711l2.694,0h.712l2.7,0h.711l2.7,0h.887l2.519,0h.712l2.694,0h.712l1.34,0,.01,5.687Z" transform="translate(487.887 -689.216)" fill="#000f39"/>
              <g id="Group_1316" data-name="Group 1316" transform="translate(1.59 0.003)">
                <g id="Group_1315" data-name="Group 1315">
                  <path id="Path_2169" data-name="Path 2169" d="M-484.733,689.327V698.3c-.124-.083-.243-.167-.356-.252s-.242-.186-.355-.281v-8.437Z" transform="translate(485.445 -689.257)" fill="#faafb4"/>
                  <path id="Path_2170" data-name="Path 2170" d="M-479.5,689.319V700q-.366-.141-.712-.284V689.32Z" transform="translate(483.619 -689.255)" fill="#faafb4"/>
                  <path id="Path_2171" data-name="Path 2171" d="M-474.269,689.311v11.756c-.168-.044-.335-.089-.5-.133l-.212-.059V689.312Z" transform="translate(481.793 -689.252)" fill="#faafb4"/>
                  <path id="Path_2172" data-name="Path 2172" d="M-469.035,689.3v12.513c-.239-.044-.477-.091-.712-.137V689.305Z" transform="translate(479.966 -689.249)" fill="#faafb4"/>
                  <path id="Path_2173" data-name="Path 2173" d="M-463.8,689.3v13.044c-.24-.031-.477-.061-.712-.1V689.3Z" transform="translate(478.14 -689.247)" fill="#faafb4"/>
                  <path id="Path_2174" data-name="Path 2174" d="M-458.57,689.289v13.4q-.357-.028-.712-.06V689.29Z" transform="translate(476.314 -689.244)" fill="#faafb4"/>
                  <path id="Path_2175" data-name="Path 2175" d="M-453.339,689.281v13.6q-.357-.013-.712-.028V689.282Z" transform="translate(474.488 -689.241)" fill="#faafb4"/>
                  <path id="Path_2176" data-name="Path 2176" d="M-448.1,689.273v13.65h-.712V689.274Z" transform="translate(472.661 -689.239)" fill="#faafb4"/>
                  <path id="Path_2177" data-name="Path 2177" d="M-442.872,689.266v13.566c-.236.011-.473.021-.711.03v-13.6Z" transform="translate(470.835 -689.236)" fill="#faafb4"/>
                  <path id="Path_2178" data-name="Path 2178" d="M-437.639,689.258v13.337q-.354.032-.712.061v-13.4Z" transform="translate(469.009 -689.233)" fill="#faafb4"/>
                  <path id="Path_2179" data-name="Path 2179" d="M-432.407,689.25V702.2c-.235.034-.472.066-.712.1V689.251Z" transform="translate(467.183 -689.23)" fill="#faafb4"/>
                  <path id="Path_2180" data-name="Path 2180" d="M-427.175,689.242v12.369q-.351.072-.711.14V689.243Z" transform="translate(465.356 -689.228)" fill="#faafb4"/>
                  <path id="Path_2181" data-name="Path 2181" d="M-421.942,689.234V700.78q-.35.1-.711.2V689.235Z" transform="translate(463.53 -689.225)" fill="#faafb4"/>
                  <path id="Path_2182" data-name="Path 2182" d="M-416.708,689.227v10.351q-.345.149-.712.293V689.228Z" transform="translate(461.703 -689.222)" fill="#faafb4"/>
                  <path id="Path_2183" data-name="Path 2183" d="M-411.476,689.22v8.3a7.841,7.841,0,0,1-.712.574v-8.874Z" transform="translate(459.877 -689.22)" fill="#faafb4"/>
                </g>
              </g>
            </g>
            <g id="Group_1323" data-name="Group 1323" transform="translate(0.009)">
              <g id="Group_1322" data-name="Group 1322">
                <path id="Path_2184" data-name="Path 2184" d="M-436.548,685.415c0,4.024-11.487,7.288-25.663,7.288-1.937,0-3.823-.061-5.637-.176-2.281-.145-4.447-.377-6.454-.682-1.792-.272-3.455-.6-4.961-.984-.46-.117-.906-.237-1.335-.363a21.453,21.453,0,0,1-4.672-1.882c-.235-.136-.456-.274-.66-.415-1.253-.859-1.945-1.8-1.945-2.787a1.717,1.717,0,0,1,.021-.271c.5-3.9,11.788-7.018,25.642-7.018a84.759,84.759,0,0,1,9.638.532q.862.1,1.693.216a51.989,51.989,0,0,1,6.532,1.308q.633.175,1.223.361a21.278,21.278,0,0,1,3.6,1.46,7.656,7.656,0,0,1,2.307,1.747,2.758,2.758,0,0,1,.654,1.394A1.716,1.716,0,0,1-436.548,685.415Z" transform="translate(487.873 -678.127)" fill="#faafb4"/>
                <path id="Path_2185" data-name="Path 2185" d="M-429.945,685.828l-30.626,8.777c-2.281-.145-4.447-.377-6.454-.682l34.772-9.842A7.657,7.657,0,0,1-429.945,685.828Z" transform="translate(480.597 -680.205)" fill="#fff" opacity="0.3"/>
                <path id="Path_2186" data-name="Path 2186" d="M-449.837,679.159l-34.389,9.743c-.235-.136-.456-.274-.66-.415l33.357-9.544Q-450.667,679.044-449.837,679.159Z" transform="translate(486.83 -678.412)" fill="#fff" opacity="0.3"/>
                <path id="Path_2187" data-name="Path 2187" d="M-439.224,681.646l-36.138,10.318c-.46-.117-.906-.237-1.335-.363l36.25-10.316Q-439.814,681.46-439.224,681.646Z" transform="translate(483.972 -679.229)" fill="#fff" opacity="0.3"/>
                <path id="Path_2188" data-name="Path 2188" d="M-438.937,686.2a2.046,2.046,0,0,1-.02.268c-.495,3.088-9.5,5.557-20.491,5.557s-20-2.469-20.49-5.557a2.046,2.046,0,0,1-.02-.268c0-3.212,9.2-5.825,20.511-5.825S-438.937,682.988-438.937,686.2Z" transform="translate(485.111 -678.912)" fill="#007ce6"/>
                <path id="Path_2189" data-name="Path 2189" d="M-438.946,686.754c-.495,3.088-9.5,5.557-20.491,5.557-.245,0-.489,0-.732,0a67.06,67.06,0,0,1-6.96-.421A46.031,46.031,0,0,1-473,690.853q-.656-.165-1.265-.344a14.516,14.516,0,0,1-4.29-1.911,4.984,4.984,0,0,1-.624-.527,2.447,2.447,0,0,1-.753-1.317c.495-3.089,9.5-5.559,20.49-5.559,1.391,0,2.75.04,4.067.115.669.038,1.331.087,1.977.143a49.975,49.975,0,0,1,7.126,1.1c.447.106.879.219,1.294.337A17.627,17.627,0,0,1-441,684.466a4.379,4.379,0,0,1,1.93,1.85A1.783,1.783,0,0,1-438.946,686.754Z" transform="translate(485.1 -679.198)" fill="#faafb4"/>
                <path id="Path_2190" data-name="Path 2190" d="M-432.213,688.07l-21.1,5.991a67.06,67.06,0,0,1-6.96-.421l26.125-7.42A4.379,4.379,0,0,1-432.213,688.07Z" transform="translate(478.239 -680.952)" fill="#fff" opacity="0.2"/>
                <path id="Path_2191" data-name="Path 2191" d="M-452.99,681.515l-25.159,7.144a4.981,4.981,0,0,1-.624-.527l23.805-6.76C-454.3,681.41-453.636,681.459-452.99,681.515Z" transform="translate(484.697 -679.26)" fill="#fff" opacity="0.2"/>
                <path id="Path_2192" data-name="Path 2192" d="M-441.935,683.626l-28.024,7.958q-.656-.165-1.265-.344l28-7.951C-442.782,683.4-442.35,683.508-441.935,683.626Z" transform="translate(482.062 -679.929)" fill="#fff" opacity="0.2"/>
                <g id="Group_1321" data-name="Group 1321" transform="translate(16.171 3.043)">
                  <g id="Group_1319" data-name="Group 1319" transform="translate(0.126 0.322)">
                    <g id="Group_1318" data-name="Group 1318">
                      <path id="Path_2193" data-name="Path 2193" d="M-450.621,690.525v.967h-4.329v-.924a56.694,56.694,0,0,1-7.89-.61l2.333-1.5a46.125,46.125,0,0,0,7.092.559c2.057,0,2.794-.122,2.794-.332,0-.767-11.881-.148-11.881-2.424,0-.985,2.517-1.814,7.552-2.014v-.95h4.329v.933a50.168,50.168,0,0,1,6.232.506l-2.18,1.491a42.042,42.042,0,0,0-5.986-.454c-2.118,0-2.794.174-2.794.383,0,.732,11.881.122,11.881,2.372C-443.468,689.469-445.862,690.289-450.621,690.525Z" transform="translate(462.84 -683.296)" fill="#007ce6"/>
                    </g>
                  </g>
                  <g id="Group_1320" data-name="Group 1320">
                    <path id="Path_2194" data-name="Path 2194" d="M-450.815,690.03V691h-4.328v-.924a56.654,56.654,0,0,1-7.89-.611l2.333-1.5a46.2,46.2,0,0,0,7.092.558c2.057,0,2.793-.122,2.793-.331,0-.767-11.88-.148-11.88-2.424,0-.986,2.517-1.814,7.552-2.014v-.95h4.328v.933a50.061,50.061,0,0,1,6.233.506l-2.179,1.491a42.046,42.046,0,0,0-5.987-.453c-2.118,0-2.793.174-2.793.383,0,.732,11.881.122,11.881,2.372C-443.661,688.975-446.056,689.794-450.815,690.03Z" transform="translate(463.033 -682.802)" fill="#61c2ff"/>
                  </g>
                </g>
              </g>
            </g>
          </g>
          <g id="Group_1334" data-name="Group 1334" transform="translate(1.613)">
            <g id="Group_1327" data-name="Group 1327" transform="translate(0 7.219)">
              <path id="Path_2195" data-name="Path 2195" d="M-434.07,681.092c0,.025,0,.048,0,.073a3.52,3.52,0,0,1-1.349,2.543,8.027,8.027,0,0,1-.712.574,14.511,14.511,0,0,1-2.7,1.481q-.345.149-.711.293c-.822.324-1.723.627-2.694.907q-.35.1-.711.2c-.851.228-1.752.438-2.7.63q-.351.072-.711.139-1.3.246-2.694.444c-.236.034-.473.066-.712.1q-1.312.17-2.7.3-.353.032-.711.061-1.32.108-2.694.172-.354.017-.712.031-1.328.05-2.694.058l-.477,0h-.235q-1.366,0-2.7-.051c-.238-.008-.475-.018-.712-.028q-1.011-.044-2-.113c-.235-.016-.467-.033-.7-.052s-.475-.038-.711-.059q-1.381-.121-2.7-.288c-.24-.03-.476-.061-.711-.094q-.836-.115-1.639-.248-.535-.089-1.055-.184-.359-.067-.712-.137-1.414-.28-2.7-.615c-.168-.044-.335-.089-.5-.133l-.212-.059q-.578-.162-1.124-.335-.825-.263-1.571-.546-.366-.141-.712-.284a16.279,16.279,0,0,1-2.39-1.217c-.1-.066-.206-.132-.3-.2q-.185-.125-.355-.253c-.124-.092-.243-.185-.356-.28a3.706,3.706,0,0,1-1.589-2.752c0-.068,0-.136.009-.2l0-5.479,1.577,0h.711l2.7,0h.712l2.1,0h1.3l2.7,0h.712l2.694,0h.711l2.7,0h.711l2.7,0,.712,0,2.7,0,.712,0,2.694,0h.712l2.694,0h.711l2.7,0h.712l2.694,0h.711l2.7,0h.887l2.519,0h.711l2.7,0h.712l1.34,0,.009,5.686Z" transform="translate(485.409 -675.406)" fill="#000f39"/>
              <g id="Group_1326" data-name="Group 1326" transform="translate(1.589 0.002)">
                <g id="Group_1325" data-name="Group 1325">
                  <path id="Path_2196" data-name="Path 2196" d="M-482.257,675.517v8.971q-.185-.125-.355-.253c-.124-.092-.243-.185-.356-.28v-8.437Z" transform="translate(482.968 -675.447)" fill="#faafb4"/>
                  <path id="Path_2197" data-name="Path 2197" d="M-477.023,675.509v10.677q-.366-.141-.711-.284V675.51Z" transform="translate(481.142 -675.444)" fill="#faafb4"/>
                  <path id="Path_2198" data-name="Path 2198" d="M-471.792,675.5v11.756c-.168-.044-.335-.089-.5-.133l-.212-.059V675.5Z" transform="translate(479.316 -675.441)" fill="#faafb4"/>
                  <path id="Path_2199" data-name="Path 2199" d="M-466.557,675.494v12.513q-.359-.067-.712-.137V675.495Z" transform="translate(477.489 -675.439)" fill="#faafb4"/>
                  <path id="Path_2200" data-name="Path 2200" d="M-461.326,675.486v13.044c-.24-.03-.476-.061-.712-.094V675.487Z" transform="translate(475.663 -675.436)" fill="#faafb4"/>
                  <path id="Path_2201" data-name="Path 2201" d="M-456.093,675.478v13.4q-.357-.027-.711-.059V675.479Z" transform="translate(473.836 -675.433)" fill="#faafb4"/>
                  <path id="Path_2202" data-name="Path 2202" d="M-450.86,675.47v13.6c-.238-.008-.475-.018-.712-.028V675.472Z" transform="translate(472.01 -675.43)" fill="#faafb4"/>
                  <path id="Path_2203" data-name="Path 2203" d="M-445.626,675.462v13.65l-.477,0h-.235V675.464Z" transform="translate(470.184 -675.428)" fill="#faafb4"/>
                  <path id="Path_2204" data-name="Path 2204" d="M-440.394,675.456v13.565q-.354.017-.712.031v-13.6Z" transform="translate(468.358 -675.425)" fill="#faafb4"/>
                  <path id="Path_2205" data-name="Path 2205" d="M-435.163,675.448v13.337c-.236.021-.473.042-.712.061v-13.4Z" transform="translate(466.532 -675.423)" fill="#faafb4"/>
                  <path id="Path_2206" data-name="Path 2206" d="M-429.929,675.44v12.947c-.236.034-.473.066-.712.1V675.441Z" transform="translate(464.705 -675.42)" fill="#faafb4"/>
                  <path id="Path_2207" data-name="Path 2207" d="M-424.7,675.432V687.8q-.351.072-.711.139V675.433Z" transform="translate(462.879 -675.417)" fill="#faafb4"/>
                  <path id="Path_2208" data-name="Path 2208" d="M-419.464,675.424V686.97q-.35.1-.711.2V675.425Z" transform="translate(461.052 -675.414)" fill="#faafb4"/>
                  <path id="Path_2209" data-name="Path 2209" d="M-414.231,675.417v10.351q-.345.149-.712.293V675.418Z" transform="translate(459.226 -675.412)" fill="#faafb4"/>
                  <path id="Path_2210" data-name="Path 2210" d="M-409,675.409v8.3a8.044,8.044,0,0,1-.712.574V675.41Z" transform="translate(457.4 -675.409)" fill="#faafb4"/>
                </g>
              </g>
            </g>
            <g id="Group_1333" data-name="Group 1333" transform="translate(0.009)">
              <g id="Group_1332" data-name="Group 1332">
                <path id="Path_2211" data-name="Path 2211" d="M-434.071,671.6c0,4.025-11.487,7.288-25.663,7.288-1.936,0-3.823-.061-5.637-.177-2.28-.144-4.447-.376-6.454-.682-1.792-.272-3.455-.6-4.961-.983q-.69-.175-1.335-.363a21.48,21.48,0,0,1-4.672-1.882c-.235-.136-.456-.274-.66-.415-1.253-.859-1.945-1.8-1.945-2.787a1.718,1.718,0,0,1,.021-.27c.5-3.9,11.787-7.018,25.641-7.018a84.874,84.874,0,0,1,9.638.531q.862.1,1.693.216a51.883,51.883,0,0,1,6.533,1.308q.633.174,1.222.36a21.324,21.324,0,0,1,3.6,1.46,7.638,7.638,0,0,1,2.307,1.747,2.76,2.76,0,0,1,.654,1.394A1.713,1.713,0,0,1-434.071,671.6Z" transform="translate(485.395 -664.317)" fill="#000f39"/>
                <path id="Path_2212" data-name="Path 2212" d="M-427.468,672.018l-30.626,8.776c-2.28-.145-4.447-.376-6.454-.682l34.772-9.842A7.637,7.637,0,0,1-427.468,672.018Z" transform="translate(478.119 -666.395)" fill="#000f39" opacity="0.3"/>
                <path id="Path_2213" data-name="Path 2213" d="M-447.36,665.349l-34.388,9.743c-.235-.136-.456-.274-.66-.415l33.356-9.544Q-448.19,665.233-447.36,665.349Z" transform="translate(484.352 -664.602)" fill="#000f39" opacity="0.3"/>
                <path id="Path_2214" data-name="Path 2214" d="M-436.747,667.835l-36.137,10.319q-.69-.175-1.335-.363l36.25-10.316Q-437.336,667.649-436.747,667.835Z" transform="translate(481.494 -665.419)" fill="#000f39" opacity="0.3"/>
                <path id="Path_2215" data-name="Path 2215" d="M-436.459,672.39a2.037,2.037,0,0,1-.02.267c-.5,3.089-9.5,5.558-20.491,5.558s-20-2.469-20.491-5.558a2.159,2.159,0,0,1-.02-.267c0-3.212,9.2-5.825,20.511-5.825S-436.459,669.178-436.459,672.39Z" transform="translate(482.633 -665.102)" fill="#000f39"/>
                <path id="Path_2216" data-name="Path 2216" d="M-436.469,672.943c-.5,3.089-9.5,5.558-20.491,5.558-.246,0-.49,0-.733,0a66.83,66.83,0,0,1-6.96-.421,46.117,46.117,0,0,1-5.867-1.033c-.438-.11-.859-.225-1.265-.345a14.508,14.508,0,0,1-4.29-1.911,4.939,4.939,0,0,1-.624-.527,2.454,2.454,0,0,1-.753-1.318c.5-3.088,9.5-5.558,20.491-5.558,1.391,0,2.75.04,4.067.115.67.038,1.331.087,1.978.143a49.958,49.958,0,0,1,7.126,1.1c.447.106.879.218,1.294.336a17.664,17.664,0,0,1,3.97,1.572,4.381,4.381,0,0,1,1.929,1.85A1.752,1.752,0,0,1-436.469,672.943Z" transform="translate(482.622 -665.388)" fill="#faafb4"/>
                <path id="Path_2217" data-name="Path 2217" d="M-429.736,674.26l-21.1,5.99a66.864,66.864,0,0,1-6.96-.421l26.126-7.42A4.381,4.381,0,0,1-429.736,674.26Z" transform="translate(475.761 -667.142)" fill="#000f39" opacity="0.2"/>
                <path id="Path_2218" data-name="Path 2218" d="M-450.512,667.705l-25.159,7.144a4.933,4.933,0,0,1-.624-.527l23.8-6.761C-451.82,667.6-451.159,667.649-450.512,667.705Z" transform="translate(482.219 -665.45)" fill="#000f39" opacity="0.2"/>
                <path id="Path_2219" data-name="Path 2219" d="M-439.458,669.815l-28.023,7.959c-.438-.11-.859-.225-1.265-.345l27.994-7.95C-440.305,669.585-439.873,669.7-439.458,669.815Z" transform="translate(479.584 -666.119)" fill="#000f39" opacity="0.2"/>
                <g id="Group_1331" data-name="Group 1331" transform="translate(16.17 3.043)">
                  <g id="Group_1329" data-name="Group 1329" transform="translate(0.126 0.322)">
                    <g id="Group_1328" data-name="Group 1328">
                      <path id="Path_2220" data-name="Path 2220" d="M-448.143,676.714v.968h-4.329v-.924a56.657,56.657,0,0,1-7.89-.61l2.333-1.5a46.2,46.2,0,0,0,7.092.558c2.057,0,2.794-.122,2.794-.331,0-.767-11.881-.148-11.881-2.424,0-.986,2.517-1.814,7.552-2.014v-.95h4.329v.933a50.084,50.084,0,0,1,6.232.506l-2.18,1.491a42.127,42.127,0,0,0-5.987-.453c-2.118,0-2.793.174-2.793.383,0,.732,11.881.122,11.881,2.371C-440.99,675.659-443.385,676.479-448.143,676.714Z" transform="translate(460.362 -669.486)" fill="#000f39"/>
                    </g>
                  </g>
                  <g id="Group_1330" data-name="Group 1330">
                    <path id="Path_2221" data-name="Path 2221" d="M-448.337,676.22v.967h-4.329v-.924a56.661,56.661,0,0,1-7.89-.611l2.333-1.5a46.127,46.127,0,0,0,7.092.558c2.057,0,2.794-.122,2.794-.331,0-.768-11.881-.148-11.881-2.424,0-.985,2.517-1.814,7.552-2.014v-.95h4.329v.933a49.954,49.954,0,0,1,6.233.506l-2.18,1.491a42.034,42.034,0,0,0-5.986-.454c-2.118,0-2.794.174-2.794.384,0,.732,11.881.122,11.881,2.372C-441.184,675.165-443.578,675.984-448.337,676.22Z" transform="translate(460.556 -668.992)" fill="#fff"/>
                  </g>
                </g>
              </g>
            </g>
          </g>
        </g>
      </g>
    </g>
    <g id="Group_1342" data-name="Group 1342" transform="translate(-382.926 426.779)">
      <g id="Group_1338" data-name="Group 1338">
        <path id="Path_2222" data-name="Path 2222" d="M-252.875,485.523v19.32a2.231,2.231,0,0,1-2.229,2.229h-19.319a4.233,4.233,0,0,1-3.618-2.565,1.455,1.455,0,0,1-.1-.229c-.038-.115-.076-.228-.115-.351,0-.016-.007-.023-.007-.038s-.008-.008-.008-.015v-.038l-.038-15.243v-4.465a2.234,2.234,0,0,1,1.993-2.221c.076,0,.16-.008.236-.008l19.709.076a1.539,1.539,0,0,1,.267.023h.008A3.973,3.973,0,0,1-252.875,485.523Z" transform="translate(278.309 -481.898)" fill="#005ec9"/>
      </g>
      <g id="Group_1339" data-name="Group 1339">
        <path id="Path_2223" data-name="Path 2223" d="M-254.532,484.127v19.312a2.226,2.226,0,0,1-2.228,2.229h-19.32a2.23,2.23,0,0,1-1.961-1.16,1.455,1.455,0,0,1-.1-.229c-.038-.115-.076-.228-.115-.351,0-.016-.007-.023-.007-.038s-.008-.038-.008-.053a2.267,2.267,0,0,1-.038-.4V484.127a2.234,2.234,0,0,1,1.993-2.221c.076,0,.16-.008.236-.008h19.32a2.084,2.084,0,0,1,.656.1h.008A2.222,2.222,0,0,1-254.532,484.127Z" transform="translate(278.309 -481.898)" fill="#d42e39"/>
      </g>
      <g id="Group_1341" data-name="Group 1341" transform="translate(6.403 4.034)">
        <g id="Group_1340" data-name="Group 1340">
          <path id="Path_2224" data-name="Path 2224" d="M-261.576,502.5l-.016,1.926-2.446-.02.015-1.839a10.207,10.207,0,0,1-4.449-1.251l1.343-2.974a8.335,8.335,0,0,0,4,1.143c1.163.009,1.581-.23,1.584-.646.012-1.527-6.712-.35-6.675-4.878.016-1.961,1.452-3.6,4.3-3.974l.015-1.891,2.446.02-.015,1.857a9.047,9.047,0,0,1,3.514,1.035l-1.256,2.957a7.492,7.492,0,0,0-3.376-.93c-1.2-.01-1.582.334-1.585.75-.012,1.458,6.712.3,6.676,4.774C-257.517,500.431-258.883,502.051-261.576,502.5Z" transform="translate(268.473 -488.094)" fill="#fff"/>
        </g>
      </g>
    </g>
    <g id="Group_1347" data-name="Group 1347" transform="translate(-390.793 513.934)">
      <g id="Group_1346" data-name="Group 1346" transform="translate(0)">
        <path id="Path_2225" data-name="Path 2225" d="M-243.724,632.757l-41.169-.1v51.135l41.169.134Z" transform="translate(288.475 -621.668)" fill="#d42e39"/>
        <g id="Group_1343" data-name="Group 1343" transform="translate(13.394)">
          <path id="Path_2226" data-name="Path 2226" d="M-269.073,633.2a.777.777,0,0,0,.808-.7c.245-2.573,1.367-11.177,5.6-14.286a5.436,5.436,0,0,1,3.881-1.064c7.426.7,8.555,12.342,8.723,15.419a.779.779,0,0,0,.783.735h0a.779.779,0,0,0,.775-.818c-.169-3.375-1.383-15.846-10.115-16.666a7.16,7.16,0,0,0-5.06,1.378c-4.7,3.458-5.879,12.384-6.135,15.155a.779.779,0,0,0,.743.851Z" transform="translate(269.82 -615.779)" fill="#d42e39"/>
        </g>
        <path id="Path_2227" data-name="Path 2227" d="M-249.225,632.757l-41.169-.1v51.135l41.169.134Z" transform="translate(290.395 -621.668)" fill="#ffcbce"/>
        <g id="Group_1344" data-name="Group 1344" transform="translate(9.307 15.685)">
          <path id="Path_2228" data-name="Path 2228" d="M-273.144,641.35a1.477,1.477,0,0,1-1.477,1.477,1.477,1.477,0,0,1-1.477-1.477,1.477,1.477,0,0,1,1.477-1.477A1.477,1.477,0,0,1-273.144,641.35Z" transform="translate(276.098 -639.873)" fill="#852a30"/>
          <path id="Path_2229" data-name="Path 2229" d="M-242.682,641.35a1.477,1.477,0,0,1-1.477,1.477,1.477,1.477,0,0,1-1.478-1.477,1.477,1.477,0,0,1,1.478-1.477A1.477,1.477,0,0,1-242.682,641.35Z" transform="translate(265.467 -639.873)" fill="#852a30"/>
        </g>
        <g id="Group_1345" data-name="Group 1345" transform="translate(10.096 0.118)">
          <path id="Path_2230" data-name="Path 2230" d="M-274.139,633.38a.779.779,0,0,0,.809-.7c.245-2.573,1.367-11.177,5.6-14.285a5.428,5.428,0,0,1,3.881-1.064c7.426.7,8.555,12.345,8.723,15.419a.778.778,0,0,0,.782.735h0a.779.779,0,0,0,.775-.818c-.169-3.373-1.382-15.848-10.115-16.667a7.161,7.161,0,0,0-5.061,1.377c-4.7,3.459-5.879,12.384-6.134,15.155a.779.779,0,0,0,.743.852Z" transform="translate(274.885 -615.959)" fill="#d42e39"/>
        </g>
      </g>
    </g>
  </g>
</svg>
