<svg xmlns="http://www.w3.org/2000/svg" width="386.939" height="351.229" viewBox="0 0 386.939 351.229">
  <g id="Group_2198" data-name="Group 2198" transform="translate(-778.145 96.281)">
    <g id="Group_2144" data-name="Group 2144" transform="translate(789.89 -85.42)">
      <path id="Path_2389" data-name="Path 2389" d="M875.165,240.242c20.3,21.431,70.137,13.583,91.723,0,70.067-44.087,192.885-117.47,198.444-223.784,2.363-45.189-37.483-68.916-54.132-75.879-39.982-16.717-83.845-21.734-127.138-23.671-45.219-2.023-93.725-.448-134.452,21.615-15.426,8.356-29.979,19.074-39.941,33.7a106.2,106.2,0,0,0-17.487,50.425c-2.49,28.816,5.262,57.709,16.985,84.151s27.357,50.924,41.706,76.038C860.236,199.224,858.062,222.187,875.165,240.242Z" transform="translate(-791.717 83.739)" fill="#92e3a9"/>
      <path id="Path_2390" data-name="Path 2390" d="M875.165,240.242c20.3,21.431,70.137,13.583,91.723,0,70.067-44.087,192.885-117.47,198.444-223.784,2.363-45.189-37.483-68.916-54.132-75.879-39.982-16.717-83.845-21.734-127.138-23.671-45.219-2.023-93.725-.448-134.452,21.615-15.426,8.356-29.979,19.074-39.941,33.7a106.2,106.2,0,0,0-17.487,50.425c-2.49,28.816,5.262,57.709,16.985,84.151s27.357,50.924,41.706,76.038C860.236,199.224,858.062,222.187,875.165,240.242Z" transform="translate(-791.717 83.739)" fill="#ffcbce"/>
    </g>
    <g id="Group_2167" data-name="Group 2167" transform="translate(778.648 -95.759)">
      <g id="Group_2145" data-name="Group 2145" transform="translate(49.125 73.816)">
        <rect id="Rectangle_783" data-name="Rectangle 783" width="49" height="31.335" rx="3.51" transform="translate(9.087) rotate(16.858)" fill="none" stroke="#263238" stroke-width="1"/>
        <line id="Line_62" data-name="Line 62" x2="46.895" y2="14.21" transform="translate(6.971 6.985)" fill="none" stroke="#263238" stroke-width="1"/>
        <line id="Line_63" data-name="Line 63" x2="46.895" y2="14.21" transform="translate(5.543 11.695)" fill="none" stroke="#263238" stroke-width="1"/>
        <path id="Path_2391" data-name="Path 2391" d="M879.463,29.854a3.051,3.051,0,0,0,.265,2.39,3.054,3.054,0,1,1,1.282-4.231A3.045,3.045,0,0,0,879.463,29.854Z" transform="translate(-841.289 4.85)" fill="none" stroke="#263238" stroke-width="1"/>
        <path id="Path_2392" data-name="Path 2392" d="M885.958,31.819a3.05,3.05,0,1,1-2.034-3.8A3.05,3.05,0,0,1,885.958,31.819Z" transform="translate(-841.945 4.652)" fill="none" stroke="#263238" stroke-width="1"/>
      </g>
      <g id="Group_2146" data-name="Group 2146" transform="translate(338.201 134.888)">
        <rect id="Rectangle_784" data-name="Rectangle 784" width="41.673" height="26.649" rx="3.51" transform="translate(7.728 0) rotate(16.858)" fill="none" stroke="#263238" stroke-width="1"/>
        <line id="Line_64" data-name="Line 64" x2="39.883" y2="12.085" transform="translate(5.928 5.94)" fill="none" stroke="#263238" stroke-width="1"/>
        <line id="Line_65" data-name="Line 65" x2="39.883" y2="12.085" transform="translate(4.715 9.946)" fill="none" stroke="#263238" stroke-width="1"/>
        <path id="Path_2393" data-name="Path 2393" d="M1209,94.9a2.591,2.591,0,0,0,.225,2.033,2.6,2.6,0,1,1,1.091-3.6A2.589,2.589,0,0,0,1209,94.9Z" transform="translate(-1176.536 -65.39)" fill="none" stroke="#263238" stroke-width="1"/>
        <path id="Path_2394" data-name="Path 2394" d="M1214.526,96.575a2.594,2.594,0,1,1-1.731-3.235A2.594,2.594,0,0,1,1214.526,96.575Z" transform="translate(-1177.094 -65.558)" fill="none" stroke="#263238" stroke-width="1"/>
      </g>
      <g id="Group_2148" data-name="Group 2148" transform="translate(278.546 51.874)">
        <rect id="Rectangle_785" data-name="Rectangle 785" width="54.761" height="28.485" transform="translate(0 22.798) rotate(-24.602)" fill="none" stroke="#263238" stroke-width="1"/>
        <path id="Path_2395" data-name="Path 2395" d="M1160.545-12.612l-7.535-16.456a2.92,2.92,0,0,1-3.871-1.439L1108.9-12.08a2.92,2.92,0,0,1-1.44,3.87l7.535,16.456a2.92,2.92,0,0,1,3.871,1.439l40.243-18.427A2.918,2.918,0,0,1,1160.545-12.612Z" transform="translate(-1103.177 34.76)" fill="none" stroke="#263238" stroke-width="1"/>
        <circle id="Ellipse_59" data-name="Ellipse 59" cx="7.486" cy="7.486" r="7.486" transform="matrix(0.793, -0.609, 0.609, 0.793, 20.327, 22.973)" fill="none" stroke="#263238" stroke-width="1"/>
        <g id="Group_2147" data-name="Group 2147" transform="translate(27.241 19.213)">
          <path id="Path_2396" data-name="Path 2396" d="M1139.765-4.343l.56,1.222-.531.243-.555-1.212a4.385,4.385,0,0,1-2.985.2l.031-.747a3.98,3.98,0,0,0,2.642-.129l-1.281-2.8c-1.3.249-2.657.433-3.3-.971-.467-1.021-.138-2.239,1.431-3.112l-.56-1.222.532-.243.555,1.212a4.585,4.585,0,0,1,2.46-.329l.021.748a4.335,4.335,0,0,0-2.174.25l1.29,2.818c1.332-.263,2.754-.5,3.406.922C1141.78-6.462,1141.412-5.213,1139.765-4.343Zm-2.459-3.967-1.217-2.659c-1.051.6-1.283,1.385-.976,2.055C1135.483-8.105,1136.332-8.135,1137.306-8.31Zm3.245,1.215c-.384-.84-1.292-.772-2.309-.576l1.217,2.658C1140.589-5.633,1140.862-6.414,1140.551-7.095Z" transform="translate(-1134.151 13.115)" fill="#263238"/>
        </g>
      </g>
      <g id="Group_2150" data-name="Group 2150" transform="translate(14.371 169.4)">
        <rect id="Rectangle_786" data-name="Rectangle 786" width="38.284" height="19.914" transform="matrix(0.996, -0.086, 0.086, 0.996, 0, 3.298)" fill="none" stroke="#263238" stroke-width="1"/>
        <path id="Path_2397" data-name="Path 2397" d="M833.59,117.854l-1.09-12.606a2.041,2.041,0,0,1-2.21-1.858l-30.828,2.666a2.041,2.041,0,0,1-1.858,2.21l1.09,12.6a2.042,2.042,0,0,1,2.21,1.858l30.828-2.665A2.041,2.041,0,0,1,833.59,117.854Z" transform="translate(-795.67 -101.492)" fill="none" stroke="#263238" stroke-width="1"/>
        <path id="Path_2398" data-name="Path 2398" d="M822.886,113.33a5.234,5.234,0,1,1-5.665-4.764A5.233,5.233,0,0,1,822.886,113.33Z" transform="translate(-797.744 -102.213)" fill="none" stroke="#263238" stroke-width="1"/>
        <g id="Group_2149" data-name="Group 2149" transform="translate(17.823 7.72)">
          <path id="Path_2399" data-name="Path 2399" d="M818.663,116.878l.081.937-.407.034-.081-.928a3.069,3.069,0,0,1-2.011-.573l.2-.485a2.788,2.788,0,0,0,1.77.537l-.185-2.143c-.915-.142-1.852-.34-1.945-1.415-.067-.782.436-1.507,1.674-1.713l-.081-.937.408-.035.08.929a3.208,3.208,0,0,1,1.7.362l-.163.5a3.033,3.033,0,0,0-1.491-.347l.187,2.159c.939.14,1.932.317,2.026,1.409C820.488,115.957,819.952,116.693,818.663,116.878Zm-.686-3.19-.176-2.037c-.833.146-1.171.61-1.126,1.123C816.729,113.394,817.294,113.575,817.977,113.688Zm1.85,1.563c-.056-.643-.669-.812-1.384-.922l.175,2.036C819.509,116.222,819.872,115.772,819.827,115.251Z" transform="translate(-816.076 -110.158)" fill="#263238"/>
        </g>
      </g>
      <g id="Group_2152" data-name="Group 2152" transform="translate(355.818 48.522)">
        <circle id="Ellipse_60" data-name="Ellipse 60" cx="7.486" cy="7.486" r="7.486" fill="none" stroke="#263238" stroke-width="1"/>
        <g id="Group_2151" data-name="Group 2151" transform="translate(4.439 1.99)">
          <path id="Path_2400" data-name="Path 2400" d="M1200.857-27.387v1.344h-.585v-1.332a4.387,4.387,0,0,1-2.8-1.065l.34-.667a3.978,3.978,0,0,0,2.456.982V-31.2c-1.287-.316-2.6-.713-2.6-2.257,0-1.123.808-2.094,2.6-2.234v-1.344h.585V-35.7a4.58,4.58,0,0,1,2.373.726l-.292.689a4.345,4.345,0,0,0-2.082-.678v3.1c1.321.316,2.713.69,2.713,2.257C1203.57-28.474,1202.716-27.491,1200.857-27.387Zm-.585-4.631v-2.924c-1.2.106-1.743.725-1.743,1.462C1198.53-32.59,1199.313-32.264,1200.273-32.018Zm2.444,2.456c0-.924-.853-1.239-1.859-1.485v2.923C1202.143-28.217,1202.716-28.814,1202.716-29.562Z" transform="translate(-1197.477 37.034)" fill="#263238"/>
        </g>
      </g>
      <g id="Group_2154" data-name="Group 2154" transform="translate(303.303 139.822)">
        <circle id="Ellipse_61" data-name="Ellipse 61" cx="7.486" cy="7.486" r="7.486" transform="translate(0 3.435) rotate(-13.261)" fill="none" stroke="#263238" stroke-width="1"/>
        <g id="Group_2153" data-name="Group 2153" transform="translate(4.786 4.19)">
          <path id="Path_2401" data-name="Path 2401" d="M1139.154,80.192l-.7,1.146-.5-.306.7-1.135a4.384,4.384,0,0,1-1.824-2.371l.638-.39a3.983,3.983,0,0,0,1.578,2.123l1.611-2.62c-.932-.944-1.839-1.967-1.031-3.283.588-.956,1.784-1.36,3.382-.543l.7-1.146.5.306-.7,1.135a4.583,4.583,0,0,1,1.642,1.861l-.61.434a4.339,4.339,0,0,0-1.418-1.668l-1.622,2.64c.96.962,1.95,2.009,1.129,3.344C1142.035,80.687,1140.793,81.076,1139.154,80.192Zm1.927-4.251,1.531-2.491c-1.081-.541-1.865-.3-2.251.333C1139.9,74.54,1140.393,75.23,1141.081,75.941Zm.8,3.372c.483-.787-.078-1.5-.806-2.239l-1.531,2.491C1140.685,80.158,1141.485,79.95,1141.877,79.313Z" transform="translate(-1136.826 -71.667)" fill="#263238"/>
        </g>
      </g>
      <g id="Group_2156" data-name="Group 2156" transform="translate(190.612)">
        <path id="Path_2402" data-name="Path 2402" d="M1014.547-91.382a7.486,7.486,0,0,1-3.7,9.92,7.486,7.486,0,0,1-9.92-3.7,7.486,7.486,0,0,1,3.7-9.92A7.485,7.485,0,0,1,1014.547-91.382Z" transform="translate(-1000.25 95.759)" fill="none" stroke="#263238" stroke-width="1"/>
        <g id="Group_2155" data-name="Group 2155" transform="translate(3.906 2.35)">
          <path id="Path_2403" data-name="Path 2403" d="M1010.4-84.251l.558,1.223-.532.243L1009.874-84a4.388,4.388,0,0,1-2.985.194l.032-.747a3.982,3.982,0,0,0,2.642-.127l-1.278-2.8c-1.3.248-2.658.43-3.3-.974-.466-1.021-.135-2.24,1.434-3.111l-.559-1.223.532-.243.554,1.213a4.579,4.579,0,0,1,2.461-.327l.021.748a4.339,4.339,0,0,0-2.175.249l1.289,2.819c1.332-.262,2.754-.5,3.405.925C1012.417-86.368,1012.049-85.119,1010.4-84.251Zm-2.457-3.97-1.215-2.659c-1.051.6-1.283,1.384-.977,2.054C1006.122-88.016,1006.971-88.045,1007.945-88.22ZM1011.188-87c-.384-.84-1.291-.772-2.308-.578l1.215,2.66C1011.226-85.541,1011.5-86.321,1011.188-87Z" transform="translate(-1004.791 93.026)" fill="#263238"/>
        </g>
      </g>
      <g id="Group_2158" data-name="Group 2158" transform="translate(158.234 300.873)">
        <path id="Path_2404" data-name="Path 2404" d="M984.077,260.6a11.241,11.241,0,1,1-14.9-5.553A11.242,11.242,0,0,1,984.077,260.6Z" transform="translate(-962.607 -254.031)" fill="none" stroke="#263238" stroke-width="1"/>
        <g id="Group_2157" data-name="Group 2157" transform="translate(5.865 3.529)">
          <path id="Path_2405" data-name="Path 2405" d="M977.852,271.312l.839,1.836-.8.365-.832-1.82a6.589,6.589,0,0,1-4.482.291l.047-1.122a5.978,5.978,0,0,0,3.968-.191l-1.92-4.2c-1.954.372-3.991.647-4.954-1.462-.7-1.533-.2-3.362,2.152-4.671l-.839-1.837.8-.365.832,1.821a6.9,6.9,0,0,1,3.7-.491l.031,1.125a6.519,6.519,0,0,0-3.267.372l1.934,4.233c2-.393,4.137-.751,5.115,1.389C980.879,268.133,980.325,270.008,977.852,271.312Zm-3.689-5.96-1.824-3.994c-1.579.9-1.928,2.078-1.468,3.085C971.425,265.657,972.7,265.614,974.163,265.352Zm4.87,1.829c-.576-1.261-1.939-1.16-3.466-.868l1.824,3.993C979.09,269.375,979.5,268.2,979.033,267.18Z" transform="translate(-969.427 -258.134)" fill="#263238"/>
        </g>
      </g>
      <g id="Group_2160" data-name="Group 2160" transform="translate(0 113.059)">
        <path id="Path_2406" data-name="Path 2406" d="M797.309,55.368A11.241,11.241,0,1,1,798.335,39.5,11.242,11.242,0,0,1,797.309,55.368Z" transform="translate(-778.648 -35.682)" fill="none" stroke="#263238" stroke-width="1"/>
        <g id="Group_2159" data-name="Group 2159" transform="translate(4.717 5.35)">
          <path id="Path_2407" data-name="Path 2407" d="M786.3,52.284l-1.517,1.332-.58-.659,1.5-1.321a6.59,6.59,0,0,1-1.571-4.209l1.089-.278a5.981,5.981,0,0,0,1.325,3.744l3.47-3.048c-.919-1.764-1.768-3.636-.027-5.166,1.266-1.112,3.161-1.164,5.093.716l1.516-1.333.58.66-1.5,1.321a6.9,6.9,0,0,1,1.535,3.4l-1.068.354a6.525,6.525,0,0,0-1.3-3.02l-3.5,3.072c.953,1.8,1.91,3.744.143,5.3C790.219,54.267,788.264,54.277,786.3,52.284Zm4.645-5.25,3.3-2.9c-1.313-1.254-2.545-1.247-3.377-.517C789.867,44.5,790.275,45.709,790.949,47.034Zm-.348,5.19c1.042-.915.552-2.191-.168-3.569l-3.3,2.9C788.515,52.912,789.756,52.967,790.6,52.225Z" transform="translate(-784.131 -41.902)" fill="#263238"/>
        </g>
      </g>
      <g id="Group_2162" data-name="Group 2162" transform="translate(58.552 221.695)">
        <circle id="Ellipse_62" data-name="Ellipse 62" cx="5.428" cy="5.428" r="5.428" transform="matrix(0.036, -0.999, 0.999, 0.036, 0, 10.85)" fill="none" stroke="#263238" stroke-width="1"/>
        <g id="Group_2161" data-name="Group 2161" transform="translate(2.79 2.401)">
          <path id="Path_2408" data-name="Path 2408" d="M854.9,170.146l.624.749-.325.272-.619-.743a3.181,3.181,0,0,1-2.051.7l-.12-.529a2.884,2.884,0,0,0,1.824-.593l-1.427-1.713c-.864.421-1.778.808-2.494-.052-.521-.625-.521-1.541.41-2.449l-.625-.749.326-.272.618.743a3.324,3.324,0,0,1,1.659-.7l.157.52a3.145,3.145,0,0,0-1.474.588l1.438,1.726c.883-.437,1.832-.875,2.559,0C855.91,168.281,855.89,169.225,854.9,170.146Zm-2.476-2.309-1.356-1.629c-.623.618-.635,1.213-.292,1.624C851.191,168.328,851.78,168.146,852.428,167.837Zm2.5.234c-.428-.514-1.051-.294-1.725.035l1.356,1.629C855.235,169.086,855.277,168.489,854.93,168.071Z" transform="translate(-849.963 -164.771)" fill="#263238"/>
        </g>
      </g>
      <g id="Group_2164" data-name="Group 2164" transform="translate(227.481 333.738)">
        <path id="Path_2409" data-name="Path 2409" d="M1052.712,294.194a5.428,5.428,0,1,1-7.645-.7A5.428,5.428,0,0,1,1052.712,294.194Z" transform="translate(-1043.114 -292.24)" fill="none" stroke="#263238" stroke-width="1"/>
        <g id="Group_2163" data-name="Group 2163" transform="translate(2.601 2.212)">
          <path id="Path_2410" data-name="Path 2410" d="M1051.077,300.186l.624.749-.326.272-.618-.743a3.181,3.181,0,0,1-2.052.7l-.12-.529a2.885,2.885,0,0,0,1.824-.593l-1.427-1.713c-.864.421-1.778.808-2.494-.052-.521-.625-.522-1.541.41-2.449l-.624-.749.326-.272.618.743a3.322,3.322,0,0,1,1.659-.7l.157.52a3.152,3.152,0,0,0-1.475.588l1.439,1.726c.882-.437,1.831-.875,2.559,0C1052.084,298.321,1052.064,299.265,1051.077,300.186Zm-2.475-2.309-1.357-1.629c-.622.618-.634,1.214-.292,1.624C1047.365,298.368,1047.954,298.186,1048.6,297.877Zm2.5.234c-.429-.514-1.051-.294-1.725.035l1.357,1.629C1051.408,299.126,1051.451,298.529,1051.1,298.111Z" transform="translate(-1046.137 -294.811)" fill="#263238"/>
        </g>
      </g>
      <g id="Group_2166" data-name="Group 2166" transform="translate(77.232 20.083)">
        <circle id="Ellipse_63" data-name="Ellipse 63" cx="5.428" cy="5.428" r="5.428" transform="matrix(0.091, -0.996, 0.996, 0.091, 0, 10.812)" fill="none" stroke="#263238" stroke-width="1"/>
        <g id="Group_2165" data-name="Group 2165" transform="translate(3.074 2.685)">
          <path id="Path_2411" data-name="Path 2411" d="M876.951-63.914l.624.749-.326.272-.618-.743a3.181,3.181,0,0,1-2.051.7l-.12-.529a2.886,2.886,0,0,0,1.824-.593l-1.428-1.713c-.864.421-1.777.808-2.494-.052-.521-.625-.522-1.541.409-2.449l-.625-.749.326-.272.618.743a3.323,3.323,0,0,1,1.659-.7l.157.52a3.149,3.149,0,0,0-1.474.588l1.438,1.726c.883-.437,1.832-.875,2.559,0C877.958-65.779,877.938-64.835,876.951-63.914Zm-2.475-2.309-1.357-1.629c-.622.618-.635,1.213-.292,1.624C873.238-65.733,873.828-65.915,874.476-66.223Zm2.5.234c-.428-.514-1.05-.294-1.725.035l1.357,1.629C877.282-64.974,877.324-65.571,876.977-65.989Z" transform="translate(-872.011 69.289)" fill="#263238"/>
        </g>
      </g>
    </g>
    <g id="Group_2194" data-name="Group 2194" transform="translate(800.565 -66.669)">
      <path id="Path_2412" data-name="Path 2412" d="M992.988,185.839s-6.628,33.666-47.305,41.255c0,0-10.623,8.473-14.159,13.491s-22.395,13.541-41.549,40.131-47.738-57.86-47.738-57.86l63.116-81.977Z" transform="translate(-809.457 33.577)" fill="rgba(0,0,0,0.7)" opacity="0.2"/>
      <g id="Group_2170" data-name="Group 2170" transform="translate(0 52.294)">
        <path id="Path_2413" data-name="Path 2413" d="M1054.022,7.941s21.935-10.721,26.76-8.87,9.432,12.942-8.993,23.567-12.942,30.416-12.942,30.416h13.161s7.9,3.217,10.967,7.349,5.265,18.247,7.02,23.034.877,9.569-3.948,11.126c0,0-3.072,13.386-2.193,19.316s.439,9.758-5.265,10.477a9.947,9.947,0,0,1-10.967-10.477l-4.388,15.895,3.071,6.11a39.759,39.759,0,0,1,11.845,7.178c6.142,5.264,12.284,6.7,10.529,12.563s-5.264,12.188-23.69,4.857-33.78-36.126-33.78-36.126L1020.141,23.942Z" transform="translate(-834.336 1.144)" fill="#fff"/>
        <path id="Path_2414" data-name="Path 2414" d="M1077.109,65.777c-9.946,13.558,1.055,29.164,1.055,29.164s-6.881,3.839-7.077,13.628c-.078,4.066.946,9.758,2.166,15.02a9.875,9.875,0,0,1-5.63-9.563l-4.394,15.9,3.072,6.107a37.44,37.44,0,0,1,9.046,4.973c-2.728,6.263-3.558,14-3.315,21.986a58.428,58.428,0,0,1-7.045-2.353c-18.429-7.335-33.777-36.131-33.777-36.131L1020.141,24.088l33.879-16s11.986-5.856,20.188-8.171c-.633,7.678.876,15.614,1.947,20.039a46.5,46.5,0,0,1-4.364,2.831c-18.429,10.618-12.948,30.415-12.948,30.415h13.167s7.506,3.057,10.719,7.045A21.407,21.407,0,0,0,1077.109,65.777Z" transform="translate(-834.336 0.995)" fill="#000f39"/>
        <path id="Path_2415" data-name="Path 2415" d="M989.5,153.55s-23.862,46.788-66.874,57.4c0,0-1.642,9.257-8.922,13.229-3.885,2.119-19.57,25.63-33.346,47.084L804.128,224.5c4.7-4.645,10.047-9.992,15.52-15.576,15.911-16.223,32.886-34.449,38.085-43.4,4.645-8,10.516-21.885,15.638-34.934,6.553-16.685,11.885-32.018,11.885-32.018L910.682,70.3l39.977-44.442,1.728,5.684Z" transform="translate(-804.128 -2.633)" fill="#fff"/>
        <path id="Path_2416" data-name="Path 2416" d="M963.749,25.863l38.844,127.687s-23.862,46.788-66.874,57.4c0,0-1.642,9.257-8.922,13.229-3.487,1.9-16.481,21.04-29.062,40.454,4.66-16,18.163-41.5,18.163-41.5-8.663-10.258-6.138-21.072-2.674-17.991,3.355,2.994,12.182,11.728,12.737,12.275-3.831-4.512-4.714-11.572-4.714-11.572s10.735,7.138,11.6-4.332-6.435-39.391-6.435-39.391L907.283,88.64Z" transform="translate(-817.219 -2.633)" fill="#000f39"/>
        <g id="Group_2168" data-name="Group 2168" transform="translate(185.804 0)">
          <path id="Path_2417" data-name="Path 2417" d="M1020.141,23.942l33.881-16s21.935-10.721,26.76-8.87,9.432,12.942-8.993,23.567-12.942,30.416-12.942,30.416h13.161s7.9,3.217,10.967,7.349,5.265,18.247,7.02,23.034.877,9.569-3.948,11.126c0,0-3.072,13.386-2.193,19.316s.439,9.758-5.265,10.477a9.947,9.947,0,0,1-10.967-10.477l-4.388,15.895,3.071,6.11a39.759,39.759,0,0,1,11.845,7.178c6.142,5.264,12.284,6.7,10.529,12.563s-5.264,12.188-23.69,4.857-33.78-36.126-33.78-36.126" transform="translate(-1020.141 1.144)" fill="none" stroke="#263238" stroke-linecap="round" stroke-linejoin="round" stroke-width="1"/>
          <path id="Path_2418" data-name="Path 2418" d="M1093.855,104.207c-6.581,1.777-14.258.461-17.109-11.165s2.853-24.045,6.58-25.226" transform="translate(-1027.949 -8.5)" fill="none" stroke="#263238" stroke-linecap="round" stroke-linejoin="round" stroke-width="1"/>
          <path id="Path_2419" data-name="Path 2419" d="M1075.34,129.545s-.44-14.973,5.045-18.669" transform="translate(-1027.859 -14.522)" fill="none" stroke="#263238" stroke-linecap="round" stroke-linejoin="round" stroke-width="1"/>
        </g>
        <path id="Path_2420" data-name="Path 2420" d="M879.921,209.061s-16.075-2-19.665-9.2c-2.971-5.95-19.054,16.31-38.085,26.083,15.911-16.223,32.886-34.449,38.085-43.4,4.645-8,10.516-21.885,15.638-34.934v.015c-.258,10.822-6.028,27.39-4.378,36.014a6.935,6.935,0,0,0-4.949,8.381C867.8,198.865,879.921,209.061,879.921,209.061Z" transform="translate(-806.651 -19.659)" fill="#000f39"/>
        <g id="Group_2169" data-name="Group 2169" transform="translate(0 23.232)">
          <path id="Path_2421" data-name="Path 2421" d="M1001.895,174.309s-23.86,46.789-66.874,57.4c0,0-1.639,9.254-8.917,13.227-3.884,2.119-19.568,25.627-33.35,47.088" transform="translate(-816.522 -46.624)" fill="none" stroke="#263238" stroke-linecap="round" stroke-linejoin="round" stroke-width="1"/>
          <path id="Path_2422" data-name="Path 2422" d="M804.128,224.5c18.369-18.159,46.613-46.949,53.6-58.981,10.584-18.215,27.527-66.953,27.527-66.953l65.4-72.7" transform="translate(-804.128 -25.865)" fill="none" stroke="#263238" stroke-linecap="round" stroke-linejoin="round" stroke-width="1"/>
          <path id="Path_2423" data-name="Path 2423" d="M931.081,90.41s10.044,9,12.867,17.183" transform="translate(-821.882 -34.891)" fill="none" stroke="#263238" stroke-linecap="round" stroke-linejoin="round" stroke-width="1"/>
        </g>
      </g>
      <g id="Group_2191" data-name="Group 2191" transform="translate(113.898 0)">
        <rect id="Rectangle_787" data-name="Rectangle 787" width="119.675" height="241.696" rx="6.728" fill="#263238"/>
        <path id="Path_2424" data-name="Path 2424" d="M1020.809-54.534l-2.285,4.2a2.86,2.86,0,0,1-2.512,1.492H978.152a2.86,2.86,0,0,1-2.512-1.492l-2.285-4.2a2.86,2.86,0,0,0-2.512-1.492h-26.43a2.86,2.86,0,0,0-2.859,2.86V173.1a2.859,2.859,0,0,0,2.859,2.859H1049.75a2.86,2.86,0,0,0,2.86-2.859V-53.166a2.86,2.86,0,0,0-2.86-2.86H1023.32A2.86,2.86,0,0,0,1020.809-54.534Z" transform="translate(-937.245 61.113)" fill="#ffcbce" stroke="#263238" stroke-linecap="round" stroke-linejoin="round" stroke-width="1"/>
        <g id="Group_2172" data-name="Group 2172" transform="translate(50.09 5.526)">
          <g id="Group_2171" data-name="Group 2171">
            <circle id="Ellipse_64" data-name="Ellipse 64" cx="1.544" cy="1.544" r="1.544" fill="none" stroke="#fff" stroke-width="1"/>
            <path id="Path_2425" data-name="Path 2425" d="M1017.131-53.877a.957.957,0,0,1-.956.956.956.956,0,0,1-.956-.956.956.956,0,0,1,.956-.956A.957.957,0,0,1,1017.131-53.877Z" transform="translate(-997.636 55.42)" fill="none" stroke="#fff" stroke-width="1"/>
          </g>
          <path id="Path_2426" data-name="Path 2426" d="M1010.837-54.418h-9.352a.6.6,0,0,0-.6.6h0a.6.6,0,0,0,.6.6h9.352a.6.6,0,0,0,.6-.6h0A.6.6,0,0,0,1010.837-54.418Z" transform="translate(-995.632 55.362)" fill="#fff"/>
        </g>
        <g id="Group_2175" data-name="Group 2175" transform="translate(13.809 8.882)">
          <g id="Group_2173" data-name="Group 2173" transform="translate(0 1.958)">
            <rect id="Rectangle_788" data-name="Rectangle 788" width="10.085" height="4.287" fill="none" stroke="#263238" stroke-linecap="round" stroke-linejoin="round" stroke-width="1"/>
            <rect id="Rectangle_789" data-name="Rectangle 789" width="1.565" height="2.844" transform="translate(10.085 0.722)" fill="none" stroke="#263238" stroke-linecap="round" stroke-linejoin="round" stroke-width="1"/>
          </g>
          <g id="Group_2174" data-name="Group 2174" transform="translate(79.795)">
            <rect id="Rectangle_790" data-name="Rectangle 790" width="1.79" height="1.554" transform="translate(0 4.691)" fill="none" stroke="#263238" stroke-linecap="round" stroke-linejoin="round" stroke-width="1"/>
            <rect id="Rectangle_791" data-name="Rectangle 791" width="1.79" height="3.118" transform="translate(3.491 3.128)" fill="none" stroke="#263238" stroke-linecap="round" stroke-linejoin="round" stroke-width="1"/>
            <rect id="Rectangle_792" data-name="Rectangle 792" width="1.79" height="4.682" transform="translate(6.982 1.564)" fill="none" stroke="#263238" stroke-linecap="round" stroke-linejoin="round" stroke-width="1"/>
            <rect id="Rectangle_793" data-name="Rectangle 793" width="1.79" height="6.246" transform="translate(10.473)" fill="none" stroke="#263238" stroke-linecap="round" stroke-linejoin="round" stroke-width="1"/>
          </g>
        </g>
        <rect id="Rectangle_794" data-name="Rectangle 794" width="109.617" height="104.548" transform="translate(5.029 55.09)" fill="#fff" opacity="0.5"/>
        <g id="Group_2176" data-name="Group 2176" transform="translate(28.786 34.768)">
          <path id="Path_2427" data-name="Path 2427" d="M976.531-17.873v1.82c0,2.241-1.08,3.46-3.281,3.46h-1.04v5.261h-2.2v-14h3.24C975.451-21.334,976.531-20.113,976.531-17.873Zm-4.321-1.461v4.74h1.04c.7,0,1.08-.32,1.08-1.319v-2.1c0-1-.38-1.32-1.08-1.32Z" transform="translate(-970.01 21.493)" fill="#263238"/>
          <path id="Path_2428" data-name="Path 2428" d="M985.5-7.332h-2.22l-.38-2.54h-2.7l-.38,2.54H977.8l2.24-14h3.22Zm-5.02-4.441h2.12l-1.041-7.081h-.04Z" transform="translate(-971.1 21.493)" fill="#263238"/>
          <path id="Path_2429" data-name="Path 2429" d="M988.747-11.972l-2.78-9.362h2.3l1.66,6.381h.04l1.66-6.381h2.1l-2.781,9.362v4.641h-2.2Z" transform="translate(-972.242 21.493)" fill="#263238"/>
          <path id="Path_2430" data-name="Path 2430" d="M1000.652-11.392h.04l1.48-9.942h3.06v14h-2.08V-17.373h-.04l-1.479,10.041h-2.081l-1.6-9.9h-.04v9.9h-1.92v-14h3.06Z" transform="translate(-973.643 21.493)" fill="#263238"/>
          <path id="Path_2431" data-name="Path 2431" d="M1010.8-15.432h3.02v2h-3.02v4.1h3.8v2h-6v-14h6v2h-3.8Z" transform="translate(-975.406 21.493)" fill="#263238"/>
          <path id="Path_2432" data-name="Path 2432" d="M1019.156-17.473h-.04V-7.332h-1.981v-14h2.76l2.221,8.381h.039v-8.381h1.96v14h-2.26Z" transform="translate(-976.6 21.493)" fill="#263238"/>
          <path id="Path_2433" data-name="Path 2433" d="M1026.346-21.334h6.8v2h-2.3v12h-2.2v-12h-2.3Z" transform="translate(-977.888 21.493)" fill="#263238"/>
          <path id="Path_2434" data-name="Path 2434" d="M1038.276-21.519c2.14,0,3.239,1.28,3.239,3.521v.44h-2.08v-.58c0-1-.4-1.381-1.1-1.381s-1.1.38-1.1,1.381c0,1.02.44,1.78,1.879,3.04,1.841,1.621,2.421,2.781,2.421,4.381,0,2.24-1.12,3.521-3.281,3.521s-3.28-1.281-3.28-3.521v-.86h2.08v1c0,1,.44,1.36,1.14,1.36s1.141-.36,1.141-1.36c0-1.02-.44-1.781-1.88-3.041-1.84-1.62-2.42-2.78-2.42-4.38C1035.035-20.239,1036.136-21.519,1038.276-21.519Z" transform="translate(-979.095 21.519)" fill="#263238"/>
        </g>
        <g id="Group_2187" data-name="Group 2187" transform="translate(13.809 61.416)">
          <rect id="Rectangle_795" data-name="Rectangle 795" width="92.058" height="13.757" transform="translate(0 6.338)" fill="#fff" stroke="#263238" stroke-linecap="round" stroke-linejoin="round" stroke-width="1"/>
          <rect id="Rectangle_796" data-name="Rectangle 796" width="92.058" height="13.757" transform="translate(0 32.14)" fill="#fff" stroke="#263238" stroke-linecap="round" stroke-linejoin="round" stroke-width="1"/>
          <rect id="Rectangle_797" data-name="Rectangle 797" width="92.058" height="13.757" transform="translate(0 55.596)" fill="#fff" stroke="#263238" stroke-linecap="round" stroke-linejoin="round" stroke-width="1"/>
          <rect id="Rectangle_798" data-name="Rectangle 798" width="43.581" height="16.102" transform="translate(0 74.361)" fill="#fff" stroke="#263238" stroke-linecap="round" stroke-linejoin="round" stroke-width="1"/>
          <rect id="Rectangle_799" data-name="Rectangle 799" width="43.581" height="16.102" transform="translate(48.476 74.361)" fill="#fff" stroke="#263238" stroke-linecap="round" stroke-linejoin="round" stroke-width="1"/>
          <g id="Group_2177" data-name="Group 2177" transform="translate(2.86 0)">
            <path id="Path_2435" data-name="Path 2435" d="M958.8,13.443v.372h-2.878V9.745h2.79v.372h-2.36v1.448h2.1v.366h-2.1v1.511Z" transform="translate(-955.923 -9.501)" fill="#263238"/>
            <path id="Path_2436" data-name="Path 2436" d="M965.389,12.2v1.774h-.413V12.244c0-.646-.325-.977-.877-.977a.983.983,0,0,0-1.024,1.1v1.605h-.413V12.244c0-.646-.325-.977-.883-.977a.985.985,0,0,0-1.024,1.1v1.605h-.413V10.917h.4v.558a1.235,1.235,0,0,1,1.122-.581,1.1,1.1,0,0,1,1.087.645,1.333,1.333,0,0,1,1.209-.645A1.154,1.154,0,0,1,965.389,12.2Z" transform="translate(-956.541 -9.661)" fill="#263238"/>
            <path id="Path_2437" data-name="Path 2437" d="M969.778,12.08v1.9h-.4V13.5a1.152,1.152,0,0,1-1.053.506c-.692,0-1.116-.36-1.116-.89,0-.471.3-.866,1.181-.866h.971v-.186c0-.524-.3-.809-.867-.809a1.557,1.557,0,0,0-1.018.36l-.186-.308a1.943,1.943,0,0,1,1.245-.413A1.087,1.087,0,0,1,969.778,12.08Zm-.413.977v-.5h-.96c-.593,0-.785.232-.785.546,0,.354.286.575.774.575A.98.98,0,0,0,969.365,13.057Z" transform="translate(-957.502 -9.661)" fill="#263238"/>
            <path id="Path_2438" data-name="Path 2438" d="M971.389,9.752a.3.3,0,0,1,.3-.291.293.293,0,0,1,.3.285.3.3,0,0,1-.6.006Zm.093.965h.413v3.059h-.413Z" transform="translate(-958.086 -9.461)" fill="#263238"/>
            <path id="Path_2439" data-name="Path 2439" d="M973.315,9.461h.413v4.315h-.413Z" transform="translate(-958.355 -9.461)" fill="#263238"/>
          </g>
          <g id="Group_2178" data-name="Group 2178" transform="translate(5.706 10.56)">
            <path id="Path_2440" data-name="Path 2440" d="M962.109,25.72v.372h-2.878v-4.07h2.79v.372h-2.36v1.448h2.1v.366h-2.1V25.72Z" transform="translate(-959.231 -21.778)" fill="#263238"/>
            <path id="Path_2441" data-name="Path 2441" d="M968.7,24.479v1.773h-.413V24.52c0-.645-.325-.977-.877-.977a.983.983,0,0,0-1.024,1.105v1.6h-.413V24.52c0-.645-.325-.977-.883-.977a.987.987,0,0,0-1.024,1.105v1.6h-.413V23.194h.4v.558a1.236,1.236,0,0,1,1.122-.581,1.1,1.1,0,0,1,1.088.645,1.329,1.329,0,0,1,1.208-.645A1.154,1.154,0,0,1,968.7,24.479Z" transform="translate(-959.849 -21.938)" fill="#263238"/>
            <path id="Path_2442" data-name="Path 2442" d="M973.085,24.357v1.895h-.395v-.477a1.148,1.148,0,0,1-1.053.506c-.692,0-1.116-.36-1.116-.889,0-.471.3-.867,1.181-.867h.971v-.186c0-.523-.3-.808-.867-.808a1.559,1.559,0,0,0-1.018.36l-.186-.308a1.943,1.943,0,0,1,1.245-.413A1.086,1.086,0,0,1,973.085,24.357Zm-.412.976v-.5h-.96c-.593,0-.785.232-.785.546,0,.355.286.576.774.576A.98.98,0,0,0,972.673,25.333Z" transform="translate(-960.81 -21.938)" fill="#263238"/>
            <path id="Path_2443" data-name="Path 2443" d="M974.7,22.029a.3.3,0,0,1,.3-.291.293.293,0,0,1,.3.285.3.3,0,0,1-.6.006Zm.094.965h.412v3.058h-.412Z" transform="translate(-961.394 -21.738)" fill="#263238"/>
            <path id="Path_2444" data-name="Path 2444" d="M976.623,21.738h.413v4.314h-.413Z" transform="translate(-961.663 -21.738)" fill="#263238"/>
            <path id="Path_2445" data-name="Path 2445" d="M981.255,24.479v1.773h-.413V24.52a.854.854,0,0,0-.919-.977,1,1,0,0,0-1.07,1.105v1.6h-.412V23.194h.395v.563A1.286,1.286,0,0,1,980,23.171,1.17,1.17,0,0,1,981.255,24.479Z" transform="translate(-961.917 -21.938)" fill="#263238"/>
            <path id="Path_2446" data-name="Path 2446" d="M985.282,24.357v1.895h-.4v-.477a1.148,1.148,0,0,1-1.053.506c-.692,0-1.116-.36-1.116-.889,0-.471.3-.867,1.18-.867h.971v-.186c0-.523-.3-.808-.866-.808a1.558,1.558,0,0,0-1.018.36l-.187-.308a1.945,1.945,0,0,1,1.245-.413A1.086,1.086,0,0,1,985.282,24.357Zm-.413.976v-.5h-.96c-.593,0-.784.232-.784.546,0,.355.285.576.773.576A.978.978,0,0,0,984.869,25.333Z" transform="translate(-962.516 -21.938)" fill="#263238"/>
            <path id="Path_2447" data-name="Path 2447" d="M992.049,24.479v1.773h-.413V24.52c0-.645-.325-.977-.877-.977a.983.983,0,0,0-1.024,1.105v1.6h-.413V24.52c0-.645-.326-.977-.884-.977a.987.987,0,0,0-1.024,1.105v1.6H987V23.194h.395v.558a1.237,1.237,0,0,1,1.122-.581,1.1,1.1,0,0,1,1.087.645,1.331,1.331,0,0,1,1.209-.645A1.154,1.154,0,0,1,992.049,24.479Z" transform="translate(-963.115 -21.938)" fill="#263238"/>
            <path id="Path_2448" data-name="Path 2448" d="M996.8,24.851h-2.558a1.132,1.132,0,0,0,1.2,1.064,1.2,1.2,0,0,0,.936-.4l.233.268a1.617,1.617,0,0,1-2.785-1.059,1.473,1.473,0,0,1,1.494-1.552,1.457,1.457,0,0,1,1.483,1.552C996.8,24.758,996.8,24.8,996.8,24.851Zm-2.558-.308h2.168a1.086,1.086,0,0,0-2.168,0Z" transform="translate(-964.069 -21.938)" fill="#263238"/>
            <path id="Path_2449" data-name="Path 2449" d="M1003.355,24.545c0,.988-.366,1.57-.965,1.57a.62.62,0,0,1-.657-.634,1.3,1.3,0,0,1-1.163.634,1.5,1.5,0,0,1,0-3,1.3,1.3,0,0,1,1.151.611v-.587h.378v2.2c0,.325.163.442.36.442.36,0,.594-.448.594-1.233a2.218,2.218,0,0,0-2.39-2.273,2.338,2.338,0,1,0-.023,4.675,2.562,2.562,0,0,0,1.116-.256l.1.285a2.823,2.823,0,0,1-1.215.268,2.635,2.635,0,1,1,.023-5.268A2.514,2.514,0,0,1,1003.355,24.545Zm-1.628.065a1.109,1.109,0,1,0-1.1,1.168A1.083,1.083,0,0,0,1001.727,24.61Z" transform="translate(-964.645 -21.772)" fill="#263238"/>
            <path id="Path_2450" data-name="Path 2450" d="M1007.858,24.851H1005.3a1.132,1.132,0,0,0,1.2,1.064,1.2,1.2,0,0,0,.936-.4l.233.268a1.617,1.617,0,0,1-2.785-1.059,1.473,1.473,0,0,1,1.494-1.552,1.457,1.457,0,0,1,1.483,1.552C1007.864,24.758,1007.858,24.8,1007.858,24.851Zm-2.558-.308h2.168a1.086,1.086,0,0,0-2.168,0Z" transform="translate(-965.616 -21.938)" fill="#263238"/>
            <path id="Path_2451" data-name="Path 2451" d="M1014.374,24.479v1.773h-.414V24.52c0-.645-.325-.977-.877-.977a.984.984,0,0,0-1.024,1.105v1.6h-.412V24.52c0-.645-.326-.977-.884-.977a.987.987,0,0,0-1.023,1.105v1.6h-.412V23.194h.395v.558a1.235,1.235,0,0,1,1.122-.581,1.1,1.1,0,0,1,1.088.645,1.331,1.331,0,0,1,1.209-.645A1.155,1.155,0,0,1,1014.374,24.479Z" transform="translate(-966.237 -21.938)" fill="#263238"/>
            <path id="Path_2452" data-name="Path 2452" d="M1018.762,24.357v1.895h-.4v-.477a1.149,1.149,0,0,1-1.053.506c-.691,0-1.116-.36-1.116-.889,0-.471.3-.867,1.181-.867h.971v-.186c0-.523-.3-.808-.867-.808a1.56,1.56,0,0,0-1.018.36l-.186-.308a1.945,1.945,0,0,1,1.245-.413A1.086,1.086,0,0,1,1018.762,24.357Zm-.412.976v-.5h-.961c-.593,0-.785.232-.785.546,0,.355.286.576.775.576A.98.98,0,0,0,1018.35,25.333Z" transform="translate(-967.198 -21.938)" fill="#263238"/>
            <path id="Path_2453" data-name="Path 2453" d="M1020.373,22.029a.3.3,0,0,1,.3-.291.293.293,0,0,1,.3.285.3.3,0,0,1-.3.3A.3.3,0,0,1,1020.373,22.029Zm.095.965h.411v3.058h-.411Z" transform="translate(-967.781 -21.738)" fill="#263238"/>
            <path id="Path_2454" data-name="Path 2454" d="M1022.3,21.738h.414v4.314h-.414Z" transform="translate(-968.051 -21.738)" fill="#263238"/>
            <path id="Path_2455" data-name="Path 2455" d="M1023.807,26.364a.308.308,0,0,1,.307-.314.313.313,0,0,1,.315.314.318.318,0,0,1-.315.32A.312.312,0,0,1,1023.807,26.364Z" transform="translate(-968.262 -22.341)" fill="#263238"/>
            <path id="Path_2456" data-name="Path 2456" d="M1025.09,24.723a1.505,1.505,0,0,1,1.576-1.552,1.335,1.335,0,0,1,1.2.6l-.309.209a1.04,1.04,0,0,0-.89-.453,1.192,1.192,0,0,0,0,2.383,1.035,1.035,0,0,0,.89-.447l.309.209a1.348,1.348,0,0,1-1.2.6A1.51,1.51,0,0,1,1025.09,24.723Z" transform="translate(-968.441 -21.938)" fill="#263238"/>
            <path id="Path_2457" data-name="Path 2457" d="M1028.833,24.723a1.556,1.556,0,1,1,1.559,1.559A1.5,1.5,0,0,1,1028.833,24.723Zm2.692,0a1.138,1.138,0,1,0-1.134,1.192A1.114,1.114,0,0,0,1031.525,24.723Z" transform="translate(-968.965 -21.938)" fill="#263238"/>
            <path id="Path_2458" data-name="Path 2458" d="M1038.474,24.479v1.773h-.412V24.52c0-.645-.326-.977-.878-.977a.983.983,0,0,0-1.023,1.105v1.6h-.414V24.52c0-.645-.326-.977-.883-.977a.985.985,0,0,0-1.023,1.105v1.6h-.414V23.194h.4v.558a1.237,1.237,0,0,1,1.123-.581,1.1,1.1,0,0,1,1.086.645,1.332,1.332,0,0,1,1.21-.645A1.154,1.154,0,0,1,1038.474,24.479Z" transform="translate(-969.607 -21.938)" fill="#263238"/>
          </g>
          <g id="Group_2179" data-name="Group 2179" transform="translate(5.171 38.038)">
            <path id="Path_2459" data-name="Path 2459" d="M959.876,54.735l.722.407-.134.244-.727-.424v.825h-.267l.006-.825-.727.424-.139-.244.727-.407-.727-.407.139-.25.727.43-.006-.825h.267v.825l.727-.43.134.25Z" transform="translate(-958.609 -53.683)" fill="#263238"/>
            <path id="Path_2460" data-name="Path 2460" d="M962.62,54.735l.721.407-.133.244-.728-.424v.825h-.268l.006-.825-.726.424-.14-.244.727-.407-.727-.407.14-.25.726.43-.006-.825h.268v.825l.728-.43.133.25Z" transform="translate(-958.993 -53.683)" fill="#263238"/>
            <path id="Path_2461" data-name="Path 2461" d="M965.363,54.735l.721.407-.133.244-.727-.424v.825h-.267l.005-.825-.726.424-.139-.244.726-.407-.726-.407.139-.25.726.43-.005-.825h.267v.825l.727-.43.133.25Z" transform="translate(-959.376 -53.683)" fill="#263238"/>
            <path id="Path_2462" data-name="Path 2462" d="M968.106,54.735l.721.407-.133.244-.727-.424v.825H967.7l.006-.825-.727.424-.139-.244.726-.407-.726-.407.139-.25.727.43-.006-.825h.268v.825l.727-.43.133.25Z" transform="translate(-959.76 -53.683)" fill="#263238"/>
            <path id="Path_2463" data-name="Path 2463" d="M970.849,54.735l.721.407-.133.244-.727-.424v.825h-.268l.006-.825-.727.424-.139-.244.727-.407-.727-.407.139-.25.727.43-.006-.825h.268v.825l.727-.43.133.25Z" transform="translate(-960.143 -53.683)" fill="#263238"/>
            <path id="Path_2464" data-name="Path 2464" d="M973.592,54.735l.722.407-.134.244-.727-.424v.825h-.267l.006-.825-.727.424-.139-.244.727-.407-.727-.407.139-.25.727.43-.006-.825h.267v.825l.727-.43.134.25Z" transform="translate(-960.527 -53.683)" fill="#263238"/>
            <path id="Path_2465" data-name="Path 2465" d="M976.335,54.735l.722.407-.134.244-.727-.424v.825h-.268l.006-.825-.727.424-.139-.244.727-.407-.727-.407.139-.25.727.43-.006-.825h.268v.825l.727-.43.134.25Z" transform="translate(-960.911 -53.683)" fill="#263238"/>
            <path id="Path_2466" data-name="Path 2466" d="M979.079,54.735l.721.407-.133.244-.728-.424v.825h-.268l.006-.825-.727.424-.139-.244.727-.407-.727-.407.139-.25.727.43-.006-.825h.268v.825l.728-.43.133.25Z" transform="translate(-961.294 -53.683)" fill="#263238"/>
            <path id="Path_2467" data-name="Path 2467" d="M981.822,54.735l.721.407-.133.244-.727-.424v.825h-.268l.005-.825-.726.424-.139-.244.726-.407-.726-.407.139-.25.726.43-.005-.825h.268v.825l.727-.43.133.25Z" transform="translate(-961.678 -53.683)" fill="#263238"/>
            <path id="Path_2468" data-name="Path 2468" d="M984.565,54.735l.721.407-.133.244-.727-.424v.825h-.268l.006-.825-.727.424-.139-.244.726-.407-.726-.407.139-.25.727.43-.006-.825h.268v.825l.727-.43.133.25Z" transform="translate(-962.062 -53.683)" fill="#263238"/>
            <path id="Path_2469" data-name="Path 2469" d="M987.308,54.735l.721.407-.133.244-.727-.424v.825H986.9l.006-.825-.727.424-.139-.244.727-.407-.727-.407.139-.25.727.43-.006-.825h.267v.825l.727-.43.133.25Z" transform="translate(-962.445 -53.683)" fill="#263238"/>
          </g>
          <g id="Group_2180" data-name="Group 2180" transform="translate(2.86 25.802)">
            <path id="Path_2470" data-name="Path 2470" d="M959.109,41.138c0,.866-.628,1.389-1.663,1.389h-1.093v1.285h-.43v-4.07h1.523C958.481,39.742,959.109,40.265,959.109,41.138Zm-.43,0c0-.652-.43-1.024-1.244-1.024h-1.082V42.15h1.082C958.249,42.15,958.679,41.777,958.679,41.138Z" transform="translate(-955.923 -39.498)" fill="#263238"/>
            <path id="Path_2471" data-name="Path 2471" d="M962.838,42.077v1.9h-.4V43.5a1.147,1.147,0,0,1-1.052.506c-.692,0-1.117-.36-1.117-.889,0-.471.3-.867,1.18-.867h.971V42.06c0-.524-.3-.809-.866-.809a1.56,1.56,0,0,0-1.018.36l-.186-.308a1.941,1.941,0,0,1,1.244-.413A1.086,1.086,0,0,1,962.838,42.077Zm-.413.977v-.5h-.959c-.594,0-.785.232-.785.546,0,.354.285.575.773.575A.979.979,0,0,0,962.425,43.054Z" transform="translate(-956.531 -39.658)" fill="#263238"/>
            <path id="Path_2472" data-name="Path 2472" d="M964.065,43.624l.186-.325a1.848,1.848,0,0,0,1.087.343c.581,0,.82-.2.82-.5,0-.8-1.983-.169-1.983-1.378,0-.5.43-.872,1.209-.872a2.068,2.068,0,0,1,1.081.286l-.18.331a1.564,1.564,0,0,0-.9-.261c-.552,0-.8.215-.8.506,0,.826,1.983.2,1.983,1.378,0,.529-.465.872-1.262.872A2.035,2.035,0,0,1,964.065,43.624Z" transform="translate(-957.062 -39.658)" fill="#263238"/>
            <path id="Path_2473" data-name="Path 2473" d="M967.369,43.624l.186-.325a1.848,1.848,0,0,0,1.087.343c.581,0,.821-.2.821-.5,0-.8-1.983-.169-1.983-1.378,0-.5.43-.872,1.209-.872a2.074,2.074,0,0,1,1.082.286l-.181.331a1.564,1.564,0,0,0-.9-.261c-.552,0-.8.215-.8.506,0,.826,1.984.2,1.984,1.378,0,.529-.465.872-1.262.872A2.038,2.038,0,0,1,967.369,43.624Z" transform="translate(-957.524 -39.658)" fill="#263238"/>
            <path id="Path_2474" data-name="Path 2474" d="M975.5,40.918l-1.157,3.059h-.391l-.965-2.506-.965,2.506h-.389l-1.152-3.059h.4l.959,2.6.983-2.6h.354l.976,2.6.971-2.6Z" transform="translate(-957.959 -39.662)" fill="#263238"/>
            <path id="Path_2475" data-name="Path 2475" d="M976.579,42.444A1.556,1.556,0,1,1,978.138,44,1.5,1.5,0,0,1,976.579,42.444Zm2.692,0a1.138,1.138,0,1,0-1.134,1.192A1.116,1.116,0,0,0,979.271,42.444Z" transform="translate(-958.812 -39.658)" fill="#263238"/>
            <path id="Path_2476" data-name="Path 2476" d="M982.716,40.891v.4c-.035,0-.07-.006-.1-.006a.989.989,0,0,0-1.03,1.128v1.559h-.412V40.914h.395v.6A1.153,1.153,0,0,1,982.716,40.891Z" transform="translate(-959.454 -39.658)" fill="#263238"/>
            <path id="Path_2477" data-name="Path 2477" d="M986.537,39.458v4.315h-.4v-.6a1.325,1.325,0,0,1-1.18.634,1.556,1.556,0,0,1,0-3.111,1.336,1.336,0,0,1,1.163.606V39.458Zm-.408,2.785A1.138,1.138,0,1,0,985,43.435,1.119,1.119,0,0,0,986.129,42.243Z" transform="translate(-959.771 -39.458)" fill="#263238"/>
          </g>
          <g id="Group_2181" data-name="Group 2181" transform="translate(34.364 60.921)">
            <path id="Path_2478" data-name="Path 2478" d="M993.927,80.327V84.4h-.419V80.7h-.959v-.372Z" transform="translate(-992.549 -80.293)" fill="#263238"/>
            <path id="Path_2479" data-name="Path 2479" d="M998.026,84.019v.372h-2.855v-.3l1.692-1.658c.459-.452.546-.726.546-1,0-.471-.331-.762-.954-.762a1.383,1.383,0,0,0-1.11.453l-.3-.255a1.827,1.827,0,0,1,1.442-.581c.826,0,1.349.418,1.349,1.1a1.676,1.676,0,0,1-.668,1.274l-1.384,1.36Z" transform="translate(-992.899 -80.287)" fill="#263238"/>
            <path id="Path_2480" data-name="Path 2480" d="M1001.768,83.228c0,.68-.494,1.2-1.477,1.2a2.115,2.115,0,0,1-1.465-.523l.2-.331a1.784,1.784,0,0,0,1.262.471c.674,0,1.047-.314,1.047-.82,0-.488-.343-.808-1.1-.808h-.292v-.309l1.129-1.412h-2.082v-.372h2.617v.3l-1.152,1.448C1001.332,82.118,1001.768,82.577,1001.768,83.228Z" transform="translate(-993.427 -80.293)" fill="#263238"/>
            <path id="Path_2481" data-name="Path 2481" d="M1006.375,83.327h-.814V84.4h-.419v-1.07h-2.3v-.3l2.157-2.7h.464l-2.082,2.629h1.768v-.943h.407v.943h.814Z" transform="translate(-993.989 -80.293)" fill="#263238"/>
            <path id="Path_2482" data-name="Path 2482" d="M1011.9,83.2c0,.692-.483,1.233-1.477,1.233a2.1,2.1,0,0,1-1.46-.523l.2-.331a1.762,1.762,0,0,0,1.25.471c.692,0,1.058-.337,1.058-.831,0-.523-.326-.849-1.361-.849h-.866l.21-2.041h2.226V80.7h-1.861l-.139,1.3h.524C1011.432,82,1011.9,82.479,1011.9,83.2Z" transform="translate(-994.844 -80.293)" fill="#263238"/>
            <path id="Path_2483" data-name="Path 2483" d="M1016.046,83.176a1.267,1.267,0,0,1-1.389,1.25c-1.082,0-1.668-.75-1.668-2.034,0-1.384.756-2.1,1.86-2.1a1.875,1.875,0,0,1,.966.22l-.169.337a1.425,1.425,0,0,0-.79-.192c-.879,0-1.443.564-1.443,1.67,0,.093.007.209.018.331a1.3,1.3,0,0,1,1.245-.7A1.232,1.232,0,0,1,1016.046,83.176Zm-.412.012c0-.535-.4-.878-1.024-.878a.942.942,0,0,0-1.046.889c0,.448.372.872,1.076.872A.891.891,0,0,0,1015.634,83.188Z" transform="translate(-995.407 -80.287)" fill="#263238"/>
            <path id="Path_2484" data-name="Path 2484" d="M1019.9,80.327v.3l-1.7,3.773h-.453l1.674-3.7h-2.093v.761h-.413V80.327Z" transform="translate(-995.956 -80.293)" fill="#263238"/>
            <path id="Path_2485" data-name="Path 2485" d="M1024.025,83.258c0,.721-.611,1.168-1.581,1.168s-1.571-.447-1.571-1.168a1.016,1.016,0,0,1,.785-1,.917.917,0,0,1-.639-.9c0-.663.563-1.075,1.424-1.075s1.436.412,1.436,1.075a.922.922,0,0,1-.651.9A1.026,1.026,0,0,1,1024.025,83.258Zm-.43-.006c0-.5-.43-.815-1.151-.815s-1.145.315-1.145.815.424.82,1.145.82S1023.594,83.758,1023.594,83.252Zm-1.151-1.146c.634,0,1.012-.285,1.012-.726,0-.46-.4-.739-1.012-.739s-1.005.279-1.005.733S1021.809,82.106,1022.444,82.106Z" transform="translate(-996.51 -80.287)" fill="#263238"/>
            <path id="Path_2486" data-name="Path 2486" d="M1029.9,82.322c0,1.383-.755,2.1-1.861,2.1a1.872,1.872,0,0,1-.965-.22l.169-.337a1.429,1.429,0,0,0,.791.192c.877,0,1.442-.564,1.442-1.669,0-.094-.006-.21-.018-.331a1.3,1.3,0,0,1-1.244.7,1.232,1.232,0,0,1-1.372-1.221,1.267,1.267,0,0,1,1.389-1.25C1029.31,80.287,1029.9,81.037,1029.9,82.322Zm-.576-.809c0-.448-.372-.872-1.075-.872a.891.891,0,0,0-.994.883c0,.536.4.878,1.023.878A.942.942,0,0,0,1029.322,81.514Z" transform="translate(-997.344 -80.287)" fill="#263238"/>
            <path id="Path_2487" data-name="Path 2487" d="M1032.171,80.327V84.4h-.419V80.7h-.96v-.372Z" transform="translate(-997.897 -80.293)" fill="#263238"/>
            <path id="Path_2488" data-name="Path 2488" d="M1033.523,82.357c0-1.3.68-2.07,1.622-2.07s1.627.773,1.627,2.07-.686,2.07-1.627,2.07S1033.523,83.654,1033.523,82.357Zm2.82,0c0-1.087-.488-1.686-1.2-1.686s-1.2.6-1.2,1.686.489,1.686,1.2,1.686S1036.343,83.444,1036.343,82.357Z" transform="translate(-998.279 -80.287)" fill="#263238"/>
            <path id="Path_2489" data-name="Path 2489" d="M1039.069,80.327V84.4h-.419V80.7h-.959v-.372Z" transform="translate(-998.862 -80.293)" fill="#263238"/>
            <path id="Path_2490" data-name="Path 2490" d="M1043.279,80.327V84.4h-.419V80.7h-.959v-.372Z" transform="translate(-999.451 -80.293)" fill="#263238"/>
            <path id="Path_2491" data-name="Path 2491" d="M1045.718,80.327V84.4h-.42V80.7h-.959v-.372Z" transform="translate(-999.792 -80.293)" fill="#263238"/>
            <path id="Path_2492" data-name="Path 2492" d="M1049.817,84.019v.372h-2.855v-.3l1.692-1.658c.459-.452.546-.726.546-1,0-.471-.331-.762-.953-.762a1.38,1.38,0,0,0-1.11.453l-.3-.255a1.826,1.826,0,0,1,1.442-.581c.826,0,1.349.418,1.349,1.1a1.673,1.673,0,0,1-.668,1.274l-1.383,1.36Z" transform="translate(-1000.141 -80.287)" fill="#263238"/>
            <path id="Path_2493" data-name="Path 2493" d="M1051.995,80.327V84.4h-.419V80.7h-.959v-.372Z" transform="translate(-1000.67 -80.293)" fill="#263238"/>
          </g>
          <g id="Group_2182" data-name="Group 2182" transform="translate(3.95 58.321)">
            <path id="Path_2494" data-name="Path 2494" d="M970.336,78.965v-.618a1.083,1.083,0,0,0-1.083-1.082h-10.98a1.082,1.082,0,0,0-1.083,1.082v.618Z" transform="translate(-957.19 -77.264)" fill="#263238"/>
            <path id="Path_2495" data-name="Path 2495" d="M957.19,80.23v4.562a1.082,1.082,0,0,0,1.083,1.083h10.98a1.083,1.083,0,0,0,1.083-1.083V80.23Z" transform="translate(-957.19 -77.679)" fill="#263238"/>
          </g>
          <g id="Group_2183" data-name="Group 2183" transform="translate(4.114 82.023)">
            <path id="Path_2496" data-name="Path 2496" d="M957.38,107.808c0-1.3.68-2.07,1.621-2.07s1.629.774,1.629,2.07-.686,2.07-1.629,2.07S957.38,109.1,957.38,107.808Zm2.82,0c0-1.087-.489-1.687-1.2-1.687s-1.2.6-1.2,1.687.489,1.686,1.2,1.686S960.2,108.9,960.2,107.808Z" transform="translate(-957.38 -104.948)" fill="#263238"/>
            <path id="Path_2497" data-name="Path 2497" d="M964.978,108.709c0,.722-.611,1.169-1.582,1.169s-1.57-.447-1.57-1.169a1.015,1.015,0,0,1,.784-1,.918.918,0,0,1-.639-.9c0-.663.563-1.076,1.424-1.076s1.436.413,1.436,1.076a.922.922,0,0,1-.652.9A1.025,1.025,0,0,1,964.978,108.709Zm-.431-.005c0-.5-.43-.814-1.151-.814s-1.146.313-1.146.814.425.82,1.146.82S964.547,109.21,964.547,108.7Zm-1.151-1.146c.634,0,1.012-.285,1.012-.727,0-.459-.4-.738-1.012-.738s-1.006.279-1.006.732S962.762,107.558,963.4,107.558Z" transform="translate(-958.002 -104.948)" fill="#263238"/>
            <path id="Path_2498" data-name="Path 2498" d="M967.561,104.819h.378l-1.919,5.477h-.378Z" transform="translate(-958.535 -104.819)" fill="#263238"/>
            <path id="Path_2499" data-name="Path 2499" d="M971.174,109.471v.372h-2.855v-.3l1.692-1.657c.459-.454.547-.728.547-1.006,0-.471-.331-.762-.954-.762a1.381,1.381,0,0,0-1.11.454l-.3-.256a1.83,1.83,0,0,1,1.442-.581c.826,0,1.35.419,1.35,1.1a1.673,1.673,0,0,1-.669,1.273l-1.383,1.361Z" transform="translate(-958.893 -104.948)" fill="#263238"/>
            <path id="Path_2500" data-name="Path 2500" d="M975,108.651c0,.692-.483,1.233-1.477,1.233a2.1,2.1,0,0,1-1.46-.523l.2-.331a1.766,1.766,0,0,0,1.25.471c.692,0,1.058-.337,1.058-.831,0-.524-.325-.849-1.36-.849h-.867l.21-2.041h2.226v.372h-1.86l-.139,1.3h.524C974.533,107.448,975,107.93,975,108.651Z" transform="translate(-959.433 -104.953)" fill="#263238"/>
          </g>
          <g id="Group_2184" data-name="Group 2184" transform="translate(4.222 77.931)">
            <path id="Path_2501" data-name="Path 2501" d="M959.293,102.358v.231h-1.787v-2.527h1.732v.231h-1.465v.9h1.307v.228h-1.307v.938Z" transform="translate(-957.506 -100.062)" fill="#263238"/>
            <path id="Path_2502" data-name="Path 2502" d="M961.806,102.589l-.815-1.112-.812,1.112h-.307l.961-1.3-.9-1.227h.307L961,101.1l.758-1.033h.289l-.9,1.221.963,1.307Z" transform="translate(-957.837 -100.062)" fill="#263238"/>
            <path id="Path_2503" data-name="Path 2503" d="M964.913,100.929c0,.538-.39.863-1.032.863H963.2v.8h-.268v-2.527h.946C964.524,100.062,964.913,100.387,964.913,100.929Zm-.267,0c0-.405-.267-.636-.772-.636H963.2v1.264h.671C964.379,101.557,964.646,101.326,964.646,100.929Z" transform="translate(-958.265 -100.062)" fill="#263238"/>
            <path id="Path_2504" data-name="Path 2504" d="M967.053,100.062h1.029a1.267,1.267,0,1,1,0,2.527h-1.029Zm1.014,2.3a1.035,1.035,0,1,0,0-2.064h-.747v2.064Z" transform="translate(-958.841 -100.062)" fill="#263238"/>
            <path id="Path_2505" data-name="Path 2505" d="M971.868,101.512v1.177h-.245v-.3a.715.715,0,0,1-.654.314c-.429,0-.692-.224-.692-.552,0-.292.188-.538.732-.538h.6V101.5c0-.325-.184-.5-.538-.5a.967.967,0,0,0-.631.224l-.116-.191a1.2,1.2,0,0,1,.772-.256A.674.674,0,0,1,971.868,101.512Zm-.256.606v-.311h-.6c-.368,0-.488.145-.488.339,0,.22.177.358.48.358A.608.608,0,0,0,971.612,102.119Z" transform="translate(-959.292 -100.162)" fill="#263238"/>
            <path id="Path_2506" data-name="Path 2506" d="M973.891,102.509a.607.607,0,0,1-.4.133.5.5,0,0,1-.556-.552v-1.148h-.34v-.216h.34v-.415h.255v.415h.578v.216h-.578v1.134a.3.3,0,0,0,.328.347.424.424,0,0,0,.281-.1Z" transform="translate(-959.616 -100.097)" fill="#263238"/>
            <path id="Path_2507" data-name="Path 2507" d="M976.189,101.819H974.6a.7.7,0,0,0,.747.661.748.748,0,0,0,.581-.249l.145.166a1,1,0,0,1-1.729-.657.915.915,0,0,1,.928-.963.9.9,0,0,1,.92.963C976.193,101.761,976.189,101.79,976.189,101.819Zm-1.589-.192h1.346a.674.674,0,0,0-1.346,0Z" transform="translate(-959.861 -100.162)" fill="#263238"/>
          </g>
          <g id="Group_2185" data-name="Group 2185" transform="translate(50.776 82.813)">
            <path id="Path_2508" data-name="Path 2508" d="M1013.007,105.779v4.07h-.419v-3.7h-.959v-.372Z" transform="translate(-1011.629 -105.744)" fill="#263238"/>
            <path id="Path_2509" data-name="Path 2509" d="M1017.106,109.471v.372h-2.855v-.3l1.692-1.657c.459-.454.546-.728.546-1.006,0-.471-.33-.762-.954-.762a1.381,1.381,0,0,0-1.11.454l-.3-.256a1.83,1.83,0,0,1,1.442-.581c.826,0,1.349.419,1.349,1.1a1.675,1.675,0,0,1-.668,1.273l-1.384,1.361Z" transform="translate(-1011.979 -105.738)" fill="#263238"/>
            <path id="Path_2510" data-name="Path 2510" d="M1020.849,108.68c0,.68-.495,1.2-1.477,1.2a2.111,2.111,0,0,1-1.465-.523l.2-.331a1.784,1.784,0,0,0,1.262.471c.673,0,1.047-.314,1.047-.82,0-.489-.344-.809-1.1-.809h-.292v-.308l1.128-1.413h-2.082v-.372h2.617v.3l-1.152,1.449C1020.412,107.57,1020.849,108.029,1020.849,108.68Z" transform="translate(-1012.507 -105.744)" fill="#263238"/>
          </g>
          <g id="Group_2186" data-name="Group 2186" transform="translate(50.911 77.909)">
            <path id="Path_2511" data-name="Path 2511" d="M1011.786,101.322a1.269,1.269,0,0,1,1.326-1.285,1.226,1.226,0,0,1,.924.368l-.17.169a1,1,0,0,0-.747-.3,1.047,1.047,0,1,0,0,2.094.994.994,0,0,0,.747-.3l.17.169a1.232,1.232,0,0,1-.928.372A1.268,1.268,0,0,1,1011.786,101.322Z" transform="translate(-1011.786 -100.037)" fill="#263238"/>
            <path id="Path_2512" data-name="Path 2512" d="M1018.458,100.062l-.852,2.527h-.283l-.739-2.155-.744,2.155h-.277l-.852-2.527h.274l.729,2.174.754-2.174h.249l.745,2.184.739-2.184Z" transform="translate(-1012.195 -100.04)" fill="#263238"/>
          </g>
        </g>
        <g id="Group_2188" data-name="Group 2188" transform="translate(40.191 166.969)">
          <path id="Path_2513" data-name="Path 2513" d="M986.473,135.442H984.2l-.489,1.087h-.447l1.861-4.07h.424l1.861,4.07h-.453Zm-.157-.349-.977-2.186-.977,2.186Z" transform="translate(-983.269 -132.215)" fill="#263238"/>
          <path id="Path_2514" data-name="Path 2514" d="M988.377,135.161a1.506,1.506,0,0,1,1.576-1.553,1.335,1.335,0,0,1,1.2.6l-.307.209a1.044,1.044,0,0,0-.89-.452,1.192,1.192,0,0,0,0,2.383,1.039,1.039,0,0,0,.89-.447l.307.209a1.347,1.347,0,0,1-1.2.6A1.511,1.511,0,0,1,988.377,135.161Z" transform="translate(-983.983 -132.375)" fill="#263238"/>
          <path id="Path_2515" data-name="Path 2515" d="M994.113,136.4a.976.976,0,0,1-.645.216.81.81,0,0,1-.9-.889v-1.85h-.546v-.348h.546v-.668h.413v.668h.931v.348h-.931V135.7a.49.49,0,0,0,.529.558.685.685,0,0,0,.454-.157Z" transform="translate(-984.494 -132.271)" fill="#263238"/>
          <path id="Path_2516" data-name="Path 2516" d="M995.215,132.466a.3.3,0,0,1,.3-.291.293.293,0,0,1,.3.285.3.3,0,0,1-.6.006Zm.094.965h.412v3.059h-.412Z" transform="translate(-984.94 -132.175)" fill="#263238"/>
          <path id="Path_2517" data-name="Path 2517" d="M996.783,135.161a1.555,1.555,0,1,1,1.558,1.559A1.5,1.5,0,0,1,996.783,135.161Zm2.691,0a1.138,1.138,0,1,0-1.134,1.192A1.114,1.114,0,0,0,999.474,135.161Z" transform="translate(-985.159 -132.375)" fill="#263238"/>
          <path id="Path_2518" data-name="Path 2518" d="M1004.192,134.916v1.774h-.413v-1.733a.854.854,0,0,0-.919-.977,1,1,0,0,0-1.07,1.106v1.6h-.412v-3.059h.395v.564a1.287,1.287,0,0,1,1.163-.587A1.171,1.171,0,0,1,1004.192,134.916Z" transform="translate(-985.801 -132.375)" fill="#263238"/>
          <path id="Path_2519" data-name="Path 2519" d="M1008.255,132.831v1.6h2.1v.372h-2.1v1.727h-.431v-4.07h2.791v.372Z" transform="translate(-986.703 -132.215)" fill="#263238"/>
          <path id="Path_2520" data-name="Path 2520" d="M1011.824,132.466a.3.3,0,0,1,.3-.291.294.294,0,0,1,.3.285.3.3,0,0,1-.6.006Zm.093.965h.412v3.059h-.412Z" transform="translate(-987.262 -132.175)" fill="#263238"/>
          <path id="Path_2521" data-name="Path 2521" d="M1016.531,133.631v2.686a1.341,1.341,0,0,1-1.529,1.529,2.133,2.133,0,0,1-1.424-.47l.208-.315a1.823,1.823,0,0,0,1.2.419c.773,0,1.128-.354,1.128-1.11v-.389a1.378,1.378,0,0,1-1.191.593,1.484,1.484,0,1,1,0-2.966,1.38,1.38,0,0,1,1.208.611v-.587Zm-.4,1.455a1.161,1.161,0,1,0-1.163,1.121A1.093,1.093,0,0,0,1016.13,135.086Z" transform="translate(-987.481 -132.375)" fill="#263238"/>
          <path id="Path_2522" data-name="Path 2522" d="M1021.135,133.635v3.059h-.395v-.558a1.218,1.218,0,0,1-1.1.587,1.186,1.186,0,0,1-1.292-1.314v-1.774h.413v1.733a.856.856,0,0,0,.919.982,1,1,0,0,0,1.041-1.11v-1.605Z" transform="translate(-988.175 -132.379)" fill="#263238"/>
          <path id="Path_2523" data-name="Path 2523" d="M1024.473,133.608v.4c-.035,0-.07-.006-.1-.006a.99.99,0,0,0-1.03,1.128v1.559h-.412v-3.059h.395v.6A1.156,1.156,0,0,1,1024.473,133.608Z" transform="translate(-988.816 -132.375)" fill="#263238"/>
          <path id="Path_2524" data-name="Path 2524" d="M1028.167,135.289h-2.558a1.131,1.131,0,0,0,1.2,1.064,1.206,1.206,0,0,0,.936-.4l.232.268a1.616,1.616,0,0,1-2.784-1.058,1.473,1.473,0,0,1,1.494-1.553,1.458,1.458,0,0,1,1.483,1.553C1028.173,135.2,1028.167,135.241,1028.167,135.289Zm-2.558-.308h2.168a1.086,1.086,0,0,0-2.168,0Z" transform="translate(-989.132 -132.375)" fill="#263238"/>
        </g>
        <g id="Group_2189" data-name="Group 2189" transform="translate(39.649 174.38)">
          <path id="Path_2525" data-name="Path 2525" d="M988.214,154.017v1.789h-1.6v-1.741a7.567,7.567,0,0,1-3.977-1.277l.879-1.949a6.437,6.437,0,0,0,3.1,1.134v-2.666c-1.773-.432-3.754-1.023-3.754-3.307,0-1.693,1.23-3.146,3.754-3.434v-1.774h1.6v1.742a7.212,7.212,0,0,1,3.243.975l-.8,1.965a6.524,6.524,0,0,0-2.444-.831v2.715c1.773.415,3.722,1.006,3.722,3.258C991.936,152.276,990.722,153.714,988.214,154.017Zm-1.6-7.06v-2.267c-.846.191-1.182.655-1.182,1.182C985.434,146.43,985.914,146.734,986.616,146.957Zm2.747,3.85c0-.559-.464-.863-1.15-1.1v2.2C989.012,151.733,989.364,151.318,989.364,150.807Z" transform="translate(-982.639 -140.791)" fill="#263238"/>
          <path id="Path_2526" data-name="Path 2526" d="M1002.945,152.062v2.108h-8.45v-1.677l4.313-4.074c.991-.942,1.166-1.516,1.166-2.06,0-.878-.606-1.389-1.789-1.389a2.732,2.732,0,0,0-2.315,1.117l-1.885-1.214a5.2,5.2,0,0,1,4.441-2.076c2.492,0,4.153,1.278,4.153,3.306,0,1.086-.3,2.076-1.869,3.53l-2.572,2.428Z" transform="translate(-984.226 -141.072)" fill="#263238"/>
          <path id="Path_2527" data-name="Path 2527" d="M1005.608,148.58c0-3.69,2.045-5.783,4.793-5.783s4.791,2.093,4.791,5.783-2.028,5.782-4.791,5.782S1005.608,152.269,1005.608,148.58Zm6.98,0c0-2.54-.894-3.595-2.187-3.595-1.278,0-2.173,1.055-2.173,3.595s.895,3.594,2.173,3.594C1011.694,152.174,1012.588,151.119,1012.588,148.58Z" transform="translate(-985.851 -141.072)" fill="#263238"/>
          <path id="Path_2528" data-name="Path 2528" d="M1018.217,148.58c0-3.69,2.045-5.783,4.791-5.783,2.764,0,4.793,2.093,4.793,5.783s-2.029,5.782-4.793,5.782C1020.262,154.362,1018.217,152.269,1018.217,148.58Zm6.98,0c0-2.54-.9-3.595-2.189-3.595-1.277,0-2.172,1.055-2.172,3.595s.895,3.594,2.172,3.594C1024.3,152.174,1025.2,151.119,1025.2,148.58Z" transform="translate(-987.614 -141.072)" fill="#263238"/>
        </g>
        <path id="Path_2529" data-name="Path 2529" d="M1019.684,186.407H984.025a8.346,8.346,0,0,1-8.345-8.345h0a8.346,8.346,0,0,1,8.345-8.345h35.658a8.346,8.346,0,0,1,8.345,8.345h0A8.346,8.346,0,0,1,1019.684,186.407Z" transform="translate(-942.017 29.544)" fill="#263238"/>
        <g id="Group_2190" data-name="Group 2190" transform="translate(44.552 204.194)">
          <path id="Path_2530" data-name="Path 2530" d="M992.18,178.112c0,1.044-.757,1.675-2,1.675h-1.318v1.549h-.519V176.43h1.836C991.423,176.43,992.18,177.06,992.18,178.112Zm-.519,0c0-.785-.519-1.233-1.5-1.233h-1.3v2.453h1.3C991.142,179.332,991.661,178.884,991.661,178.112Z" transform="translate(-988.339 -175.59)" fill="#fff"/>
          <path id="Path_2531" data-name="Path 2531" d="M996.677,179.246v2.285H996.2v-.575a1.382,1.382,0,0,1-1.268.61c-.834,0-1.346-.435-1.346-1.073,0-.568.365-1.044,1.423-1.044h1.171v-.224c0-.631-.358-.975-1.044-.975a1.876,1.876,0,0,0-1.227.434l-.224-.372a2.345,2.345,0,0,1,1.5-.5A1.31,1.31,0,0,1,996.677,179.246Zm-.5,1.178v-.6h-1.156c-.715,0-.946.28-.946.659,0,.427.343.693.932.693A1.179,1.179,0,0,0,996.179,180.423Z" transform="translate(-989.073 -175.783)" fill="#fff"/>
          <path id="Path_2532" data-name="Path 2532" d="M1001.627,177.848l-1.843,4.129c-.308.722-.7.952-1.227.952a1.261,1.261,0,0,1-.9-.335l.231-.372a.92.92,0,0,0,.673.28c.33,0,.554-.154.764-.617l.162-.357-1.647-3.68h.519l1.388,3.134,1.387-3.134Z" transform="translate(-989.643 -175.788)" fill="#fff"/>
          <path id="Path_2533" data-name="Path 2533" d="M1006.824,181.235v.806h-.35v-.8a2.633,2.633,0,0,1-1.676-.637l.2-.4a2.393,2.393,0,0,0,1.472.589V178.95c-.772-.19-1.556-.427-1.556-1.353,0-.674.483-1.254,1.556-1.338v-.806h.35v.8a2.751,2.751,0,0,1,1.423.435l-.175.414a2.6,2.6,0,0,0-1.248-.407v1.857c.793.189,1.626.414,1.626,1.352C1008.449,180.583,1007.938,181.172,1006.824,181.235Zm-.35-2.775v-1.752c-.722.063-1.044.434-1.044.876C1005.429,178.116,1005.9,178.312,1006.474,178.46Zm1.465,1.472c0-.554-.512-.744-1.115-.891v1.753C1007.594,180.737,1007.938,180.38,1007.938,179.932Z" transform="translate(-990.641 -175.453)" fill="#fff"/>
          <path id="Path_2534" data-name="Path 2534" d="M1013.161,180.881v.448h-3.441v-.358l2.04-2c.553-.546.658-.876.658-1.212,0-.568-.4-.919-1.149-.919a1.666,1.666,0,0,0-1.338.547l-.358-.308a2.2,2.2,0,0,1,1.738-.7c1,0,1.626.5,1.626,1.325a2.021,2.021,0,0,1-.807,1.535l-1.668,1.64Z" transform="translate(-991.308 -175.583)" fill="#fff"/>
          <path id="Path_2535" data-name="Path 2535" d="M1014.446,178.877c0-1.564.82-2.5,1.955-2.5s1.962.932,1.962,2.5-.827,2.494-1.962,2.494S1014.446,180.439,1014.446,178.877Zm3.4,0c0-1.312-.588-2.033-1.443-2.033s-1.444.722-1.444,2.033.589,2.032,1.444,2.032S1017.844,180.187,1017.844,178.877Z" transform="translate(-991.99 -175.583)" fill="#fff"/>
          <path id="Path_2536" data-name="Path 2536" d="M1019.84,178.877c0-1.564.82-2.5,1.956-2.5s1.962.932,1.962,2.5-.828,2.494-1.962,2.494S1019.84,180.439,1019.84,178.877Zm3.4,0c0-1.312-.588-2.033-1.443-2.033s-1.445.722-1.445,2.033.589,2.032,1.445,2.032S1023.239,180.187,1023.239,178.877Z" transform="translate(-992.744 -175.583)" fill="#fff"/>
        </g>
      </g>
      <g id="Group_2193" data-name="Group 2193" transform="translate(53.603 43.299)">
        <path id="Path_2537" data-name="Path 2537" d="M932.619,134.785c1.29,19.828-7.9,41.908-7.9,41.908L875.1,162.721l-8.656-2.439c8.585-11.954,12.7-35.481,10.454-54.528-.172-1.439-.281-2.791-.352-4.074-.821-15.708,5.661-20.306,11.18-27.248,5.982-7.514,19.422-35.9,19.422-42.621s16.81-23.159,13.073-41.83c0,0,5.083-3.151,10.2-.563,2.315,1.172,4.637,3.518,6.5,7.865,4.378,10.235-1.767,39.14-7,46.232l-10.071,41.7a89.26,89.26,0,0,1,6.732,16.489A141.816,141.816,0,0,1,932.619,134.785Z" transform="translate(-866.446 11.602)" fill="#fff"/>
        <path id="Path_2538" data-name="Path 2538" d="M876.551,120.1c2.807,7.694,5.793,12.862,5.535,23.683s-6.028,27.39-4.378,36.014a7.607,7.607,0,0,0-2.6,1.344l-8.656-2.439c8.585-11.954,12.7-35.481,10.454-54.528C876.73,122.733,876.621,121.38,876.551,120.1Z" transform="translate(-866.446 -6.816)" fill="#000f39"/>
        <path id="Path_2539" data-name="Path 2539" d="M937.651,43.683l-10.071,41.7a89.26,89.26,0,0,1,6.732,16.489c-.008-.008-.008-.015-.016-.023-6.81-10.993-12.573-14.254-12.573-14.254,4.543-5.45,8.046-45.271,8.046-45.271S944.008,25.59,942.64,8.083a56.048,56.048,0,0,0-4.488-18.5c2.315,1.172,4.637,3.518,6.5,7.865C949.027,7.685,942.882,36.591,937.651,43.683Z" transform="translate(-874.176 11.436)" fill="#000f39"/>
        <g id="Group_2192" data-name="Group 2192" transform="translate(0 0.002)">
          <path id="Path_2540" data-name="Path 2540" d="M866.446,160.28c8.59-11.951,12.7-35.479,10.457-54.525s4.856-23.813,10.83-31.327,19.421-35.9,19.421-42.618,16.806-23.154,13.071-41.828c0,0,10.73-6.647,16.695,7.305,4.375,10.234-1.768,39.134-7,46.23l-10.072,41.7s10.749,18.534,12.766,49.572c1.288,19.827-7.9,41.908-7.9,41.908" transform="translate(-866.446 11.6)" fill="none" stroke="#263238" stroke-linecap="round" stroke-linejoin="round" stroke-width="1"/>
          <path id="Path_2541" data-name="Path 2541" d="M905.012,225.752s11.293,6.955,17.881,17.947" transform="translate(-871.839 -21.593)" fill="none" stroke="#263238" stroke-linecap="round" stroke-linejoin="round" stroke-width="1"/>
          <path id="Path_2542" data-name="Path 2542" d="M934.543,235.1s-9.728,1.382-18.521-9.131c-5.637-6.739-22.744-9.784-26.684-27.4" transform="translate(-869.647 -17.791)" fill="none" stroke="#263238" stroke-linecap="round" stroke-linejoin="round" stroke-width="1"/>
        </g>
      </g>
    </g>
    <g id="Group_2197" data-name="Group 2197" transform="translate(984.095 28.247)">
      <path id="Path_2543" data-name="Path 2543" d="M1093.85,267.1c-24.9-11.911-9.817-21.457-44.078-36.244s-34.609-27.418-30.475-56.48.849-59.954,10.822-62.577-7.8-42.7,3.816-56.867L1091.087,166.1Z" transform="translate(-1017.497 -49.321)" fill="rgba(0,0,0,0.7)" opacity="0.2"/>
      <g id="Group_2196" data-name="Group 2196" transform="translate(12.578)">
        <path id="Path_2544" data-name="Path 2544" d="M1188.684,265.033c-1.173-3.347-2.361-7-3.276-10.306-1.189-4.324-2.119-7.748-4.308-11.736-.343-.641-.719-1.313-1.134-2.033a71.8,71.8,0,0,1-7.389-16.826c-1.251-4.707-.023-16.294,1.173-27.506.845-8.069,1.642-15.685,1.415-20l-.071-1.533c-.586-11.29-1.806-34.793-4.339-41.3-2.447-6.263-4.738-7.2-8.913-8.874-.43-.188-.876-.36-1.353-.563-1.564-.656-4.229-2.033-7.3-3.62-6.927-3.589-15.543-8.054-19.922-8.648a38.772,38.772,0,0,0-12.275.571c-5.395-4.144-14.574-9.476-17.3-9.578-2.244-.11-7.123,1.289-9.484,2.025-.547.172-.969.3-1.181.375a35.03,35.03,0,0,0-4.691-3.08c-.117-.055-.226-.1-.32-.141-3.034-1.251-7.624-1.3-10.126-1.227-.759.031-1.344.078-1.618.1-4.715-7.263-9.367-14.5-11.384-17.67-4.215-6.677-17.264-34.145-17.4-34.434a.246.246,0,0,0-.171-.141.411.411,0,0,0-.118-.039c-1.017-.3-8.491-2.2-11.493,5.051-3.284,7.882,1.407,25.2,5.982,31.486,2.2,3.034,8.209,15.38,14.315,28.163-1.571,1.455-14.089,13.026-20.172,15.184-4.98,1.759-3.816,27.288-2.877,47.788.352,7.568.649,14.082.563,17.991-.172,7.568,13.6,18,26.943,28.077,12.064,9.132,24.535,18.57,26,25.427a13.123,13.123,0,0,0,2.931,5.254c2.3,2.925,5.255,6.373,6.513,12.917.368,1.954,3.519,4.519,5.989,8.71h90.44C1191.569,272.945,1190.147,269.231,1188.684,265.033Zm-125.3-135.992c4.379,9.172,7.084,14.66,7.725,15.239s.618,3.518.594,6.34a52.347,52.347,0,0,0,.258,7.428c-1.063.938-7.8,7.068-9.155,12.025l-5.724-6.739-1.447-21.126C1056.508,141.308,1062.4,135.093,1063.388,129.041Z" transform="translate(-1032.12 -48.408)" fill="#fff"/>
        <path id="Path_2545" data-name="Path 2545" d="M1172.66,196.85c2.124,19.827,2.155,30.577,4.536,36.316,4.021,9.688,9.948,11.649,9.948,11.649a59.937,59.937,0,0,1-4.666-11.8c-1.251-4.7-.023-16.29,1.171-27.5.845-8.067,1.649-15.687,1.422-20l-.077-1.531c-.585-11.29-1.8-34.791-4.339-41.3-2.442-6.264-4.737-7.2-8.908-8.878-.434-.185-.882-.357-1.357-.561-1.566-.652-4.226-2.03-7.3-3.62-6.929-3.586-15.546-8.053-19.92-8.645a38.779,38.779,0,0,0-12.275.567c-5.4-4.141-14.574-9.473-17.308-9.58-2.241-.1-8.3,1.66-10.659,2.4,10.3,8.424,25.188,18.9,25.188,18.9,11.758,2.337,10.252,7.445,15,10.3,4.305,2.585,8.421-4.973,12.014-5.637,4.743-.879,10.139,4.153,9.9,10.222C1164.363,164.967,1170.837,179.833,1172.66,196.85Z" transform="translate(-1042.022 -57.296)" fill="#000f39"/>
        <path id="Path_2546" data-name="Path 2546" d="M1110.763,135.074s-9.319-7.726-13.781-10.343-5.156-11.48-1.647-13.639a.923.923,0,0,1,.433-.134c-.111-.054-.222-.108-.32-.146-3.036-1.252-7.618-1.3-10.122-1.223,5.2,9.611,9.279,16.985,10.394,18.6C1099.473,133.613,1110.763,135.074,1110.763,135.074Z" transform="translate(-1039.561 -56.961)" fill="#000f39"/>
        <path id="Path_2547" data-name="Path 2547" d="M1089.19,246.908c.391-2.057-2.994-8.077-4.48-10.516-3.386-5.575-42.636-40.259-36.944-49.516,5.668-9.28,10.876-2.4,14.472-1.805,2.588.43,9.672-3.792,9.633-4.144-.805-7.131,5.778-11.767,5.778-11.767s-.61-28.383-2.119-27.9S1055.9,98.633,1055.9,98.633s-19.14-25.457-18.062-37.334c1.079-11.861,9.375-12.127,9.375-12.127l-.016-.32c-1.017-.3-8.491-2.2-11.493,5.051-3.284,7.882,1.407,25.2,5.982,31.486,2.2,3.034,8.209,15.38,14.315,28.163-1.571,1.455-14.089,13.026-20.172,15.184-4.98,1.759-3.816,27.288-2.877,47.788.352,7.568.649,14.082.563,17.991-.172,7.568,13.6,18,26.943,28.077,12.064,9.132,24.535,18.57,26,25.427a13.123,13.123,0,0,0,2.931,5.254A34.132,34.132,0,0,1,1089.19,246.908Zm-25.8-117.868c4.379,9.172,7.084,14.66,7.725,15.239s.618,3.518.594,6.34a52.347,52.347,0,0,0,.258,7.428c-1.063.938-7.8,7.068-9.155,12.025l-5.724-6.739-1.447-21.126C1056.508,141.308,1062.4,135.093,1063.388,129.041Z" transform="translate(-1032.12 -48.408)" fill="#000f39"/>
        <g id="Group_2195" data-name="Group 2195" transform="translate(0.314 0.295)">
          <path id="Path_2548" data-name="Path 2548" d="M1098.4,126.458a19.563,19.563,0,0,1-9.672-6.775c-3.927-5.265-19.367-29.24-23.646-36.008s-17.417-34.453-17.417-34.453-8.085-2.706-11.233,4.848,1.164,24.612,5.951,31.186,27.576,57.211,29.385,58.849-.9,15.134,2.717,18.4" transform="translate(-1032.887 -48.751)" fill="none" stroke="#263238" stroke-linecap="round" stroke-linejoin="round" stroke-width="1"/>
          <path id="Path_2549" data-name="Path 2549" d="M1076.07,171.1s-8.345,7.269-9.324,12.572l-6.192-7.286-1.463-21.365s7.471-7.482,7.882-14.145" transform="translate(-1036.205 -61.635)" fill="none" stroke="#263238" stroke-linecap="round" stroke-linejoin="round" stroke-width="1"/>
          <path id="Path_2550" data-name="Path 2550" d="M1056.427,124.226s-13.855,13.072-20.444,15.406-1.787,51.313-2.114,65.5,49.851,38.888,52.929,53.414c1.224,5.774,6.277,6.953,9.371,18.024" transform="translate(-1032.484 -59.306)" fill="none" stroke="#263238" stroke-linecap="round" stroke-linejoin="round" stroke-width="1"/>
          <path id="Path_2551" data-name="Path 2551" d="M1083.251,110.055s7.54-.679,11.79,1.086,21.513,16.592,25.665,19.427,10.426,3.9,11.615,6.953" transform="translate(-1039.584 -57.306)" fill="none" stroke="#263238" stroke-linecap="round" stroke-linejoin="round" stroke-width="1"/>
          <path id="Path_2552" data-name="Path 2552" d="M1102.862,114.753s7.766-2.563,10.7-2.435,14.089,6.714,19.078,11.1a42.47,42.47,0,0,0,13,7.9" transform="translate(-1042.327 -57.64)" fill="none" stroke="#263238" stroke-linecap="round" stroke-linejoin="round" stroke-width="1"/>
          <path id="Path_2553" data-name="Path 2553" d="M1135.363,123.35a37.952,37.952,0,0,1,12.306-.593c6.3.848,22.107,10.15,27.143,12.248s7.452,2.485,10.1,9.266,3.864,32.55,4.4,42.732-4.771,39.354-2.586,47.563,6.151,14.534,8.552,18.928" transform="translate(-1046.872 -59.063)" fill="none" stroke="#263238" stroke-linecap="round" stroke-linejoin="round" stroke-width="1"/>
          <path id="Path_2554" data-name="Path 2554" d="M1058.618,156.4s-1.253-5.018-2.91-5.662" transform="translate(-1035.732 -63.014)" fill="none" stroke="#263238" stroke-linecap="round" stroke-linejoin="round" stroke-width="1"/>
          <path id="Path_2555" data-name="Path 2555" d="M1060.792,182.162a64.069,64.069,0,0,0,2.349,8.648c1.23,3.054-.689,7.47-.689,7.47" transform="translate(-1036.443 -67.408)" fill="none" stroke="#263238" stroke-linecap="round" stroke-linejoin="round" stroke-width="1"/>
          <path id="Path_2556" data-name="Path 2556" d="M1067.99,190.633c-.2,4.883,4.66,10.594,5.839,9.788" transform="translate(-1037.449 -68.592)" fill="none" stroke="#263238" stroke-linecap="round" stroke-linejoin="round" stroke-width="1"/>
          <path id="Path_2557" data-name="Path 2557" d="M1096.762,155.024s5.216-8.445,10.226-8.858,10.784,6.692,13.877,6.027,6.972-5.211,12.166-6.044,7.628,1.667,11.753,1.873,4.537-5.3,9.487-6.051,6.6,1.757,9.9,2.358,4.129-1.963,6.8-3.45" transform="translate(-1041.473 -61.635)" fill="none" stroke="#263238" stroke-linecap="round" stroke-linejoin="round" stroke-width="1"/>
        </g>
      </g>
    </g>
  </g>
</svg>
