<svg id="Layer_1" data-name="Layer 1" xmlns="http://www.w3.org/2000/svg" viewBox="0 0 1748 670"><path d="M382.18,230.06H435.9V165.7c0-7.89,2.57-14.58,8.24-20.08a28.4,28.4,0,0,1,40.33,0,26.87,26.87,0,0,1,8.41,20.08V210H514.5v12.53H486.69a6.45,6.45,0,0,1-6.34-6.35V165.7a16,16,0,0,0-31.92,0v70.71a6.31,6.31,0,0,1-6.35,6.18H381.84c-9.95,0-18.53-3.61-25.91-10.81a35.75,35.75,0,0,1-10.82-26.26,38.59,38.59,0,0,1,20.6-34l3.6-1.89a2.2,2.2,0,0,1,1-.17,2.17,2.17,0,0,1,2.06,1.2l3.6,7.21a4.12,4.12,0,0,1,.35,1.2,2,2,0,0,1-1.2,1.89l-3.61,1.89a25.82,25.82,0,0,0-13.9,22.65A24.76,24.76,0,0,0,382.18,230.06Zm16.65,31.24v10.12c0,1.55-.68,2.23-2.23,2.23H388c-1.55,0-2.23-.68-2.23-2.23V261.3c0-1.55.68-2.41,2.23-2.41h8.58C398.15,258.89,398.83,259.75,398.83,261.3Zm22.83,0v10.12c0,1.55-.69,2.23-2.23,2.23H411c-1.54,0-2.4-.68-2.4-2.23V261.3a2.17,2.17,0,0,1,2.4-2.41h8.42C421,258.89,421.66,259.75,421.66,261.3Z" style="fill:#4c4a4c"/><path d="M543.45,200.54V142.88a2.16,2.16,0,0,1,2.4-2.4h7.89a2.16,2.16,0,0,1,2.4,2.4v60.06a5.64,5.64,0,0,0,1.38,4.29c1.71,1.72,5.15,2.75,10.13,2.75h8.06v12.53h-5.84c-8.4,0-14.75-2.24-18.87-6.35-.17-.18-.35-.18-.35-.34a2.34,2.34,0,0,1-.51.85c-3.95,4-9.27,5.84-16,5.84H508.44V210h26.08C540.7,210,543.45,206.89,543.45,200.54ZM543.27,118V107.87c0-1.55.69-2.4,2.23-2.4h8.42a2.17,2.17,0,0,1,2.4,2.4V118c0,1.53-.86,2.22-2.4,2.22H545.5C544,120.22,543.27,119.53,543.27,118Z" style="fill:#4c4a4c"/><path d="M661.16,222.51H571.41V210h26.94V100.83a2.3,2.3,0,0,1,2.57-2.4h7.9c1.54,0,2.23.86,2.23,2.4v60.24c17-15.79,31.75-23.85,44.1-23.85,22.31,0,35.19,16.64,35.19,39.64v16.48C690.34,211.52,679.35,222.51,661.16,222.51Zm16.65-29.17V176.86a35.7,35.7,0,0,0-3.44-16c-3.77-7.38-10.29-11.15-19.22-11.15-5.83,0-13,2.91-21.79,8.4a88.59,88.59,0,0,0-22.31,19.91V210h50.11C672.66,210,677.81,204.83,677.81,193.34Z" style="fill:#4c4a4c"/><path d="M775.24,224.57v-2.06H751.73a36.33,36.33,0,0,1-36.38-36.21V173.43A35,35,0,0,1,726,147.86a35.34,35.34,0,0,1,25.74-10.64,36.33,36.33,0,0,1,36.21,36.21V210h25.92v12.53H787.94v2.06c0,9.09-3.43,17-10.12,23.68a32.29,32.29,0,0,1-23.68,9.95H736.28a2,2,0,0,1-2.23-2.23v-8.06a2,2,0,0,1,2.23-2.23h17.86A21.56,21.56,0,0,0,775.24,224.57ZM751.73,210h23.51V173.43a23.6,23.6,0,1,0-47.2,0V186.3A24,24,0,0,0,751.73,210Z" style="fill:#4c4a4c"/><path d="M837,200.71V101c0-1.54.68-2.4,2.23-2.4h8.06c1.55,0,2.23.86,2.23,2.4v99.71c0,13.39-8.58,21.8-21.79,21.8H807.82V210H827.9C834.25,209.81,837,206.89,837,200.71Z" style="fill:#4c4a4c"/><path d="M887.6,222.51h-8.23c-1.55,0-2.24-.69-2.24-2.24V100.83c0-1.54.69-2.23,2.24-2.23h8.23c1.37,0,2.06.69,2.06,2.23V220.27C889.66,221.82,889,222.51,887.6,222.51Z" style="fill:#4c4a4c"/><path d="M968.06,229V143c0-1.54.69-2.4,2.24-2.4h8.07a2.17,2.17,0,0,1,2.4,2.4V210H1007v12.53H980.77V229c0,18.19-11.16,29.17-29.35,29.17h-8.58c-1.55,0-2.24-.68-2.24-2.23v-8.06c0-1.55.69-2.23,2.24-2.23h8.58C962.92,245.68,968.06,240.53,968.06,229Zm0-111V107.87c0-1.55.69-2.4,2.24-2.4h8.4a2.17,2.17,0,0,1,2.41,2.4V118c0,1.53-.86,2.22-2.41,2.22h-8.4C968.75,120.22,968.06,119.53,968.06,118Z" style="fill:#4c4a4c"/><path d="M1064.15,105.12h14.24c1.55,0,2.24.69,2.24,2.23v8.07c0,1.54-.69,2.23-2.24,2.23h-14.24c-17.84,0-27.8,9.44-29.69,28h32.09c11,0,20.09,3.61,27.29,11s10.64,16.64,10.64,27.8v16.3c0,13.39-8.4,21.8-21.8,21.8H998.43V210h84.09c6.34,0,9.43-2.91,9.43-9.27v-16.3c0-15.45-10.12-26.26-25.4-26.26h-38.61a6.3,6.3,0,0,1-6.35-6.18C1021.59,123.82,1036.52,105.12,1064.15,105.12Z" style="fill:#4c4a4c"/><path d="M1140.31,229V143a2.17,2.17,0,0,1,2.4-2.4h7.9A2.18,2.18,0,0,1,1153,143V210h26.08v12.53H1153V229c0,18.19-11.16,29.17-29.35,29.17h-8.59c-1.54,0-2.23-.68-2.23-2.23v-8.06c0-1.55.69-2.23,2.23-2.23h8.59C1135.16,245.68,1140.31,240.53,1140.31,229Z" style="fill:#4c4a4c"/><path d="M1279.82,210h12.87v12.53h-10.47c-8.93,0-16.31-3.6-20.59-9.95a35,35,0,0,1-24.89,9.95h-66.07V210h29.86V173.43a35.42,35.42,0,0,1,10.64-25.75,36,36,0,0,1,51.14,0A35.38,35.38,0,0,1,1273,173.43V186.3a35.93,35.93,0,0,1-4.11,16.82C1270,207.75,1274.15,210,1279.82,210Zm-66.76-36.55V210h23.68a23.73,23.73,0,0,0,23.68-23.68V173.43a23.68,23.68,0,1,0-47.36,0Z" style="fill:#4c4a4c"/><path d="M1317.54,200.71V101c0-1.54.69-2.4,2.23-2.4h8.06c1.55,0,2.23.86,2.23,2.4v99.71c0,13.39-8.58,21.8-21.79,21.8h-19.91V210h20.08C1314.79,209.81,1317.54,206.89,1317.54,200.71Z" style="fill:#4c4a4c"/><path d="M1368.15,222.51h-8.23c-1.55,0-2.24-.69-2.24-2.24V100.83c0-1.54.69-2.23,2.24-2.23h8.23c1.38,0,2.06.69,2.06,2.23V220.27C1370.21,221.82,1369.53,222.51,1368.15,222.51Z" style="fill:#4c4a4c"/><path d="M58.5,427.08h54.62V362.51a26.57,26.57,0,0,1,8.38-20.14,29.14,29.14,0,0,1,41,0,26.7,26.7,0,0,1,8.56,20.14v44.43h22v12.57H164.77a6.51,6.51,0,0,1-6.45-6.37V362.51a16.23,16.23,0,0,0-32.46,0v70.94a6.37,6.37,0,0,1-6.46,6.2H58.15C48,439.65,39.31,436,31.8,428.81a35.66,35.66,0,0,1-11-26.35,38.68,38.68,0,0,1,21-34.09l3.66-1.9a2.26,2.26,0,0,1,1-.17,2.23,2.23,0,0,1,2.1,1.21l3.67,7.23a4.56,4.56,0,0,1,.35,1.2,2,2,0,0,1-1.22,1.9l-3.67,1.89a25.91,25.91,0,0,0-14.14,22.73C33.54,415.89,44.89,427.08,58.5,427.08Zm16.92,31.34v10.16c0,1.55-.7,2.23-2.27,2.23H64.44c-1.58,0-2.28-.68-2.28-2.23V458.42c0-1.55.7-2.41,2.28-2.41h8.71C74.72,456,75.42,456.87,75.42,458.42Zm23.21,0v10.16c0,1.55-.69,2.23-2.26,2.23H87.81c-1.57,0-2.44-.68-2.44-2.23V458.42A2.19,2.19,0,0,1,87.81,456h8.56C97.94,456,98.63,456.87,98.63,458.42Z" style="fill:#4c4a4c"/><path d="M222.48,397.63v-58a2.19,2.19,0,0,1,2.44-2.41h8a2.19,2.19,0,0,1,2.44,2.41v58c0,13.44-8.9,21.88-22.34,21.88H186.88V406.94H213.4C219.69,406.77,222.48,404,222.48,397.63Zm13.09-93.14v10.16c0,1.54-.87,2.24-2.44,2.24h-8.56c-1.57,0-2.26-.7-2.26-2.24V304.49c0-1.55.69-2.41,2.26-2.41h8.56A2.19,2.19,0,0,1,235.57,304.49Z" style="fill:#4c4a4c"/><path d="M318.26,421.57v-2.06h-23.9a35.82,35.82,0,0,1-26-10.68,34.86,34.86,0,0,1-10.82-25.65V370.26a34.84,34.84,0,0,1,10.82-25.65,37,37,0,0,1,52,0,34.88,34.88,0,0,1,10.82,25.65v51.31a32.26,32.26,0,0,1-10.12,23.77,33.47,33.47,0,0,1-24.25,10H278.65c-1.57,0-2.27-.69-2.27-2.24V445c0-1.55.7-2.24,2.27-2.24h18.16C308.32,442.75,318.26,432.93,318.26,421.57Zm-23.9-14.63h23.9V370.26a24,24,0,0,0-23.9-23.75c-13.08,0-24.08,10.67-24.08,23.75v12.92C270.28,396.09,281.28,406.94,294.36,406.94Z" style="fill:#4c4a4c"/><path d="M367.44,426.05V339.78a2.2,2.2,0,0,1,2.45-2.41h8a2.2,2.2,0,0,1,2.44,2.41v67.16h26.52v12.57H380.36v6.54c0,18.25-11.34,29.27-29.84,29.27h-8.73c-1.57,0-2.27-.69-2.27-2.24V445c0-1.55.7-2.24,2.27-2.24h8.73C362.21,442.75,367.44,437.58,367.44,426.05Z" style="fill:#4c4a4c"/><path d="M437.75,397.47V339.62a2.14,2.14,0,0,1,2.27-2.41h8.21c1.57,0,2.26.85,2.26,2.41v60.26a5.72,5.72,0,0,0,1.57,4.3c1.75,1.72,5.24,2.76,10.3,2.76h8.2v12.57h-5.93c-8.56,0-15.18-2.25-19.37-6.37,0-.18-.18-.18-.18-.35l-.7.86c-4,4-9.24,5.86-16.05,5.86h-30V406.94h30.36C435,406.94,437.75,403.67,437.75,397.47Zm-12-82.82V304.49a2.19,2.19,0,0,1,2.44-2.41h8.73c1.57,0,2.27.86,2.27,2.41v10.16c0,1.54-.7,2.24-2.27,2.24h-8.73C426.58,316.89,425.71,316.19,425.71,314.65Zm23.39,0V304.49c0-1.55.7-2.41,2.27-2.41h8.55a2.19,2.19,0,0,1,2.44,2.41v10.16c0,1.54-.87,2.24-2.44,2.24h-8.55C449.8,316.89,449.1,316.19,449.1,314.65Z" style="fill:#4c4a4c"/><path d="M533,301.74H547.5a2,2,0,0,1,2.27,2.23v8.1c0,1.55-.7,2.41-2.27,2.41H533c-18.14,0-28.27,9.3-30.18,27.89h32.46c11.16,0,20.41,3.61,27.74,11s11,16.7,11,27.89v18.6c0,2.06.53,3.44,1.58,4.3,1.74,1.72,5.06,2.76,10.29,2.76H595v12.57h-7c-8.55,0-14.84-2.25-19-6.37l-.35-.35c-3.83,4.31-9.42,6.72-16.75,6.72H466.18V406.94h85.51c6.45,0,9.6-2.93,9.6-9.47V381.28c0-15.5-10.3-26.34-26-26.34H496.2a6.39,6.39,0,0,1-6.46-6.37C489.74,320.33,505.09,301.74,533,301.74Z" style="fill:#4c4a4c"/><path d="M619.36,397.63v-100c0-1.55.7-2.41,2.27-2.41h8.2c1.57,0,2.27.86,2.27,2.41v100c0,13.44-8.73,21.88-22.17,21.88H589.7V406.94h20.41C616.57,406.77,619.36,403.84,619.36,397.63Z" style="fill:#4c4a4c"/><path d="M725.09,390.24V297.6c0-1.55.7-2.41,2.28-2.41h8.19c1.57,0,2.27.86,2.27,2.41v92.64c0,18.41-11.17,29.27-29.66,29.27H656.51c-1.57,0-2.27-.86-2.27-2.41v-7.92c0-1.55.7-2.24,2.27-2.24h51.66C719.86,406.94,725.09,401.77,725.09,390.24Zm-40.83,54.92v10.16h17.8c1.05,0,1.75.51,1.75,1.55v3.61a1.64,1.64,0,0,1-1.75,1.73H672.39c-1,0-1.57-.69-1.57-1.73v-3.61a1.37,1.37,0,0,1,1.57-1.55h4.89V445.16a13.1,13.1,0,0,1,13.09-12.92c5.75,0,9.76,2.76,12,7.93l.87,1.72a1,1,0,0,1,.18.69c0,.68-.52,1-1.22,1.37l-3.33,1.39a2,2,0,0,1-.87.16c-.69,0-1-.34-1.39-1l-.53-1.55a5.87,5.87,0,0,0-5.75-3.79A6.15,6.15,0,0,0,684.26,445.16Zm-3.32-54.75v-79c0-1.55.7-2.41,2.27-2.41h8.21c1.57,0,2.26.86,2.26,2.41v79c0,1.55-.69,2.24-2.26,2.24h-8.21C681.64,392.65,680.94,392,680.94,390.41Z" style="fill:#4c4a4c"/><path d="M776.54,419.51h-8.38c-1.57,0-2.27-.7-2.27-2.25V297.43c0-1.55.7-2.24,2.27-2.24h8.38c1.4,0,2.09.69,2.09,2.24V417.26C778.63,418.81,777.94,419.51,776.54,419.51Z" style="fill:#4c4a4c"/><path d="M955.55,406.94h13.79v12.57H958c-9.25,0-16.58-3.62-20.94-10a35.87,35.87,0,0,1-25.31,10h-43.1A11.61,11.61,0,0,0,857,431v23.24c0,1.55-.87,2.24-2.44,2.24h-8.21c-1.57,0-2.27-.69-2.27-2.24V431c0-13.25,11.17-24.27,24.61-24.27h6.28V370.09a34.9,34.9,0,0,1,10.82-25.66,35.83,35.83,0,0,1,26-10.67,35.41,35.41,0,0,1,25.83,10.67,34.87,34.87,0,0,1,10.82,25.66v13.09a35.6,35.6,0,0,1-4.18,16.87C945.44,404.53,950,406.94,955.55,406.94Zm-67.88-36.85v36.68h24.08a23.84,23.84,0,0,0,24.09-23.59V370.09c0-12.91-11-23.58-24.09-23.58S887.67,357.18,887.67,370.09Z" style="fill:#4c4a4c"/><path d="M999.67,397.47V339.62a2.19,2.19,0,0,1,2.44-2.41h8a2.19,2.19,0,0,1,2.44,2.41v60.26a5.61,5.61,0,0,0,1.4,4.3c1.74,1.72,5.24,2.76,10.3,2.76h8.2v12.57h-5.94c-8.55,0-15-2.25-19.19-6.37-.17-.18-.35-.18-.35-.35a2.33,2.33,0,0,1-.52.86c-4,4-9.43,5.86-16.24,5.86H964.07V406.94h26.52C996.88,406.94,999.67,403.84,999.67,397.47ZM993,438.28v10c0,1.55-.71,2.41-2.27,2.41h-8.72c-1.57,0-2.28-.86-2.28-2.41v-10c0-1.55.71-2.41,2.28-2.41h8.72C992.33,435.87,993,436.73,993,438.28Zm23.38,0v10a2.19,2.19,0,0,1-2.44,2.41h-8.56a2.19,2.19,0,0,1-2.44-2.41v-10a2.19,2.19,0,0,1,2.44-2.41H1014A2.19,2.19,0,0,1,1016.42,438.28Z" style="fill:#4c4a4c"/><path d="M1058.63,397.47V297.6c0-1.55.7-2.41,2.27-2.41h8.2c1.57,0,2.27.86,2.27,2.41V399.88c0,2.06.52,3.44,1.57,4.3,1.74,1.72,5.23,2.76,10.3,2.76h8.89v12.57h-6.8c-8.9,0-15-2.41-19.37-6.72a3.85,3.85,0,0,1-.7.86c-3.84,4-9.25,5.86-16,5.86h-21.12V406.94h21.29C1055.66,406.94,1058.63,403.84,1058.63,397.47Z" style="fill:#4c4a4c"/><path d="M1206.42,419.51H1086.89V406.94h40.48l-17.1-36a7.65,7.65,0,0,1-.52-2.75v-.87c1.22-8.6,5.4-16.18,12.74-22.72,7.85-7.24,16.57-10.85,26.35-10.85a39.24,39.24,0,0,1,26.35,10.16c7.67,6.71,11.87,14.63,12.74,23.76v.69a7,7,0,0,1-.52,2.58l-17.11,36h36.12ZM1131.9,353c-4.7,4.14-7.84,9-9.06,14.29l18.67,39.61h14.83L1175,367.16c-.88-5.67-3.85-10.5-9.08-14.46a26.45,26.45,0,0,0-17.1-6.19C1142.73,346.51,1137.15,348.74,1131.9,353Z" style="fill:#4c4a4c"/><path d="M1240.6,397.47V339.62a2.14,2.14,0,0,1,2.26-2.41h8.21c1.57,0,2.26.85,2.26,2.41v60.26a5.72,5.72,0,0,0,1.57,4.3c1.75,1.72,5.23,2.76,10.3,2.76h8.2v12.57h-5.93c-8.56,0-15.18-2.25-19.38-6.37,0-.18-.17-.18-.17-.35l-.7.86c-4,4-9.24,5.86-16,5.86h-30V406.94h30.36C1237.8,406.94,1240.6,403.67,1240.6,397.47Zm-12-82.82V304.49a2.2,2.2,0,0,1,2.44-2.41h8.73c1.57,0,2.27.86,2.27,2.41v10.16c0,1.54-.7,2.24-2.27,2.24H1231C1229.43,316.89,1228.55,316.19,1228.55,314.65Zm23.39,0V304.49c0-1.55.7-2.41,2.27-2.41h8.55a2.19,2.19,0,0,1,2.44,2.41v10.16c0,1.54-.87,2.24-2.44,2.24h-8.55C1252.64,316.89,1251.94,316.19,1251.94,314.65Z" style="fill:#4c4a4c"/><path d="M1299.55,397.47V297.6c0-1.55.7-2.41,2.27-2.41H1310c1.58,0,2.28.86,2.28,2.41V399.88c0,2.06.52,3.44,1.57,4.3,1.74,1.72,5.23,2.76,10.29,2.76h8.9v12.57h-6.8c-8.9,0-15-2.41-19.37-6.72a3.85,3.85,0,0,1-.7.86c-3.84,4-9.25,5.86-16,5.86H1269V406.94h21.29C1296.58,406.94,1299.55,403.84,1299.55,397.47Z" style="fill:#4c4a4c"/><path d="M1357.47,397.63v-100c0-1.55.7-2.41,2.27-2.41h8.2c1.57,0,2.27.86,2.27,2.41v100c0,13.44-8.73,21.88-22.17,21.88h-20.23V406.94h20.41C1354.68,406.77,1357.47,403.84,1357.47,397.63Z" style="fill:#4c4a4c"/><path d="M26.51,517.21c.23,1.74.37,18.67.37,21.57L27,587.5H18.25l-.12-81.31,12.83,0,27.11,51.46c.8,1.62,8.61,16.58,9.3,18.31h.8c-.23-2.44-.26-20-.26-21.81l-.07-48h8.59l.12,81.31-12.6,0L36.61,535.63c-.8-1.62-8.5-16.45-9.19-18.42Z" style="fill:#4c4a4c"/><path d="M137.31,542.44l0,28.54c0,5.68,1.74,9.5,6.09,9.5h1.61v6.61a7,7,0,0,1-3.21.7c-6.19,0-9.86-3.35-11.35-7.64H130c-3,3.48-8,8.48-18.54,8.49-11.57,0-18-8.2-18-16.78,0-13.92,13.48-20.79,35.59-20.48v-6.84c0-10.32-4.95-13.33-13.19-13.32s-12.37,4.66-14.19,7.68l-6.54-5.21c2.17-3,8-10.34,20.94-10.36C129.38,523.31,137.29,529.21,137.31,542.44Zm-8.22,16c-15-.56-26.8,3.17-26.78,12.68,0,5.57,4,10.09,11.24,10.08a19.17,19.17,0,0,0,15.56-8.61Z" style="fill:#4c4a4c"/><path d="M161.3,570.47l-.06-39-9.28,0v-5.81l9.28-1.75L164,507.6H170l0,16.59,17.18,0v7.31l-17.18,0,.06,38.5c0,7.08,3.57,10,9.06,10,5,0,7.91-1.17,9.51-2.22l2.53,7.19c-2.41,1.4-6.53,2.91-14,2.92C166.94,587.87,161.32,582.42,161.3,570.47Z" style="fill:#4c4a4c"/><path d="M209.76,499.06a6.56,6.56,0,1,1,0,13.11,6.56,6.56,0,0,1,0-13.11Zm-3.85,25.07,8.93,0,.09,63.1-8.93,0Z" style="fill:#4c4a4c"/><path d="M232.76,555.75c0-19.48,7.16-32.84,26.06-32.86s25.57,12.94,25.59,32.2c0,19.49-7.28,33.08-26.18,33.1S232.79,575.12,232.76,555.75Zm26.15,24.55c12,0,16.37-8,16.34-24.5,0-16.93-5.07-25.16-17.1-25.14-11.8,0-16.25,8-16.23,24.38C242,572,247,580.32,258.91,580.3Z" style="fill:#4c4a4c"/><path d="M347.24,587l-8.94,0-.06-41.41c0-9.63-4.72-15-13.42-14.94A16.8,16.8,0,0,0,309,542l.07,45.12h-8.94l-.09-63.1h6.75l1.85,6.61h.46a23.46,23.46,0,0,1,17.74-7.91c12.48,0,19.94,6.81,20.3,20.85Z" style="fill:#4c4a4c"/><path d="M406.28,542l0,28.54c0,5.68,1.73,9.51,6.09,9.5H414v6.61a6.81,6.81,0,0,1-3.2.7c-6.19,0-9.86-3.35-11.35-7.64H399c-3,3.49-8,8.48-18.54,8.5-11.56,0-18-8.21-18-16.79,0-13.92,13.49-20.79,35.6-20.47v-6.85c0-10.32-5-13.33-13.2-13.32s-12.36,4.66-14.19,7.68l-6.54-5.21c2.18-3,8-10.33,20.95-10.35C398.35,522.91,406.26,528.81,406.28,542Zm-8.22,16c-15-.55-26.8,3.18-26.79,12.69,0,5.57,4,10.08,11.24,10.07a19.17,19.17,0,0,0,15.57-8.61Z" style="fill:#4c4a4c"/><path d="M437.72,498.84l.11,73.07c0,5.57,1.84,8,6.54,8a11.24,11.24,0,0,0,5.15-1.29v7.66a20,20,0,0,1-7.79,1.4c-8.58,0-12.72-5.08-12.73-13.32l-.11-75.51Z" style="fill:#4c4a4c"/><path d="M538,581.85c-4.12,3.14-10.65,5.7-19.58,5.72-17.75,0-27.39-9.13-27.42-32.68,0-22.85,12.55-32.26,26.41-32.28,14.77,0,22.69,9.71,22.71,24.67a98.69,98.69,0,0,1-.67,10.91l-39.63.06c.83,15.54,7.25,21.44,19.73,21.42,6.19,0,11.8-2.45,14.43-4.77Zm-38.08-31,31.27-.05c.12-1.27.11-2.89.11-3.59,0-10.79-4.61-16.81-14.68-16.8C508.44,530.4,500.66,535.63,499.88,550.82Z" style="fill:#4c4a4c"/><path d="M566.83,505.37l.11,73.07,34.48-.05v8.24l-43.64.06-.13-81.31Z" style="fill:#4c4a4c"/><path d="M656.41,581.67c-4.12,3.14-10.65,5.7-19.58,5.72-17.76,0-27.39-9.12-27.43-32.68,0-22.85,12.55-32.26,26.42-32.28,14.77,0,22.69,9.71,22.71,24.67a101,101,0,0,1-.67,10.91l-39.63.06c.82,15.54,7.25,21.44,19.73,21.42,6.19,0,11.8-2.45,14.43-4.77Zm-38.08-31,31.27,0c.11-1.28.11-2.9.11-3.6,0-10.79-4.61-16.81-14.69-16.79C626.89,530.22,619.11,535.45,618.33,550.64Z" style="fill:#4c4a4c"/><path d="M715.34,541.57l0,28.53c0,5.69,1.74,9.51,6.09,9.5h1.6v6.61a6.81,6.81,0,0,1-3.2.7c-6.19,0-9.86-3.35-11.36-7.64h-.45c-3,3.48-8,8.47-18.54,8.49-11.57,0-18-8.21-18-16.79,0-13.92,13.48-20.79,35.59-20.47v-6.85c0-10.32-5-13.33-13.2-13.32S681.54,535,679.71,538l-6.53-5.21c2.17-3,8-10.33,20.94-10.35C707.41,522.44,715.32,528.34,715.34,541.57Zm-8.22,16c-15-.56-26.8,3.17-26.78,12.68,0,5.57,4,10.08,11.23,10.07a19.17,19.17,0,0,0,15.57-8.61Z" style="fill:#4c4a4c"/><path d="M768.48,532.2a24,24,0,0,0-7-.91c-6.07,0-12.37,2.45-15.34,8.14l.07,47H737.4l-.09-63.1h6.76l1.95,7h.46c2.75-4.52,8.47-8,15.68-8a26.3,26.3,0,0,1,6.3.57Z" style="fill:#4c4a4c"/><path d="M825.83,586.29H816.9l-.06-41.41c0-9.63-4.72-14.95-13.42-14.94a16.81,16.81,0,0,0-15.79,11.27l.06,45.13h-8.93l-.1-63.1h6.76l1.84,6.6h.46a23.58,23.58,0,0,1,17.75-7.91c12.48,0,19.94,6.82,20.3,20.85Z" style="fill:#4c4a4c"/><path d="M851.25,498.09a6.56,6.56,0,1,1,0,13.11,6.56,6.56,0,0,1,0-13.11Zm-3.85,25.06h8.93l.09,63.1h-8.93Z" style="fill:#4c4a4c"/><path d="M924.69,586.14h-8.93l-.07-41.41c0-9.63-4.71-15-13.42-14.94a16.83,16.83,0,0,0-15.79,11.27l.07,45.13h-8.94l-.09-63.1h6.76l1.84,6.6h.46a23.55,23.55,0,0,1,17.74-7.91c12.48,0,19.94,6.82,20.3,20.85Z" style="fill:#4c4a4c"/><path d="M988.15,586.51c0,16.58-10,24.84-25.62,24.86-11.8,0-18-4.15-20.51-6.7l5.14-7.2c3.1,3.13,8,5.91,16.39,5.9,11.34,0,15.91-5.6,15.9-16.85v-5.8H979c-1.94,1.74-7.21,5-15.23,5-12.82,0-23.72-8.09-23.75-29.54,0-20.18,9.68-33.77,30.3-33.8,7.9,0,14,1.37,17.76,3.22Zm-19.1-56.23c-12,0-20,8-20,24.73,0,18.1,8.28,22.84,17.1,22.83,4.92,0,10.19-2.22,13.16-6.17L979.25,532A28.23,28.23,0,0,0,969.05,530.28Z" style="fill:#4c4a4c"/><path d="M1070.39,503.44c12.26,0,18.68,4.39,21.32,6.7l-5.72,7.08c-3.44-2.89-8.14-5.44-16.5-5.43-14,0-22.55,10.37-22.52,33.33,0,22,8.19,33.51,23.54,33.49,8.13,0,12.82-2.22,15.68-5l5,6.6c-3.55,3.48-10.53,6.86-22,6.88-22.11,0-31.64-16.07-31.68-41.13C1037.54,519.27,1049,503.47,1070.39,503.44Z" style="fill:#4c4a4c"/><path d="M1149,580.93c-4.11,3.13-10.64,5.7-19.57,5.71-17.76,0-27.39-9.12-27.43-32.67,0-22.85,12.55-32.27,26.41-32.29,14.78,0,22.69,9.71,22.72,24.68a101,101,0,0,1-.67,10.9l-39.64.06c.83,15.55,7.26,21.45,19.74,21.43,6.19,0,11.79-2.45,14.43-4.78Zm-38.07-31,31.27,0c.11-1.27.11-2.9.11-3.6,0-10.78-4.61-16.81-14.69-16.79C1119.46,529.47,1111.68,534.7,1110.9,549.9Z" style="fill:#4c4a4c"/><path d="M1214.62,585.7h-8.93l-.06-41.41c0-9.63-4.72-14.95-13.43-14.94a16.83,16.83,0,0,0-15.79,11.27l.07,45.13h-8.94l-.09-63.1h6.75l1.85,6.61h.45a23.58,23.58,0,0,1,17.75-7.91c12.49,0,19.94,6.82,20.3,20.85Z" style="fill:#4c4a4c"/><path d="M1235.22,568.85l-.06-39h-9.28v-5.8l9.28-1.76,2.72-16.36h6.07l0,16.59,17.19,0v7.31l-17.18,0,0,38.51c0,7.07,3.57,10,9.07,10,5,0,7.9-1.17,9.5-2.21l2.53,7.18c-2.4,1.4-6.52,2.91-14,2.92C1240.86,586.24,1235.23,580.8,1235.22,568.85Z" style="fill:#4c4a4c"/><path d="M1320.58,580.67c-4.12,3.13-10.65,5.7-19.58,5.71-17.76,0-27.39-9.12-27.43-32.67,0-22.85,12.55-32.27,26.41-32.29,14.78,0,22.69,9.71,22.72,24.68A101,101,0,0,1,1322,557l-39.64.06c.83,15.55,7.26,21.45,19.74,21.43,6.18,0,11.79-2.45,14.42-4.78Zm-38.08-31,31.27,0c.11-1.27.11-2.9.11-3.6,0-10.78-4.61-16.81-14.69-16.79C1291.06,529.21,1283.27,534.44,1282.5,549.64Z" style="fill:#4c4a4c"/><path d="M1370.21,531.29a24.3,24.3,0,0,0-7-.92c-6.07,0-12.36,2.46-15.33,8.14l.07,47h-8.82l-.09-63.1h6.75l2,7h.46c2.74-4.52,8.46-8,15.68-8a27.53,27.53,0,0,1,6.3.57Z" style="fill:#4c4a4c"/><path d="M1471.17,144.16a5.89,5.89,0,0,0,.84,0,2.57,2.57,0,0,0,1.45-.35,1.73,1.73,0,0,0,.51-.63l-1.71-1.58q-19-17.55-37.67-35.26v37.58L1448,144C1455.71,144.09,1463.46,143.65,1471.17,144.16Z" style="fill:#43b766"/><path d="M1473.5,218.48s.37-.13.41-.38-.32-.5-.46-.59a1.67,1.67,0,0,0-.71-.24,11.19,11.19,0,0,0-2.49-.11c-1.23.19-14.62.24-35.66.21v37.38Z" style="fill:#43b766"/><path d="M1565.48,18.65h-13.75c0,.07,0,.14,0,.21h0v-.21H1434.59c-.08,0,.08,0,0,0s.08.14,0,.25,0,.17,0,.26v.17c0,7.53,0,16.32,0,24.55V56.74c0,7.9,0,18.1,0,25.09l9.26,8.71q20.7,19.51,41.41,38.85a13,13,0,0,1,2.42,2.21,15.4,15.4,0,0,1,1.93,3.05,21.34,21.34,0,0,1,1.66,3.94,17.29,17.29,0,0,1-4.08,16.73,20.55,20.55,0,0,1-14.65,6.63l-38-.14v37.67l20.12-.09,17-.09c.35,0,.83,0,1.4.09a27.2,27.2,0,0,1,3.71.55,21,21,0,0,1,4.93,1.8,19.19,19.19,0,0,1,9.06,10.28,17.39,17.39,0,0,1,.89,8.79,18.39,18.39,0,0,1-3.46,8,25.82,25.82,0,0,1-2,2.28,68,68,0,0,1-6.15,5.73c-2.52,2.06-14.19,12.69-45.45,42.43.25.17-.25.35,0,.52-.34-.23.07-.47,0-.52v39.1c56.5,49.56,74.31,66.76,78.56,72.14,4.89,6.2,11.84,10.47,17.5,16a3.79,3.79,0,0,0,1.46.89,2.82,2.82,0,0,0,2.49-.14,2.06,2.06,0,0,0,.61-.7c-.42-78.81-.7-129.71-.77-130.52,0-.43-.06-.86-.06-1.3,0-.68.08-.74,0-.92-.27-.7-1.54-1-2.53-.81a2.88,2.88,0,0,0-1.36.68C1508,292.75,1499.29,300.16,1496,303l-6.78,5.81-5.78,4.93-3.22,2.73q-5.79-6.75-11.56-13.51c1.54-1.3,3.73-3.28,6.55-5.66,6.5-5.51,9.19-7.84,20-17.06,9.64-8.25,15.54-13.28,17.4-14.87l7.26-6.18a20.26,20.26,0,0,1,2.23-1.45,20.77,20.77,0,0,1,7.71-2.44,22.33,22.33,0,0,1,5.6.11,20.14,20.14,0,0,1,8.69,3.27c.51.38,1.11.88,1.11.88,1,.8,1.79,1.56,2.16,1.93a17.28,17.28,0,0,1,3.45,5.13,18.8,18.8,0,0,1,1.45,6,23.4,23.4,0,0,1,.1,3.65c.1,9.74.15,17.63.17,23,0,4.33,0,6.95.07,17.4,0,8.68.08,15.35.1,19.19,0,4.67.07,9.47.13,20.3,0,.73.09,13.7.14,21.87,0,6.55.11,16.18.2,28.1a17.21,17.21,0,0,1-.06,2.27,19.34,19.34,0,0,1-3.92,9.63,18.69,18.69,0,0,1-1.89,2,22,22,0,0,1-8.11,4.59,21.4,21.4,0,0,1-11.69.2,21.65,21.65,0,0,1-8.66-4.84c-22.9-20.12-58.88-54.54-58.88-54.54-7-6.69-14.27-13.25-14.27-13.25-4.61-4.16-8.48-7.52-11.08-9.75V398.7l92.05,82a22.63,22.63,0,0,1,2.91,3.35,20.3,20.3,0,0,1,2.19,4,17,17,0,0,1,1.17,8.46,17.77,17.77,0,0,1-3.62,8.53,21.2,21.2,0,0,1-3.88,4.09q-14.78,13.62-29.73,27.29-8.15,7.42-16.28,14.8c1.93,1.54,4.6,3.54,7.92,5.69a113.17,113.17,0,0,0,18.44,9.42,122.15,122.15,0,0,0,24.82,7.25,118.63,118.63,0,0,0,17.56,1.57h17.34Zm-13,39.52c0,2.35,0,3.09,0,8.1,0,5.89,0,5.3,0,9.34,0,2.62,0,3.59,0,8.19v6.3c0,.46,0,1-.12,1.69a16.4,16.4,0,0,1-.31,1.86,17.1,17.1,0,0,1-1.29,3.68,17.66,17.66,0,0,1-1.27,2.24,18.37,18.37,0,0,1-3.45,3.91,20.75,20.75,0,0,1-2.15,1.57c-.55.36-1,.61-1.22.73s-1,.55-2,1a22.61,22.61,0,0,1-3.58,1.15,21.66,21.66,0,0,1-5.14.5,19.55,19.55,0,0,1-9.12-2.17,18,18,0,0,1-4-2.94c-1.74-1.4-4.38-3.53-7.56-6.2-3.53-3-6.08-5.19-7.1-6.08-6-5.21-19.22-16.2-19.22-16.2-4.39-3.65-10.5-8.8-18.3-15.56.76-1,1.37-1.7,1.76-2.16,3.56-4.32,5.38-6.18,8.91-10.54l.76-.94L1530.65,90a2.64,2.64,0,0,0,1,.57,2.9,2.9,0,0,0,1.6-.06,1.94,1.94,0,0,0,1.17-.65,1.4,1.4,0,0,0,.21-.82c0-.91,0-16,0-36.63l17.84,0v.08c0,1.23,0,2.4,0,2.4C1552.54,56.56,1552.53,57.78,1552.53,58.17Z" style="fill:#43b766"/><path d="M1504.93,503.65l2.82-2.58,4.58-4.23,1-.95.4-.36c.13-.12.88-.77,1-1a1.59,1.59,0,0,1,.12-.16.37.37,0,0,0,.07-.1s0-.09-.15-.17c-1.28-1.08-3.25-2.76-5.64-4.83-11.45-9.92-19.62-17.71-21.66-19.64-6.83-6.46-21.09-19.13-52.94-47.2,0,3.6,0,6.91,0,10.52v12.42c0,4.77,0,6.78,0,10.64,0,1.58,0,5.09,0,6.27a117.32,117.32,0,0,0,1.94,19,114.59,114.59,0,0,0,24.23,51.83c2,2.39,3.78,4.4,5.28,6,19.35-17.64,33.44-30.5,35.64-32.51Z" style="fill:#43b766"/><path d="M1670.27,162.82h-6.6c-3.37,0-3.3,0-3.49,0a21.34,21.34,0,0,1-9.47-3,19.7,19.7,0,0,1-5-4.32,18.86,18.86,0,0,1-3.64-7,18.17,18.17,0,0,1-.31-7.66,17.88,17.88,0,0,1,2.66-6.75,17.33,17.33,0,0,1,1.82-2.28c4-4.17,37-34.58,39.18-36.53a128.9,128.9,0,0,0-19.41-31c-1.4-1.66-2.63-3-3.53-4Q1645.83,75,1628.7,89.68q-7.9,6.76-15.78,13.43a18.76,18.76,0,0,1-2.46,1.9,19.09,19.09,0,0,1-7.06,2.69,20.19,20.19,0,0,1-7.27.22,22.09,22.09,0,0,1-10-4.59,15.39,15.39,0,0,1-2-1.68,17.2,17.2,0,0,1-4-7.05,22.7,22.7,0,0,1-.78-3q-.08-5.67-.11-11.42-.09-14.28.11-28.2h17.79l0,36.92a.87.87,0,0,0,0,.48c.3.81,1.84,1,2.75.81a2.84,2.84,0,0,0,1-.37,2.37,2.37,0,0,0,.55-.44c.46-.47,19-16.28,48.19-41.18-1.38-1.14-3.31-2.69-5.69-4.45a128.26,128.26,0,0,0-64.37-24.52l-3.12-.25c-.7,0-2.54-.17-5-.24-1.77-.06-3.55-.09-6-.06V188.92h130.9V162.59c-4.53.07-8.62.12-12.24.15C1682.08,162.76,1675.93,162.82,1670.27,162.82Z" style="fill:#02b4df"/><path d="M1659.59,143.88a.68.68,0,0,0-.07.44c.07.27.38.42.58.51a3,3,0,0,0,1.56.18l34.73-.23c-.09-4.67-.43-8.84-.85-12.4-.51-4.38-1.17-8-1.7-10.62-.62-3.08-1.29-5.78-1.9-8C1679.45,125.24,1659.88,143.33,1659.59,143.88Z" style="fill:#02b4df"/><path d="M1649.07,464.57l-15.64,14.17c-7.13,6.47-13.31,12.07-18.32,16.59,2.72,2.6,6.76,6.43,11.68,11.06l7.26,6.79c13,12.08,22.61,20.73,26.58,24.33,8.65,7.82,20.49,18.68,35.75,33.33V421.45l-23.54,21.49C1664.17,450.85,1657.3,457.1,1649.07,464.57Z" style="fill:#502390"/><path d="M1673.64,216.38c-1.15,0-2.3,0-3.46,0a72,72,0,0,0-9.66.13l-.12,0c-.37.07-1,.24-1.05.53s.12.33.19.44a1.45,1.45,0,0,0,.41.37l2.58,2.4q11.78,11.52,24.71,23.12c3.11,2.79,6,5.21,9.14,7.9v-35C1696.3,216.32,1677.09,216.43,1673.64,216.38Z" style="fill:#502390"/><path d="M1696.38,198.51v-9.59h-130.9V575.09h108.28c-12.73-12-25.54-24.19-38.42-36.16q-6.54-6-13.1-12.1c-.35-.32-3-2.76-6.64-6.11-3.83-3.54-7-6.47-9.18-8.5-.83-.85-1.54-1.5-2-1.94-1-.88-1.35-1.13-2-1.82a16.19,16.19,0,0,1-1.7-2,18.81,18.81,0,0,1-2.75-5,17.56,17.56,0,0,1-.83-8.59,18.85,18.85,0,0,1,4.14-9.07,19.61,19.61,0,0,1,1.85-1.91c9.11-8.11,18.83-16.07,27.34-24.62,1.52-1.52,2.81-2.8,4-3.93,7.4-7.27,9.38-8.41,29.17-26.46,12.87-11.74,25-23,28.45-26.18l4.38-4.09V343.65l-60.46,56-10.8,10c-3.65,3.37-5.78,5.11-8.55,7.92-.26.27-1.34,1.36-2.88,2.69a26.92,26.92,0,0,1-4.26,3.17,19.72,19.72,0,0,1-10.43,2.71c-.56,0-1.11,0-1.67-.09a22.42,22.42,0,0,1-6.69-1.59c-.57-.25-1.2-.58-1.2-.58a22.65,22.65,0,0,1-3.39-2.08,18.49,18.49,0,0,1-3.89-4,17.9,17.9,0,0,1-3.33-8.77,18.46,18.46,0,0,1,0-3.24c.58-7.26.86-94.46.59-111-.1-6.55.44-13.1.11-19.64a20,20,0,0,1,1.48-8.68,19,19,0,0,1,3.55-5.45,21,21,0,0,1,18.32-6.19,20.52,20.52,0,0,1,2.18.44c3.88,1,6.53,3,9.17,5,.65.49,1.78,1.59,4.07,3.54,1.47,1.26,2.57,2.16,3,2.53,2.54,2.11,5,4.23,7.36,6.27l1.41,1.22c4.27,3.67,16.61,14.22,33.73,28.87h0q-2.76,3.27-5.57,6.55-3.06,3.58-6.11,7.12l0,0,0,.05-23.38-20.09-27.1-23.18a3.41,3.41,0,0,0-1.63-.55,3.22,3.22,0,0,0-1.64.38,2.79,2.79,0,0,0-.59.43q.1,64.53-.74,129.49c0,.95-.05,3.4-.06,4.34a2.46,2.46,0,0,0,.88.65,2.88,2.88,0,0,0,1,.19l.35,0a3.47,3.47,0,0,0,1.41-.3,3.25,3.25,0,0,0,1.35-1.17c13.73-12.47,24.78-22.64,32.2-29.5l1-.89c13.31-12.37,14.74-13.83,29.46-27.49,11.66-10.83,15.29-14.13,27-25,2-1.86,3.58-3.36,5-4.65V276.92l-26.24-24.52-24.46-22.85a26,26,0,0,1-2.24-3.34,18.14,18.14,0,0,1-2.25-5.42,15.37,15.37,0,0,1,.18-6.68,20,20,0,0,1,3.86-8.22,20.39,20.39,0,0,1,11.65-7c.65-.14,1.17-.22,1.5-.27l38-.14Z" style="fill:#502390"/><line x1="1708.75" y1="582.65" x2="1696.38" y2="570.85" style="fill:none"/><line x1="1697.35" y1="597.31" x2="1673.75" y2="575.09" style="fill:none"/><path d="M1696.38,570.85V421.47c9.77-9,21-19.49,33.49-31v1.39c-.82,58.72-.56,85,0,97v21.87c0,.62-.07,1.25-.09,1.87a156.85,156.85,0,0,1-2.48,21.73,144.8,144.8,0,0,1-18.55,48.31Z" style="fill:#9c50bc"/><path d="M1696.38,188.92V319.1c3.85-4,28.15-26,33.49-30.83V188.92Z" style="fill:#9c50bc"/><path d="M1697.35,597.31a148,148,0,0,1-24.63,24,144.36,144.36,0,0,1-28.91,17.46,140,140,0,0,1-22.56,7.9A141.5,141.5,0,0,1,1601,650.4c-9.7,1.09-17.77,1-27.23.9-3.92,0-6.14-.14-8.31-.24v-76h108.27Z" style="fill:#9c50bc"/><path d="M1696.38,343.64v52.94c6.62-6.15,12.93-12,21.69-19.89,5-4.49,9.09-8.14,11.8-10.54v-53.9c-12.49,11.62-23.61,22.2-33.49,31.39Z" style="fill:#9c50bc"/></svg>